<svg xmlns="http://www.w3.org/2000/svg" xmlns:xlink="http://www.w3.org/1999/xlink" viewBox="0 0 1920 1279"><defs><style>.cls-1{fill:none;}.cls-2{fill:#ffb806;}.cls-3{fill:#630101;}.cls-4{fill:#820000;}.cls-5{fill:#00797f;}.cls-6{fill:#bc8304;}.cls-7{isolation:isolate;}.cls-8{clip-path:url(#clip-path);}.cls-9{fill:#9e9e9e;}.cls-10{fill:#a3a3a3;}.cls-11{fill:#a8a8a8;}.cls-12{fill:#adadad;}.cls-13{fill:#b3b3b3;}.cls-14{fill:#b8b8b8;}.cls-15{fill:#bdbdbd;}.cls-16{fill:#c2c2c2;}.cls-17{fill:#c7c7c7;}.cls-18{fill:#ccc;}.cls-19{clip-path:url(#clip-path-2);}.cls-20{fill:#916102;}.cls-21{clip-path:url(#clip-path-3);}.cls-22{clip-path:url(#clip-path-4);}.cls-23{clip-path:url(#clip-path-5);}.cls-24{fill:#888;}.cls-25{fill:#a0a0a0;}.cls-26{fill:#818181;}.cls-27{fill:#ddd;}</style><clipPath id="clip-path"><path class="cls-1" d="M1538.71,425.81,1490,397.49a2.24,2.24,0,0,0,2.16,0l48.71,28.31A2.25,2.25,0,0,1,1538.71,425.81Z"/></clipPath><clipPath id="clip-path-2"><path class="cls-2" d="M1477.68,337.18l48.72,28.31q-6.08-3.53-17.15.17l-48.71-28.31Q1471.61,333.66,1477.68,337.18Z"/></clipPath><clipPath id="clip-path-3"><path class="cls-2" d="M1140.57,591.73l-48.72-28.31c-.44-3-.78-6.37-1-10.14s-.35-8.43-.37-14l48.72,28.31q0,8.34.37,14C1139.79,585.36,1140.13,588.74,1140.57,591.73Z"/></clipPath><clipPath id="clip-path-4"><path class="cls-2" d="M1094.54,605.6l-48.72-28.32a38.3,38.3,0,0,1-4.52-8q-2.46-5.44-5-12.83l48.72,28.32q2.51,7.38,5,12.82A37.79,37.79,0,0,0,1094.54,605.6Z"/></clipPath><clipPath id="clip-path-5"><path class="cls-2" d="M737.38,883.92l-48.72-28.31q-15.09-9-15.19-44.67,0-4,.4-12.56l48.72,28.31q-.42,8.59-.4,12.57Q722.3,874.95,737.38,883.92Z"/></clipPath></defs><title>Mesa de trabajo 1</title><g id="Capa_1" data-name="Capa 1"><rect x="0.5" y="0.5" width="1919" height="1278"/><path d="M1919,1V1278H1V1H1919m1-1H0V1279H1920V0Z"/></g><g id="Capa_2" data-name="Capa 2"><path class="cls-2" d="M794.15,680.25l-48.72-28.31.33,117.27q0,1.62,0,3.15v.21c0,1-.07,1.92-.11,2.83,0,.1,0,.21,0,.31-.05.89-.11,1.74-.18,2.57l0,.35c-.07.8-.16,1.58-.25,2.33,0,.13,0,.26,0,.39-.08.61-.17,1.21-.27,1.78a1.85,1.85,0,0,1,0,.23c-.08.52-.18,1-.28,1.51,0,.11,0,.22-.07.33-.14.63-.28,1.23-.44,1.81l-.09.33c-.1.35-.21.7-.32,1a1.87,1.87,0,0,1-.07.22c-.08.25-.17.5-.26.74l-.09.25-.07.18-.3.72c-.24.55-.51,1.08-.79,1.61l-.09.15c-.26.48-.55,1-.85,1.42a1.27,1.27,0,0,0-.13.19c-.31.45-.63.9-1,1.33l-.21.25c-.26.33-.54.64-.82,1l-.57.61-.76.75-.56.51c-.28.25-.58.5-.88.75l-.57.45c-.35.26-.7.52-1.06.77l-.52.36c-.55.37-1.11.72-1.7,1.06s-1,.56-1.49.8l-.44.21c-.32.15-.64.3-1,.43l-.08,0c-.37.15-.73.28-1.09.39a1.4,1.4,0,0,1-.29.09,6.72,6.72,0,0,1-.71.18l-.5.11c-.3,0-.59.09-.87.11h-.11a6.75,6.75,0,0,1-.91,0l-.17,0a5.16,5.16,0,0,1-.8-.17l-.1,0a4,4,0,0,1-.76-.34l48.72,28.32,0,0,.44.22.27.09.11,0,.09,0a4.37,4.37,0,0,0,.52.12l.19,0,.17,0,.21,0c.22,0,.44,0,.67,0h.14a5.56,5.56,0,0,0,.69-.07l.17,0,.51-.11.43-.09.28-.08.29-.1c.35-.11.71-.24,1.09-.39l.08,0h0c.29-.12.61-.27.92-.42l.45-.21c.48-.24,1-.5,1.49-.8s1.15-.69,1.7-1.05l.52-.37c.36-.25.71-.5,1-.76s.38-.31.57-.46.6-.49.89-.75.37-.34.55-.51.3-.26.44-.4l.33-.35.57-.61c.1-.11.22-.22.32-.34l.5-.6.21-.26.1-.12c.21-.28.42-.56.62-.85l.25-.36.12-.19.16-.23c.16-.25.31-.5.46-.75l.24-.44a1.09,1.09,0,0,0,.08-.15c0-.06.07-.11.1-.16.13-.26.26-.51.38-.77s.22-.45.32-.68l0-.11c.09-.2.17-.4.25-.61l.08-.18v0l.09-.23c.09-.24.18-.48.26-.74,0,0,0,0,0,0s0-.12,0-.17c.11-.33.21-.67.31-1l.06-.18a.94.94,0,0,1,0-.16c.15-.58.3-1.18.44-1.81a.43.43,0,0,0,0-.11c0-.07,0-.15.05-.22.1-.49.19-1,.28-1.51,0-.07,0-.15,0-.23.1-.57.19-1.17.27-1.78a1.11,1.11,0,0,0,0-.19l0-.19c.09-.76.18-1.54.25-2.34l0-.35c.07-.83.13-1.68.18-2.57,0-.1,0-.2,0-.31,0-.91.08-1.85.1-2.83a1.41,1.41,0,0,0,0-.2c0-1,0-2.07,0-3.16Z"/><path class="cls-2" d="M1601.41,384.17l48.72-28.32c-.31.18-.62.34-.94.49l-.33.13c-.21.09-.42.18-.65.26a10.53,10.53,0,0,1-1.39.38l-.42.08c-.27.05-.54.08-.81.11l-.49.05c-.21,0-.43,0-.64,0h-.58l-.56,0-.66,0-.53-.05-.71-.09-.52-.09-.76-.15-.52-.12-.8-.21-.52-.14c-.29-.08-.58-.18-.87-.28l-.5-.16-1-.36-.46-.17-1-.44-.48-.2-.61-.29-1-.45-.43-.22-1.26-.66q-.76-.4-1.56-.87c-.44-.25-.86-.51-1.28-.77l-.88-.53-1.15-.75-.69-.46c-.52-.36-1-.72-1.54-1.09l-.22-.15q-.86-.63-1.68-1.29l-.47-.38c-.39-.31-.77-.63-1.14-.95-.19-.15-.37-.31-.55-.47-.34-.3-.68-.6-1-.91l-.51-.48c-.38-.35-.74-.7-1.1-1.06-.11-.11-.22-.21-.32-.32-.46-.46-.91-.93-1.34-1.4-.1-.11-.19-.22-.29-.32q-.54-.6-1.08-1.23l-.26-.31c-.41-.49-.82-1-1.21-1.49l-.3-.39c-.28-.36-.55-.73-.82-1.1l-.75-1.06-.51-.75c-.58-.86-1.13-1.73-1.66-2.63l-.46-.8-.64-1.14c-.24-.46-.49-.92-.73-1.39l-.13-.26c-.32-.65-.64-1.31-1-2s-.59-1.35-.88-2a2,2,0,0,0-.11-.26l-.66-1.69-.18-.49c-.25-.67-.48-1.34-.71-2l-.09-.26c-.2-.6-.39-1.22-.58-1.84l-.24-.82c-.13-.47-.26-.93-.39-1.41l-.27-1-.33-1.32c-.09-.4-.19-.8-.28-1.21l-.27-1.25c-.1-.47-.2-.95-.29-1.43s-.16-.81-.23-1.22-.2-1.12-.29-1.68c-.06-.39-.13-.77-.19-1.16-.11-.75-.22-1.52-.32-2.29,0-.27-.08-.53-.11-.79-.14-1.1-.26-2.22-.37-3.36,0-.26,0-.52-.07-.78-.1-1-.18-2.1-.25-3.17,0-.31-.05-.62-.06-.94-.09-1.41-.16-2.85-.2-4.31,0-.27,0-.53,0-.79,0-1.64-.08-3.31-.07-5,0-.85,0-1.67,0-2.49,0-.25,0-.51,0-.76q0-1.5.09-2.94c0-.14,0-.27,0-.41,0-.78.08-1.54.13-2.29l.06-.89c0-.59.09-1.17.14-1.74,0-.27,0-.54.07-.8.06-.59.12-1.17.18-1.73,0-.23,0-.46.08-.68.09-.75.19-1.48.29-2.2l.06-.36q.13-.9.3-1.77c0-.18.06-.36.1-.54.12-.62.24-1.23.37-1.81l0-.15c.14-.63.3-1.23.45-1.81,0-.15.08-.3.13-.45.14-.52.29-1,.45-1.51l.06-.2c.17-.54.36-1.05.55-1.55,0-.14.11-.27.16-.41.16-.39.32-.78.49-1.15,0-.11.09-.22.14-.32.23-.48.45-.94.69-1.37l.09-.14c.2-.37.42-.73.64-1.07s.4-.58.6-.85l.3-.42a13.29,13.29,0,0,1,1-1.11,12.61,12.61,0,0,1,1.22-1.11,10.52,10.52,0,0,1,1.32-.89h0l-48.72,28.31a12,12,0,0,0-2.54,2c-.33.34-.65.71-1,1.11l-.3.42c-.2.27-.41.55-.6.86a.76.76,0,0,0-.08.11c-.2.31-.38.63-.56.95a1,1,0,0,0-.08.14c-.22.39-.43.79-.63,1.22l-.06.15-.15.32c-.17.37-.33.76-.49,1.15l-.16.42c0,.09-.07.18-.11.27-.15.41-.3.84-.44,1.27l-.06.2c-.11.33-.21.66-.31,1,0,.16-.1.34-.14.5l-.12.45q-.24.86-.45,1.77v0a.83.83,0,0,0,0,.15c-.13.58-.25,1.19-.37,1.81,0,.18-.07.36-.1.54s-.07.35-.1.53c-.07.41-.13.83-.2,1.25,0,.12,0,.23,0,.36-.1.62-.19,1.25-.27,1.9l0,.29c0,.22-.05.46-.08.68l-.18,1.72c0,.27,0,.54-.07.81s0,.38,0,.58c0,.38-.06.77-.09,1.16l-.06.89c0,.75-.09,1.51-.12,2.29,0,.14,0,.27,0,.41v.06c0,.94-.07,1.9-.09,2.89,0,.25,0,.51,0,.77,0,.69,0,1.39,0,2.11v.36c0,1.7,0,3.37.07,5v.49c0,.1,0,.2,0,.3,0,1.46.11,2.9.2,4.32,0,.11,0,.24,0,.36s0,.38.05.57c.07,1.08.16,2.13.25,3.18,0,.18,0,.36,0,.54l0,.23c.11,1.14.23,2.26.37,3.36,0,.05,0,.1,0,.14,0,.22.06.43.09.64.1.78.21,1.55.32,2.31,0,.12,0,.26.06.39s.09.5.13.76c.09.56.19,1.13.29,1.68,0,.18.06.37.09.54s.1.45.14.68c.1.48.19,1,.29,1.43,0,.2.08.41.13.61s.1.43.15.64c.09.41.18.82.28,1.22.05.2.09.41.14.61l.18.69.27,1c0,.17.09.34.14.51s.17.6.26.89.15.55.23.81.06.22.1.33c.15.51.32,1,.49,1.52a2.76,2.76,0,0,0,.08.27v0c.19.56.38,1.11.58,1.66l.12.32.18.49.27.7c.13.33.26.66.4,1,0,.09.07.18.1.26l0,.12c.18.43.36.86.55,1.28.09.21.19.43.29.64s.19.41.28.62c.2.43.41.86.62,1.28l0,.09a2,2,0,0,1,.13.25l.54,1,.2.35c.2.39.42.76.63,1.14.12.2.22.41.34.61a2,2,0,0,1,.12.19c.53.9,1.09,1.78,1.66,2.63.05.07.08.14.13.21l.38.54c.25.36.5.72.76,1.07l.23.33c.19.26.39.51.58.76l.3.39.12.16.93,1.15.16.18.26.31.53.62.55.61.29.32.15.17c.35.38.71.75,1.08,1.12a.57.57,0,0,0,.11.11l.31.32.75.73.36.34.51.47.41.39.61.52.54.48.24.2c.29.25.6.5.9.74l.47.38.1.09c.52.4,1,.8,1.57,1.19h0l.21.15,1.43,1,.12.07.69.46,1,.63.19.12.88.54.83.5.45.27,1.47.82.09,0c.43.24.85.45,1.27.66l.39.2,0,0,1,.46.58.27h0l.48.21,1,.41,0,0,.46.17c.29.11.58.23.87.33l.1,0,.5.17.7.23.17,0,.52.15.55.15.25.05.53.12.42.1.33.05.52.09.33.05.38,0,.53.06.25,0,.41,0h.77l.37,0,.64,0h.22l.27,0q.42,0,.81-.12l.26,0,.16,0a10.68,10.68,0,0,0,1.4-.38h0c.21-.07.41-.16.62-.25l.32-.13C1600.79,384.5,1601.11,384.34,1601.41,384.17Z"/><path class="cls-3" d="M1712,352.89l0-1.94c0-.28,0-.55,0-.82v-.37c0-1.91,0-3.81-.08-5.7v-.12c0-.58-.06-1.16-.08-1.74,0-1.27-.1-2.53-.18-3.79a2.09,2.09,0,0,0,0-.25c-.05-.86-.13-1.72-.2-2.58s-.13-1.75-.21-2.62c0-.08,0-.16,0-.24-.11-1.2-.26-2.39-.4-3.59,0-.48-.1-1-.16-1.46,0,0,0-.06,0-.09-.21-1.65-.44-3.29-.7-4.93a.78.78,0,0,1,0-.14c-.07-.41-.15-.82-.22-1.23-.18-1.13-.37-2.26-.58-3.38l-.09-.47c-.11-.57-.24-1.15-.35-1.73-.17-.8-.32-1.61-.49-2.41-.07-.29-.14-.57-.2-.86-.14-.61-.29-1.23-.43-1.84s-.27-1.18-.41-1.77-.25-.91-.36-1.36l-.47-1.79c-.11-.39-.2-.78-.31-1.17-.2-.71-.41-1.42-.62-2.13-.14-.49-.28-1-.43-1.47-.06-.18-.11-.37-.16-.56-.41-1.32-.83-2.64-1.27-4a.56.56,0,0,1,0-.12l-.18-.49c-.35-1.06-.72-2.11-1.1-3.16-.11-.32-.24-.64-.36-1s-.31-.85-.47-1.27-.34-.91-.52-1.37c-.31-.81-.64-1.61-1-2.41l-.3-.76-.12-.29c-.47-1.13-1-2.26-1.45-3.38l-.33-.72c-.16-.36-.33-.72-.49-1.09-.25-.53-.48-1.07-.73-1.6s-.61-1.26-.92-1.9c-.19-.38-.37-.77-.56-1.16l-.27-.56c-.57-1.14-1.16-2.27-1.75-3.4l-.33-.64,0-.08q-1.26-2.37-2.6-4.71l-48.72,28.31q1.37,2.38,2.64,4.79l.33.65c.69,1.31,1.37,2.63,2,4,.19.38.38.77.56,1.15.57,1.17,1.12,2.33,1.65,3.5.16.37.33.73.5,1.1q1,2.18,1.89,4.38l.3.76c.51,1.26,1,2.52,1.49,3.79.16.42.32.84.47,1.26.51,1.37,1,2.74,1.47,4.12.05.17.11.33.17.49q.77,2.31,1.47,4.64c.15.49.29,1,.43,1.47q.48,1.65.93,3.3c.16.6.32,1.2.47,1.79.27,1,.52,2.08.77,3.13.14.61.29,1.23.43,1.84.24,1.09.47,2.18.69,3.28.11.57.24,1.15.35,1.73.24,1.27.46,2.56.68,3.84.06.41.14.82.21,1.23.27,1.71.51,3.43.73,5.16.06.5.11,1,.17,1.5.15,1.26.29,2.52.41,3.79.08.87.14,1.75.21,2.63s.16,1.88.22,2.82c.07,1.26.12,2.52.17,3.79,0,.62.07,1.24.08,1.86.06,1.89.09,3.79.08,5.7,0,.39,0,.78,0,1.17,0,.66,0,1.31,0,2l0,1.12c0,.59,0,1.17,0,1.75l-.06,1.19c0,.52,0,1-.08,1.55s0,.79-.07,1.18-.07,1-.11,1.51l-.09,1.17c0,.47-.09.94-.13,1.41l-.12,1.14-.15,1.39c0,.37-.09.74-.14,1.1l-.18,1.36-.15,1.06c-.07.45-.15.9-.22,1.35s-.11.67-.17,1c-.08.49-.17,1-.26,1.44-.06.29-.11.58-.17.86-.11.56-.23,1.12-.35,1.67l-.12.56c-.17.74-.35,1.48-.54,2.2,0,.2-.11.4-.16.6l-.42,1.53c-.07.24-.14.47-.22.71-.14.48-.29,1-.45,1.45-.08.26-.17.52-.26.78-.15.44-.3.88-.46,1.31l-.27.74c-.22.57-.44,1.14-.67,1.69l-.18.46c-.3.69-.6,1.36-.91,2l-.18.37c-.36.73-.72,1.45-1.1,2.14l-.19.36c-.41.74-.84,1.45-1.28,2.15-.1.17-.21.34-.32.51-.28.43-.56.85-.85,1.27l-.33.46c-.39.55-.79,1.08-1.21,1.6l-.19.24c-.36.43-.72.86-1.09,1.28l-.42.45c-.32.36-.66.7-1,1l-.4.4c-.46.45-.93.89-1.42,1.32l-.13.11c-.44.38-.9.75-1.36,1.11l-.46.35c-.38.29-.76.56-1.14.83l-.48.32c-.53.36-1.07.7-1.62,1l48.72-28.31c.55-.33,1.09-.68,1.62-1l.47-.32c.39-.27.77-.54,1.14-.83l.47-.35c.46-.36.92-.73,1.36-1.11l.13-.12c.48-.42,1-.86,1.42-1.31l.39-.4c.34-.34.67-.68,1-1l.41-.45c.37-.42.74-.85,1.09-1.29a2.2,2.2,0,0,0,.2-.23c.41-.52.82-1.05,1.21-1.6l.32-.46c.29-.42.58-.84.86-1.27.06-.1.13-.19.2-.3l.12-.21c.44-.7.87-1.41,1.28-2.15.06-.12.12-.24.19-.36.37-.69.74-1.41,1.09-2.14l.13-.24.06-.14c.31-.66.61-1.33.9-2,.07-.15.13-.31.19-.46.23-.55.45-1.12.67-1.69l.12-.32.15-.42c.16-.43.31-.87.46-1.3.09-.27.18-.53.26-.8.16-.47.3-.95.45-1.44.06-.18.11-.36.17-.54a.84.84,0,0,1,0-.17c.14-.5.28-1,.41-1.51.06-.21.12-.42.17-.63.19-.72.37-1.45.54-2.2v0l.12-.52c.12-.56.24-1.11.35-1.67.06-.28.11-.57.16-.86.1-.48.19-1,.27-1.44,0-.06,0-.13,0-.19,0-.26.08-.54.13-.8.07-.45.15-.9.21-1.36s.11-.7.16-1.05l.18-1.36c0-.12,0-.23,0-.35s0-.5.08-.75c.06-.46.11-.92.16-1.39l.12-1.14c0-.47.09-.94.13-1.42,0-.17,0-.34,0-.52s0-.43,0-.64c0-.5.07-1,.11-1.51s0-.78.07-1.18.06-1,.08-1.56c0-.24,0-.48,0-.72s0-.31,0-.46c0-.58,0-1.16.06-1.75Z"/><path class="cls-4" d="M1689.12,264.77l-.91-1.49c-.52-.88-1-1.76-1.59-2.63s-.93-1.46-1.4-2.19-1.1-1.7-1.66-2.54c-.21-.31-.4-.62-.61-.92s-.48-.67-.71-1c-.79-1.15-1.59-2.28-2.41-3.4-.26-.36-.51-.73-.77-1.08l-.61-.8c-.44-.59-.89-1.17-1.34-1.75s-.68-.92-1-1.36-.6-.73-.89-1.1l-1.11-1.37-.75-.93c-.5-.6-1-1.18-1.52-1.77l-.91-1.08-.34-.39c-1-1.08-1.92-2.16-2.9-3.22a.12.12,0,0,1-.05-.05l-.42-.43c-.87-.94-1.75-1.87-2.65-2.78-.12-.13-.25-.25-.37-.37l-1.35-1.33-1.65-1.64-.62-.57-1.66-1.54c-.46-.42-.9-.86-1.37-1.27l-.76-.67-1.88-1.64c-.42-.36-.83-.74-1.26-1.1l-.85-.69c-.67-.56-1.35-1.11-2-1.66l-1.23-1-.89-.68c-.72-.56-1.45-1.11-2.18-1.66l-1.25-.95c-.29-.22-.6-.42-.89-.63-.77-.56-1.55-1.11-2.33-1.65-.43-.31-.86-.63-1.31-.94-.27-.19-.56-.37-.84-.56l-2.54-1.67-1.4-.92c-.25-.16-.5-.3-.74-.46-.94-.59-1.89-1.16-2.84-1.73-.5-.31-1-.62-1.5-.92l-1.21-.71c-1.21-.7-2.41-1.36-3.59-2l-.39-.21-.37-.2-1.25-.66-1.11-.58c-.41-.22-.82-.42-1.24-.63l-.79-.4-.31-.15-1.08-.52-1.15-.55-1.07-.49-.79-.36-.36-.16c-.32-.15-.65-.29-1-.42l-1.17-.51-1-.39-.64-.27-.28-.1c-1.13-.45-2.25-.87-3.36-1.27l-.24-.09-.32-.1c-1.1-.39-2.19-.75-3.27-1.07l-.1,0-.24-.06c-1-.32-2.1-.61-3.13-.87l-.18,0-.07,0c-1-.26-2.07-.48-3.09-.68l-.31-.07-.2,0c-1-.19-2-.35-3-.49l-.25,0-.56-.07-.79-.09-1-.1-.78-.07-.29,0-.66,0-.85,0-.93,0h-1.65c-.34,0-.67,0-1,0l-.8,0-1,.06-.3,0-.41,0c-.42,0-.85.09-1.27.15l-.66.09c-.45.07-.89.14-1.34.23l-.4.07-.11,0q-1.1.23-2.16.51l-.49.13c-.67.19-1.33.39-2,.62l-.14,0,0,0-.88.33-.64.25-.9.39-.59.25-1,.47-.49.25c-.48.25-1,.51-1.42.78l-48.72,28.32c.47-.28.94-.54,1.42-.79l.5-.24c.31-.16.63-.33,1-.47l.59-.26.9-.39.64-.25.88-.33.19-.06c.65-.22,1.31-.43,2-.61l.49-.14c.72-.19,1.44-.36,2.17-.51l.51-.09,1.33-.23.66-.09c.42-.06.85-.1,1.27-.15l.71-.06,1-.07.8,0,1,0h.82l.83,0,.93,0,.85,0,1,.06.77.07,1,.1.8.1.8.1c1,.14,2,.3,3,.5l.51.1q1.53.3,3.09.69l.26.06q1.54.39,3.12.87l.35.1c1.07.32,2.16.69,3.26,1.07l.56.19c1.11.4,2.23.82,3.36,1.27l.93.37,1,.39,1.18.51,1,.42,1.15.52,1.07.49,1.16.55,1.07.52,1.11.56,1.23.62,1.12.58,1.24.66.76.42c1.19.64,2.38,1.31,3.59,2,.91.53,1.81,1.08,2.71,1.63s1.9,1.14,2.84,1.73l2.14,1.38c.85.56,1.7,1.11,2.54,1.68l2.16,1.49c.78.54,1.55,1.09,2.32,1.65s1.43,1.05,2.14,1.58,1.46,1.1,2.18,1.66l2.12,1.68c.68.55,1.36,1.1,2,1.66s1.41,1.19,2.11,1.79l1.88,1.64c.72.64,1.43,1.29,2.13,1.94s1.12,1,1.66,1.54c.77.73,1.52,1.47,2.27,2.21l1.35,1.33q1.53,1.56,3,3.15c.13.15.27.29.41.43,1.11,1.2,2.21,2.43,3.29,3.66l.92,1.08c.76.89,1.52,1.79,2.26,2.7l1.11,1.37c.65.81,1.29,1.63,1.93,2.46l1.34,1.75c.46.62.92,1.25,1.37,1.88.82,1.12,1.62,2.26,2.41,3.4.44.64.89,1.28,1.32,1.93.56.84,1.11,1.69,1.66,2.54s.94,1.46,1.4,2.19,1.07,1.75,1.6,2.63,1.21,2,1.79,3L1690,266.31Z"/><path class="cls-5" d="M1647.29,289.62a164.27,164.27,0,0,1,22,83.45q-.12,44.65-22.39,57.77t-60.57-9a161.91,161.91,0,0,1-60.58-60.94,164.39,164.39,0,0,1-22-83.42q.13-44.76,22.45-57.79t60.73,9.15A161.53,161.53,0,0,1,1647.29,289.62ZM1610,377.14q7.5-7.81,7.58-33.94t-7.36-42.67a55.5,55.5,0,0,0-23.45-25.69q-16.12-9.31-23.74-1.49t-7.68,33.92q-.08,26,7.47,42.56a56.11,56.11,0,0,0,23.66,25.87q16,9.24,23.52,1.44"/><polygon class="cls-2" points="272.56 949.48 321.28 921.17 315.04 941.85 266.32 970.16 272.56 949.48"/><polygon class="cls-6" points="281.98 916.43 330.7 888.12 362.84 906.67 314.12 934.98 281.98 916.43"/><polygon class="cls-2" points="298.39 862.38 347.11 834.07 330.7 888.12 281.98 916.43 298.39 862.38"/><polygon class="cls-4" points="272.58 790.3 321.3 761.99 373.13 791.92 324.42 820.23 272.58 790.3"/><polygon class="cls-3" points="324.42 820.23 373.13 791.92 428.68 1007.46 379.96 1035.77 324.42 820.23"/><path class="cls-5" d="M324.42,820.23,380,1035.77l-50.76-29.31-5.88-27.67-50.76-29.31-6.24,20.68-50.32-29L272.58,790.3ZM282,916.43,314.12,935l-15.73-72.6-16.41,54"/><g class="cls-7"><g class="cls-8"><g class="cls-7"><path class="cls-9" d="M1538.71,425.81,1490,397.49l0,0,48.72,28.31h0"/><path class="cls-10" d="M1538.73,425.82,1490,397.51l.2.09,48.72,28.31a1.76,1.76,0,0,1-.2-.09"/><path class="cls-11" d="M1538.93,425.91l-48.72-28.31.2.07L1539.13,426a.68.68,0,0,1-.2-.07"/><path class="cls-12" d="M1539.13,426l-48.72-28.31.2.05L1539.32,426l-.19,0"/><path class="cls-13" d="M1539.32,426l-48.71-28.31.2,0,48.72,28.31-.21,0"/><path class="cls-14" d="M1539.53,426.05l-48.72-28.31h.23l48.71,28.32h-.22"/><path class="cls-15" d="M1539.75,426.06,1491,397.74l.24,0L1540,426l-.25,0"/><path class="cls-16" d="M1540,426l-48.72-28.31.31-.07L1540.31,426l-.31.06"/><path class="cls-17" d="M1540.31,426l-48.72-28.32a2.3,2.3,0,0,0,.42-.14l48.72,28.31-.42.15"/><path class="cls-18" d="M1540.73,425.82,1492,397.51l.14-.06,48.71,28.31-.13.06"/></g></g></g><path class="cls-2" d="M1477.68,337.18l48.72,28.31q-6.08-3.53-17.15.17l-48.71-28.31Q1471.61,333.66,1477.68,337.18Z"/><g class="cls-19"><g class="cls-7"><path class="cls-2" d="M1509.25,365.66l-48.71-28.31c.89-.3,1.75-.56,2.59-.79l48.72,28.32c-.84.22-1.71.49-2.6.78"/><path class="cls-2" d="M1511.85,364.88l-48.72-28.32a35.78,35.78,0,0,1,3.81-.81l48.71,28.31a36.3,36.3,0,0,0-3.8.82"/><path class="cls-2" d="M1515.65,364.06l-48.71-28.31a26.53,26.53,0,0,1,2.7-.27l48.72,28.31a26.71,26.71,0,0,0-2.71.27"/><path class="cls-2" d="M1518.36,363.79l-48.72-28.31a18.68,18.68,0,0,1,2.12,0l48.71,28.31c-.68,0-1.38,0-2.11,0"/><path class="cls-2" d="M1520.47,363.8l-48.71-28.31a15.92,15.92,0,0,1,1.74.21L1522.22,364a15.81,15.81,0,0,0-1.75-.21"/><path class="cls-2" d="M1522.22,364,1473.5,335.7a14.43,14.43,0,0,1,1.51.34l48.71,28.31a13.7,13.7,0,0,0-1.5-.34"/><path class="cls-2" d="M1523.72,364.35,1475,336a13.91,13.91,0,0,1,1.33.47l48.72,28.31a14.11,14.11,0,0,0-1.34-.47"/><path class="cls-2" d="M1525.06,364.82l-48.72-28.31a12.31,12.31,0,0,1,1.21.59l48.72,28.32a12.38,12.38,0,0,0-1.21-.6"/><path class="cls-2" d="M1526.27,365.42l-48.72-28.32.13.08,48.72,28.31-.13-.07"/></g></g><path class="cls-2" d="M1487.11,452.12a49.3,49.3,0,0,1-.71-7.25l-.06-18.27q0-14.19-4.93-17.15l-48.71-28.31q4.89,3,4.93,17.14l0,18.28a48.18,48.18,0,0,0,.72,7.25c.24,1.5.53,3.11.89,4.82s.77,3.54,1.25,5.47l48.72,28.31Q1487.84,456.62,1487.11,452.12Z"/><path class="cls-6" d="M1482.25,358.43l.53-.72-48.72-28.31-.56.76c-.26.33-.54.66-.83,1l-.31.35-.44.49-.36.38-.47.47c-.1.11-.21.21-.32.32l-1,.9-.21.2c-.4.36-.81.71-1.24,1.07l-.32.27c-.36.29-.73.59-1.11.88l-.32.26c-.47.36-1,.72-1.46,1.08l-.32.23c-.42.31-.86.61-1.31.92l-.41.28-1.68,1.11-.24.15-1.59,1-.49.29-1.91,1.14,48.71,28.31,1.92-1.13.49-.3,1.59-1,.24-.15q.87-.56,1.68-1.11l.41-.28,1.31-.92.32-.23c.5-.36,1-.72,1.46-1.08a3.92,3.92,0,0,1,.32-.25l1.11-.89.32-.27c.43-.36.84-.71,1.24-1.07l.21-.2,1-.9.17-.16.15-.16c.16-.15.31-.31.47-.47l.36-.38.44-.48.24-.27.07-.09c.29-.33.57-.67.82-1Z"/><path class="cls-2" d="M1487.13,346.28c.06-.47.1-1,.14-1.45,0-.25,0-.49.07-.74,0-.76.07-1.53.06-2.31a22.19,22.19,0,0,0-.87-6.74,6.17,6.17,0,0,0-2.59-3.57l-48.71-28.31q3.43,2,3.45,10.31c0,.78,0,1.55-.06,2.3,0,.27,0,.52-.08.79,0,.48-.07,1-.13,1.43-.1.76-.23,1.51-.38,2.23s-.29,1.25-.46,1.85c0,.11-.07.21-.1.32-.17.57-.35,1.13-.56,1.67l0,.09c-.24.62-.5,1.23-.78,1.82h0c-.28.59-.59,1.16-.92,1.71a.75.75,0,0,1-.07.12,18.89,18.89,0,0,1-1,1.59l48.72,28.31.14-.19c.19-.27.37-.55.55-.82l.35-.57c0-.05,0-.09.07-.13a.86.86,0,0,0,.07-.1c.15-.26.3-.52.44-.79s.28-.54.41-.82h0c.14-.28.27-.56.39-.85s.27-.62.39-.93v0l0-.09c.12-.3.23-.61.33-.92s.16-.5.23-.75.07-.21.1-.32,0-.12,0-.18q.23-.78.39-1.59a.17.17,0,0,0,0-.07c.16-.73.29-1.48.39-2.24Z"/><polygon class="cls-20" points="1442.64 384.69 1393.92 356.38 1417.2 342.94 1465.91 371.25 1442.64 384.69"/><polygon class="cls-2" points="1392.39 518.34 1343.68 490.02 1343.16 306.84 1391.87 335.15 1392.39 518.34"/><path class="cls-5" d="M1474.84,247.36l-.17-.1-.19-.09q-.6-.33-1.23-.6l-.21-.11-.15-.05a15.55,15.55,0,0,0-1.54-.54l-.07,0c-.34-.1-.68-.18-1-.26l-.93-.19-1-.14h-.07c-.39-.05-.79-.09-1.2-.11-.22,0-.46,0-.69,0h-.43c-.59,0-1.19,0-1.81,0h-.19l-.59,0c-.55,0-1.11.09-1.68.16l-.79.1-.69.09c-.23,0-.48.09-.72.13l-1.52.28-1.32.29-1.61.39-.75.18-.77.23-1.14.33-1.82.57-1.15.38-2,.73-1,.39c-.94.35-1.89.73-2.87,1.13l-.36.15h0c-1,.43-2.11.89-3.2,1.37l-1,.44c-.83.37-1.67.76-2.52,1.16l-1,.49c-1.12.53-2.25,1.09-3.41,1.67l-.12.06c-1.19.6-2.42,1.24-3.66,1.9l-1.1.59c-.93.5-1.88,1-2.83,1.54l-1.15.63c-1.29.72-2.61,1.46-4,2.24l.19.11-76.11,43.94,48.71,28.31,76.31-44L1468,291c1.28-.74,2.53-1.44,3.76-2.13l1.14-.63,2.84-1.54,1.1-.59c1.24-.66,2.46-1.29,3.66-1.9l.12-.06c1.16-.58,2.29-1.13,3.41-1.67l1-.49c.85-.4,1.69-.79,2.52-1.16l1-.43c1.1-.49,2.18-1,3.23-1.39l.36-.15c1-.4,1.93-.77,2.87-1.13l1-.39,2-.73,1.15-.38,1.82-.57,1.14-.33c.51-.15,1-.28,1.52-.41l1.61-.39,1.32-.29,1.52-.28c.47-.08.95-.16,1.41-.22l.79-.1q.86-.11,1.68-.15l.58-.05q1,0,2,0l.43,0c.65,0,1.28.06,1.89.13h.06a18.86,18.86,0,0,1,2,.33c.38.08.75.18,1.11.29.53.16,1,.34,1.54.54l.35.16a12.9,12.9,0,0,1,1.24.6l.36.19Z"/><path class="cls-4" d="M1536.29,416.94q.35,10.77,4.57,8.82l0,6.85-51.62,29.8q-1.42-5.79-2.15-10.29a49.3,49.3,0,0,1-.71-7.25l-.06-18.27q0-14.19-4.93-17.15t-16.9,4L1442.76,426l.17,63.18-50.54,29.18-.52-183.19,76.31-44q35.82-20.69,51.17-17.21t15.43,31.57a79.12,79.12,0,0,1-6.2,31.48q-6.24,14.7-19.33,28.72,13.34-4.44,19.42,1.57t6.57,24.16l.94,25A1.49,1.49,0,0,0,1536.29,416.94Zm-53.51-59.23q4.65-6.48,4.62-15.93c0-6.46-1.58-10.07-4.7-10.8s-9.17,1.49-18.18,6.7l-22,12.69.1,34.32,23.27-13.44q12.22-7,16.87-13.54"/><path class="cls-6" d="M1261.22,481.32c-.31.59-.63,1.17-1,1.75h0c-.32.55-.66,1.1-1,1.64l-.54.8-.6.89c-.43.6-.87,1.2-1.32,1.79l-.07.08c-.52.67-1.07,1.33-1.64,2l-.63.73c-.25.27-.49.55-.75.82s-.49.53-.75.8l-.79.81-.77.75c-.31.31-.63.61-1,.91l-.8.73-1,.88-.84.72-1.07.88-.87.7-1.14.87-.9.68c-.4.29-.81.59-1.23.88l-.91.64-1.33.9-.9.6-1.55,1-.78.49c-.8.49-1.61,1-2.43,1.45l48.71,28.31c.83-.48,1.64-1,2.43-1.45l.78-.49c.53-.32,1.05-.65,1.56-1l.89-.59c.45-.3.9-.6,1.34-.91l.91-.64,1.23-.88.89-.68,1.15-.87.87-.7c.36-.29.72-.58,1.07-.88l.84-.72,1-.88.8-.73.95-.9.43-.42c.12-.11.22-.23.34-.34l.79-.81c.25-.27.51-.53.75-.8s.5-.55.75-.82l.42-.47.21-.26c.57-.66,1.12-1.32,1.64-2l0-.06h0c.46-.59.9-1.19,1.32-1.79,0,0,0-.05.06-.08.19-.27.36-.54.54-.8s.37-.54.54-.81l.06-.08c.33-.52.65-1,1-1.57s.57-1,.84-1.51l.12-.24Z"/><polygon class="cls-20" points="1234.68 506.49 1220.92 514.43 1269.64 542.74 1283.39 534.8 1234.68 506.49"/><path class="cls-2" d="M1315.76,491c.17-1,.33-2.1.47-3.19,0,0,0-.07,0-.1v0c.15-1.17.28-2.38.4-3.6,0-.31.06-.62.08-.93.11-1.22.21-2.47.28-3.74v-.06c.08-1.29.13-2.62.17-4,0-.34,0-.67,0-1,0-1.36,0-2.74,0-4.15q-.07-24.75-7.68-30.7a9.86,9.86,0,0,0-1.09-.73l-48.71-28.31a9.74,9.74,0,0,1,1.08.73q7.61,5.94,7.68,30.7c0,1.41,0,2.79,0,4.15l0,1c0,1.34-.09,2.67-.16,4v.06c-.07,1.27-.17,2.52-.28,3.74,0,.31,0,.62-.08.92-.12,1.23-.25,2.44-.4,3.62,0,0,0,.07,0,.11-.15,1.09-.31,2.15-.48,3.2l-.15.87c-.16.93-.34,1.85-.52,2.75l-.09.45c-.06.28-.13.55-.19.82-.11.48-.22,1-.34,1.44-.07.3-.15.59-.23.89s-.21.81-.32,1.21c-.26.92-.54,1.82-.83,2.7-.08.24-.16.48-.25.72-.17.51-.35,1-.54,1.51l-.36.93-.42,1-.45,1c-.12.25-.23.51-.35.76-.25.54-.51,1.07-.78,1.58l48.71,28.31c.23-.43.45-.87.67-1.31l.12-.27c.12-.25.23-.5.34-.76s.22-.45.32-.69l.14-.33c.14-.34.28-.68.41-1s.18-.42.26-.64l.11-.3c.19-.49.37-1,.54-1.51l.21-.57c0-.05,0-.1,0-.15.29-.87.57-1.78.82-2.7a1.72,1.72,0,0,0,.07-.21c.09-.33.17-.67.26-1s.16-.59.23-.89c.12-.47.23-1,.34-1.44.06-.28.12-.54.18-.81l0-.12c0-.11,0-.23.07-.34.18-.9.36-1.82.52-2.75Z"/><path class="cls-5" d="M1299.24,354l-.32-.18-.52-.28-.78-.4-.7-.34-.81-.36-.2-.09a5.55,5.55,0,0,0-.52-.2l-.83-.32-.75-.26c-.29-.09-.57-.19-.86-.27l-.27-.09-.48-.13-.94-.24-.78-.18-1-.19-.38-.08-.3,0c-.77-.12-1.55-.24-2.36-.31l-.59,0c-.5,0-1-.05-1.54-.05h-.06q-.82,0-1.68,0l-.32,0-.92.07-1.35.12-1,.13-.75.09-.5.09c-.54.09-1.09.2-1.65.31l-1.09.22c-.59.13-1.2.28-1.81.44l-.79.19-.23.07c-.63.17-1.28.37-1.93.57l-.94.28c-1,.32-2,.66-3,1-.48.17-1,.36-1.48.56l-.56.22-1,.4h0l-.24.1-1.34.57-.58.25-1.1.49-.67.31-1.08.5-.74.34-1.12.53-.75.37-1.21.59-.75.37-1.4.7-.63.32-2.12,1.09-.13.07c-.68.35-1.37.71-2.07,1.09l-.76.4-1.54.82-.9.49-1.48.8-1,.54-1.49.82-1,.58-1.57.87-1,.57-1.78,1-.89.5-2.73,1.57h0l-61.9,35.74,48.72,28.31,61.9-35.74-24.36-14.15L1280,399.76l2.74-1.57.85-.49,1.81-1,1-.56,1.6-.89,1-.56,1.5-.83,1-.54,1.48-.8.89-.48,1.56-.84.74-.39,2.08-1.09.12-.07,2.13-1.09.62-.31,1.41-.71.73-.36,1.23-.6.75-.36,1.12-.54.74-.34,1.08-.5.67-.31,1.1-.48.57-.26,1.35-.57.23-.1,1-.41.56-.22c.51-.2,1-.39,1.48-.56,1-.37,2-.71,3-1,.32-.11.62-.19.94-.29.65-.2,1.29-.4,1.92-.57l1-.26c.62-.15,1.23-.31,1.82-.44l1.09-.22c.56-.11,1.1-.22,1.65-.3s.84-.14,1.25-.19l1-.13,1.35-.12.91-.07c.68,0,1.35-.06,2-.05h.06c.73,0,1.44,0,2.14.09s1.59.19,2.36.32l.68.11,1,.2.78.17.93.24.76.22c.29.08.57.18.85.27l.76.26.82.32.73.29.8.36.71.34.77.4c.29.16.57.3.85.47Z"/><polygon class="cls-2" points="1218.59 618.68 1169.87 590.37 1169.35 407.19 1218.07 435.5 1218.59 618.68"/><path class="cls-4" d="M1360.18,395.43q8.38,15.45,8.48,45.06a162.34,162.34,0,0,1-10.19,58.25,151.68,151.68,0,0,1-30.38,49.12A125.3,125.3,0,0,1,1308.57,565q-11.73,8.53-37.6,23.46l-52.38,30.24-.52-183.18,61.9-35.74q23.6-13.62,35.13-17.85t20.1-3.57Q1351.79,380,1360.18,395.43Zm-50.25,114.2q7.39-14.08,7.32-39.46-.07-24.75-7.68-30.7T1283.78,444l-14.39,8.31.25,90.41,13.75-7.94q19.15-11.06,26.54-25.17"/><path class="cls-2" d="M1140.57,591.73l-48.72-28.31c-.44-3-.78-6.37-1-10.14s-.35-8.43-.37-14l48.72,28.31q0,8.34.37,14C1139.79,585.36,1140.13,588.74,1140.57,591.73Z"/><g class="cls-21"><g class="cls-7"><path class="cls-2" d="M1140.57,591.73l-48.72-28.31c-.44-3-.78-6.37-1-10.14s-.35-8.43-.37-14l48.72,28.31q0,8.34.37,14c.22,3.77.56,7.15,1,10.14"/></g></g><polygon class="cls-2" points="1139.48 664.36 1090.76 636.05 1045.82 577.28 1094.54 605.6 1139.48 664.36"/><path class="cls-2" d="M1094.54,605.6l-48.72-28.32a38.3,38.3,0,0,1-4.52-8q-2.46-5.44-5-12.83l48.72,28.32q2.51,7.38,5,12.82A37.79,37.79,0,0,0,1094.54,605.6Z"/><g class="cls-22"><g class="cls-7"><path class="cls-2" d="M1094.54,605.6l-48.72-28.32a38.3,38.3,0,0,1-4.52-8q-2.46-5.44-5-12.83l48.72,28.32q2.51,7.38,5,12.82a37.79,37.79,0,0,0,4.52,8"/></g></g><polygon class="cls-2" points="1139.2 567.6 1090.48 539.29 1090.24 452.86 1138.96 481.18 1139.2 567.6"/><polygon class="cls-5" points="1138.96 481.18 1090.24 452.86 1139.05 424.68 1187.77 452.99 1138.96 481.18"/><polygon class="cls-5" points="1037.65 539.66 988.94 511.35 1037.54 483.29 1086.25 511.6 1037.65 539.66"/><polygon class="cls-2" points="1038.17 722.85 989.46 694.53 988.94 511.35 1037.65 539.66 1038.17 722.85"/><path class="cls-4" d="M1187.77,453l.52,183.19-48.81,28.18-44.94-58.76a37.79,37.79,0,0,1-4.52-8q-2.46-5.43-5-12.82a92.28,92.28,0,0,1,1.11,9.5c.22,3.41.35,8.29.37,14.67l.24,85.82-48.6,28.05-.52-183.18,48.6-28.06L1131.19,571a33.21,33.21,0,0,1,4.41,7.67q2.36,5.24,5,13.08c-.44-3-.78-6.37-1-10.14s-.35-8.43-.37-14l-.24-86.42Z"/><polygon class="cls-2" points="972.8 760.59 924.09 732.27 918.07 711.46 966.79 739.77 972.8 760.59"/><polygon class="cls-6" points="925.23 725.27 876.51 696.96 908.66 678.4 957.37 706.71 925.23 725.27"/><polygon class="cls-2" points="957.37 706.71 908.66 678.4 892.56 624.17 941.28 652.48 957.37 706.71"/><polygon class="cls-5" points="915.15 610.39 866.43 582.08 918.27 552.15 966.99 580.46 915.15 610.39"/><polygon class="cls-2" points="859.6 825.94 810.88 797.63 866.43 582.08 915.15 610.39 859.6 825.94"/><path class="cls-4" d="M967,580.46l56.58,150.82L972.8,760.59l-6-20.82L916,769.07l-6.1,27.82L859.6,825.94l55.55-215.55ZM925.23,725.27l32.14-18.56-16.09-54.23-16,72.79"/><path class="cls-2" d="M737.38,883.92l-48.72-28.31q-15.09-9-15.19-44.67,0-4,.4-12.56l48.72,28.31q-.42,8.59-.4,12.57Q722.3,874.95,737.38,883.92Z"/><g class="cls-23"><g class="cls-7"><path class="cls-2" d="M737.38,883.92l-48.72-28.31q-15.09-9-15.19-44.67,0-4,.4-12.56l48.72,28.31q-.42,8.59-.4,12.57.1,35.68,15.19,44.66"/></g></g><polygon class="cls-5" points="722.58 825.95 673.87 797.64 719.1 771.52 767.82 799.84 722.58 825.95"/><polygon class="cls-24" points="722.59 826.69 673.87 798.38 673.87 797.64 722.58 825.95 722.59 826.69"/><polygon class="cls-5" points="794.15 680.25 745.43 651.94 796.62 622.38 845.34 650.7 794.15 680.25"/><path class="cls-4" d="M845.34,650.69l.35,123.37q.09,31.7-16,57.62t-46.81,43.65q-30.42,17.56-45.51,8.59t-15.19-44.66q0-4,.4-12.57V826l45.24-26.11,0,17q0,11.32,3.07,14.24T781,830a24.16,24.16,0,0,0,10.48-11.16q3-6.84,3-21.27l-.33-117.27Z"/><polygon class="cls-6" points="629.83 914.01 581.11 885.69 660.43 839.9 709.15 868.21 629.83 914.01"/><polygon class="cls-6" points="629.63 843.62 580.91 815.31 645.32 778.12 694.03 806.43 629.63 843.62"/><polygon class="cls-2" points="578.76 988.09 530.04 959.78 529.52 776.59 578.24 804.91 578.76 988.09"/><polygon class="cls-5" points="578.24 804.91 529.52 776.59 656.91 703.05 705.62 731.36 578.24 804.91"/><polygon class="cls-4" points="705.62 731.36 705.75 775.26 629.56 819.25 629.63 843.62 694.03 806.43 694.15 848.46 629.75 885.65 629.83 914.01 709.15 868.21 709.28 912.73 578.76 988.09 578.24 804.91 705.62 731.36"/><polygon class="cls-5" points="488.15 991.69 439.43 963.38 509.02 923.2 557.74 951.51 488.15 991.69"/><polygon class="cls-2" points="437.09 1069.88 388.37 1041.57 387.85 858.39 436.57 886.7 437.09 1069.88"/><polygon class="cls-5" points="436.57 886.7 387.85 858.39 439.05 828.83 487.77 857.14 436.57 886.7"/><polygon class="cls-4" points="487.77 857.14 488.15 991.69 557.74 951.51 557.88 1000.15 437.09 1069.88 436.57 886.7 487.77 857.14"/><g class="cls-7"><polygon class="cls-25" points="1551.51 453.93 1551.51 453.93 1558.48 466.07 1558.48 466.07 1551.51 453.93"/><polygon class="cls-26" points="447.52 1087.93 447.52 1087.93 1551.51 453.93 1551.51 453.93 447.52 1087.93"/><polygon class="cls-27" points="1551.51 453.93 1558.48 466.07 454.48 1100.07 447.52 1087.93 1551.51 453.93"/></g></g></svg>