<svg id="Capa_1" data-name="Capa 1" xmlns="http://www.w3.org/2000/svg" viewBox="0 0 654.38 244.89"><defs><style>.cls-1,.cls-3,.cls-31,.cls-34,.cls-37,.cls-4{stroke:#000;}.cls-1,.cls-3,.cls-31,.cls-32,.cls-33,.cls-34,.cls-35,.cls-36,.cls-37,.cls-4,.cls-5{stroke-miterlimit:10;}.cls-1,.cls-3,.cls-4{stroke-width:3px;}.cls-2{font-size:12px;}.cls-18,.cls-2,.cls-24,.cls-6{font-family:Staatliches-Regular, Staatliches;}.cls-3{fill:#900;}.cls-18,.cls-30,.cls-4{fill:#fff;}.cls-31,.cls-32,.cls-34,.cls-35,.cls-37,.cls-5{fill:none;}.cls-5{stroke:#900;}.cls-31,.cls-32,.cls-33,.cls-5{stroke-width:5px;}.cls-6{font-size:18px;letter-spacing:0.17em;}.cls-7{letter-spacing:0.16em;}.cls-8{letter-spacing:0.17em;}.cls-9{letter-spacing:0.12em;}.cls-10{letter-spacing:0.15em;}.cls-11{letter-spacing:0.15em;}.cls-12{letter-spacing:0.16em;}.cls-13{letter-spacing:0.16em;}.cls-14{letter-spacing:0.13em;}.cls-15{letter-spacing:0.15em;}.cls-16{letter-spacing:0.16em;}.cls-17,.cls-33,.cls-36{fill:#820000;}.cls-18{font-size:25.15px;letter-spacing:0.37em;}.cls-19{letter-spacing:0.33em;}.cls-20{letter-spacing:0.36em;}.cls-21{letter-spacing:0.35em;}.cls-22{letter-spacing:0.38em;}.cls-23{letter-spacing:0.37em;}.cls-24{font-size:12.58px;letter-spacing:0.3em;}.cls-25{letter-spacing:0.3em;}.cls-26{letter-spacing:0.3em;}.cls-27{letter-spacing:0.3em;}.cls-28{letter-spacing:0.2em;}.cls-29{letter-spacing:0.31em;}.cls-32,.cls-35{stroke:#820000;}.cls-33,.cls-36{stroke:#fff;}.cls-34,.cls-35{stroke-width:2px;}.cls-37{stroke-width:4px;}.cls-38{letter-spacing:-0.02em;}.cls-39{letter-spacing:-0.02em;}.cls-40{letter-spacing:0.02em;}.cls-41{letter-spacing:0.01em;}.cls-42{letter-spacing:0.01em;}.cls-43{letter-spacing:-0.02em;}.cls-44{letter-spacing:-0.04em;}.cls-45{letter-spacing:0.02em;}.cls-46{letter-spacing:-0.02em;}.cls-47{letter-spacing:0em;}.cls-48{letter-spacing:-0.04em;}.cls-49{letter-spacing:-0.05em;}.cls-50{letter-spacing:-0.01em;}.cls-51{letter-spacing:-0.02em;}.cls-52{letter-spacing:-0.02em;}.cls-53{letter-spacing:-0.01em;}.cls-54{letter-spacing:-0.06em;}.cls-55{letter-spacing:-0.03em;}</style></defs><title>logotipo indicaciones</title><rect class="cls-1" x="434.88" y="42.35" width="56" height="56"/><text class="cls-2" transform="translate(497.67 58.44)">R: 0<tspan x="0" y="14.4">G: 0</tspan><tspan x="0" y="28.8">B: 0</tspan></text><rect class="cls-3" x="545.38" y="42.85" width="56" height="56"/><text class="cls-2" transform="translate(608.17 58.94)">R: 153<tspan x="0" y="14.4">G: 0</tspan><tspan x="0" y="28.8">B: 0</tspan></text><rect class="cls-4" x="325.38" y="43.85" width="56" height="56"/><text class="cls-2" transform="translate(388.17 59.94)">R: 255<tspan x="0" y="14.4">G: 255</tspan><tspan x="0" y="28.8">B: 255</tspan></text><line class="cls-5" x1="321.88" y1="24.35" x2="644.38" y2="25.85"/><text class="cls-6" transform="translate(336.81 16.7)">REPR<tspan class="cls-7" x="45.23" y="0">E</tspan><tspan class="cls-8" x="55.71" y="0">SEN</tspan><tspan class="cls-9" x="88.54" y="0">T</tspan><tspan class="cls-10" x="97.94" y="0">A</tspan><tspan class="cls-8" x="108.29" y="0">CIÓN DE </tspan><tspan class="cls-11" x="182.37" y="0">L</tspan><tspan x="192.29" y="0">OS CO</tspan><tspan class="cls-11" x="242.53" y="0">L</tspan><tspan x="252.44" y="0">OR</tspan><tspan class="cls-12" x="275.39" y="0">E</tspan><tspan x="285.87" y="0">S</tspan></text><line class="cls-5" x1="321.88" y1="138.35" x2="644.38" y2="139.85"/><text class="cls-6" transform="translate(373.24 130.7)">elemen<tspan class="cls-13" x="65.99" y="0">t</tspan><tspan x="76.03" y="0">os de</tspan><tspan class="cls-14" x="125.94" y="0">l</tspan><tspan x="135.39" y="0"> </tspan><tspan class="cls-11" x="141.08" y="0">l</tspan><tspan class="cls-8" x="151" y="0">og</tspan><tspan class="cls-15" x="173.37" y="0">o</tspan><tspan x="184.39" y="0">ti</tspan><tspan class="cls-16" x="201.42" y="0">p</tspan><tspan x="212.63" y="0">o</tspan></text><rect class="cls-17" y="174.31" width="291.55" height="21.52"/><text class="cls-18" transform="translate(2.41 193.24) scale(0.99 1)">al<tspan class="cls-19" x="39.19" y="0">e</tspan><tspan x="58.1" y="0">jand</tspan><tspan class="cls-20" x="140.25" y="0">r</tspan><tspan x="161.48" y="0">o och</tspan><tspan class="cls-21" x="257.68" y="0">o</tspan><tspan class="cls-22" x="277.96" y="0">a</tspan><tspan class="cls-23" x="298.18" y="0"> </tspan></text><path d="M157.27,113.91s1.26,8,0,13.74c0,0,13.42-6.28,24.84,0,0,0-1.26-8.15,0-13.74C182.11,113.91,169.94,105.41,157.27,113.91Z" transform="translate(-23.62 -16.45)"/><text class="cls-24" transform="translate(50.72 209.21) scale(0.99 1)">P<tspan class="cls-25" x="9.54" y="0">r</tspan><tspan x="19.34" y="0">o</tspan><tspan class="cls-26" x="28.89" y="0">d</tspan><tspan class="cls-27" x="38.58" y="0">ucción Mu</tspan><tspan class="cls-28" x="118.57" y="0">l</tspan><tspan class="cls-27" x="126.1" y="0">timedi</tspan><tspan class="cls-29" x="177.17" y="0">a</tspan></text><circle cx="224.2" cy="101.75" r="67.35"/><circle class="cls-30" cx="224.16" cy="101.71" r="59.12"/><circle class="cls-31" cx="224.71" cy="101.84" r="21.4"/><circle class="cls-32" cx="224.71" cy="101.84" r="33.4"/><circle class="cls-17" cx="224.59" cy="101.84" r="8.15"/><circle class="cls-33" cx="231.67" cy="120.71" r="6.28"/><circle class="cls-33" cx="252.03" cy="79.05" r="6.28"/><circle class="cls-33" cx="193.77" cy="84.5" r="6.28"/><circle cx="67.35" cy="101.72" r="67.35"/><circle class="cls-17" cx="67.35" cy="101.68" r="59.12"/><path d="M45.43,118.73S74,88.88,91.38,65.56c0,0,31.94,39.71,44.11,52.1" transform="translate(-23.62 -16.45)"/><path class="cls-30" d="M45.43,119.08s47.06-56.59,90.06-1.15C135.49,117.93,103,170.41,45.43,119.08Z" transform="translate(-23.62 -16.45)"/><ellipse class="cls-17" cx="67.76" cy="102.18" rx="14.6" ry="13.29"/><path d="M428.06,215.66a28,28,0,0,1,0,8.44s8.24-3.86,15.24,0c0,0-.77-5,0-8.44C443.3,215.66,435.84,210.44,428.06,215.66Z" transform="translate(-23.62 -16.45)"/><circle cx="460.03" cy="201.84" r="41.35"/><circle class="cls-30" cx="460.01" cy="201.82" r="36.3"/><circle class="cls-34" cx="460.34" cy="201.9" r="13.14"/><circle class="cls-35" cx="460.34" cy="201.9" r="20.51"/><circle class="cls-17" cx="460.27" cy="201.9" r="5"/><circle class="cls-36" cx="464.61" cy="213.49" r="3.85"/><circle class="cls-36" cx="477.11" cy="187.91" r="3.85"/><circle class="cls-36" cx="441.34" cy="191.25" r="3.85"/><circle cx="363.73" cy="201.83" r="41.35"/><circle class="cls-17" cx="363.73" cy="201.8" r="36.3"/><path d="M359.39,218.62S377,200.29,387.6,186c0,0,19.61,24.38,27.08,32" transform="translate(-23.62 -16.45)"/><path class="cls-30" d="M359.39,218.83s28.89-34.74,55.29-.7C414.68,218.13,394.76,250.34,359.39,218.83Z" transform="translate(-23.62 -16.45)"/><ellipse class="cls-17" cx="363.98" cy="202.11" rx="8.97" ry="8.16"/><line class="cls-37" x1="511.38" y1="158.85" x2="511.38" y2="244.85"/><text class="cls-2" transform="translate(518.38 169.22)">1. Ojo rel<tspan class="cls-38" x="40.28" y="0">a</tspan><tspan x="45.15" y="0">ciona</tspan><tspan class="cls-39" x="69.28" y="0">d</tspan><tspan x="74.66" y="0">o </tspan><tspan class="cls-40" x="81.92" y="0"> </tspan><tspan class="cls-41" x="83.97" y="0">a</tspan><tspan x="89.22" y="0" xml:space="preserve"> l</tspan><tspan class="cls-42" x="95.76" y="0">a</tspan><tspan x="101" y="0"> </tspan><tspan x="0" y="14.4">pintur</tspan><tspan class="cls-41" x="29.77" y="14.4">a</tspan><tspan x="35.02" y="14.4" xml:space="preserve"> Sen</tspan><tspan class="cls-43" x="52.63" y="14.4">e</tspan><tspan x="57.48" y="14.4">cio de</tspan><tspan class="cls-44" x="83.4" y="14.4">l</tspan><tspan class="cls-45" x="87.68" y="14.4"> </tspan><tspan x="89.73" y="14.4">a</tspan><tspan class="cls-46" x="94.86" y="14.4">r</tspan><tspan x="100.4" y="14.4">ti</tspan><tspan class="cls-47" x="107.72" y="14.4">s</tspan><tspan class="cls-48" x="112.89" y="14.4">t</tspan><tspan class="cls-41" x="117.26" y="14.4">a</tspan><tspan x="122.51" y="14.4"> </tspan><tspan class="cls-49" x="0" y="28.8">P</tspan><tspan class="cls-50" x="4.88" y="28.8">a</tspan><tspan x="9.85" y="28.8">u</tspan><tspan class="cls-44" x="15.37" y="28.8">l</tspan><tspan x="19.66" y="28.8" xml:space="preserve"> Klee.</tspan><tspan x="0" y="43.2">2. Un icono rel</tspan><tspan class="cls-38" x="64.2" y="43.2">a</tspan><tspan x="69.07" y="43.2">ciona</tspan><tspan class="cls-39" x="93.2" y="43.2">d</tspan><tspan x="98.58" y="43.2">o</tspan><tspan class="cls-40" x="104.06" y="43.2"> </tspan><tspan class="cls-41" x="106.11" y="43.2">a</tspan><tspan x="111.36" y="43.2" xml:space="preserve"> l</tspan><tspan class="cls-42" x="117.9" y="43.2">a</tspan><tspan x="123.14" y="43.2"> </tspan><tspan class="cls-51" x="0" y="57.6">g</tspan><tspan x="5.18" y="57.6">al</tspan><tspan class="cls-52" x="15.07" y="57.6">a</tspan><tspan x="19.96" y="57.6">xia.</tspan><tspan x="0" y="72">3. E</tspan><tspan class="cls-44" x="14.53" y="72">l</tspan><tspan x="18.82" y="72" xml:space="preserve"> con</tspan><tspan class="cls-53" x="37.08" y="72">t</tspan><tspan x="41.76" y="72">orno de un</tspan><tspan class="cls-52" x="89.42" y="72">a</tspan><tspan x="94.31" y="72">s </tspan><tspan class="cls-51" x="101.31" y="72">g</tspan><tspan x="106.5" y="72">a</tspan><tspan class="cls-54" x="111.62" y="72">f</tspan><tspan class="cls-46" x="115.97" y="72">a</tspan><tspan class="cls-55" x="120.85" y="72">s</tspan><tspan x="125.72" y="72">.</tspan></text></svg>