<svg id="Capa_1" data-name="Capa 1" xmlns="http://www.w3.org/2000/svg" viewBox="0 0 575.56 223"><defs><style>.cls-1,.cls-10,.cls-13,.cls-2,.cls-3,.cls-7{stroke:#000;}.cls-1,.cls-10,.cls-11,.cls-12,.cls-13,.cls-2,.cls-3,.cls-4,.cls-7,.cls-8,.cls-9{stroke-miterlimit:10;}.cls-1,.cls-2,.cls-3{stroke-width:3px;}.cls-2{fill:#900;}.cls-3,.cls-6{fill:#fff;}.cls-10,.cls-11,.cls-13,.cls-4,.cls-7,.cls-8{fill:none;}.cls-4{stroke:#900;}.cls-4,.cls-7,.cls-8,.cls-9{stroke-width:5px;}.cls-12,.cls-5,.cls-9{fill:#820000;}.cls-11,.cls-8{stroke:#820000;}.cls-12,.cls-9{stroke:#fff;}.cls-10,.cls-11{stroke-width:2px;}.cls-13{stroke-width:4px;}</style></defs><title>logotipo indicaciones</title><rect class="cls-1" x="387.44" y="38.57" width="49.89" height="51"/><path d="M456,61.87s0,0,0-.06l0-7.5s0-.05,0-.05h2.16a2,2,0,0,1,1.06.29,2.16,2.16,0,0,1,.78.78,2.12,2.12,0,0,1,.29,1.1,2,2,0,0,1-.12.72,2.17,2.17,0,0,1-.28.55,1.68,1.68,0,0,1-.29.33,2.24,2.24,0,0,1,.58,1.54v2.24s0,.06-.05.06H458.9s0,0,0,0V59.57a.93.93,0,0,0-.28-.68.88.88,0,0,0-.66-.29h-.71v3.21s0,.06,0,.06Zm1.26-4.58h.92a.81.81,0,0,0,.59-.25.82.82,0,0,0,.25-.61.87.87,0,0,0-.84-.86h-.92Z" transform="translate(-12.1 -8.64)"/><path d="M461.1,58.62s0,0,0,0V57.35s0-.05,0-.05h1.21s0,0,0,.05v1.23s0,0,0,0Zm0,3.25a0,0,0,0,1,0,0V60.59s0,0,0,0h1.21s0,0,0,0v1.24a0,0,0,0,1,0,0Z" transform="translate(-12.1 -8.64)"/><path d="M467,62a2.35,2.35,0,0,1-1.2-.3,2.17,2.17,0,0,1-.82-.8,2.09,2.09,0,0,1-.3-1.1V56.32a2.09,2.09,0,0,1,.3-1.1,2.13,2.13,0,0,1,.82-.78,2.53,2.53,0,0,1,2.39,0,2.25,2.25,0,0,1,.81.78,2.18,2.18,0,0,1,.29,1.1v3.46a2.18,2.18,0,0,1-.29,1.1,2.3,2.3,0,0,1-.81.8A2.39,2.39,0,0,1,467,62Zm1-2.2V56.32a.78.78,0,0,0-.28-.63,1.23,1.23,0,0,0-1.46,0,.78.78,0,0,0-.28.63v3.46a.77.77,0,0,0,.28.64,1.07,1.07,0,0,0,.73.24,1.12,1.12,0,0,0,.74-.24A.8.8,0,0,0,468,59.78Z" transform="translate(-12.1 -8.64)"/><path d="M457.86,75.09a1.93,1.93,0,0,1-1.05-.29,2.27,2.27,0,0,1-.75-.79,2.21,2.21,0,0,1-.28-1.11V69.43a2.19,2.19,0,0,1,.28-1.09,2.21,2.21,0,0,1,.76-.79,2.06,2.06,0,0,1,2.11,0,2.17,2.17,0,0,1,1,1.88v.51s0,0-.06,0h-1.19a0,0,0,0,1,0,0v-.42a1,1,0,0,0-.23-.69.71.71,0,0,0-.57-.27.75.75,0,0,0-.55.26.89.89,0,0,0-.24.61V72.9a.85.85,0,0,0,.24.61.69.69,0,0,0,.55.26.72.72,0,0,0,.57-.25.87.87,0,0,0,.23-.62v-.54h-.74s-.06,0-.06,0V71.08s0,0,.06,0h2a0,0,0,0,1,0,0V72.9a2.21,2.21,0,0,1-.29,1.11,2.19,2.19,0,0,1-.75.79A1.92,1.92,0,0,1,457.86,75.09Z" transform="translate(-12.1 -8.64)"/><path d="M460.76,71.74s0,0,0,0V70.46s0,0,0,0H462s0,0,0,0v1.23s0,0,0,0Zm0,3.24s0,0,0,0V73.71s0,0,0,0H462s0,0,0,0v1.23s0,0,0,0Z" transform="translate(-12.1 -8.64)"/><path d="M466.66,75.09a2.41,2.41,0,0,1-1.21-.3,2.16,2.16,0,0,1-1.11-1.89V69.43a2.05,2.05,0,0,1,.3-1.09,2.19,2.19,0,0,1,.81-.79,2.48,2.48,0,0,1,1.2-.29,2.42,2.42,0,0,1,1.2.29,2.27,2.27,0,0,1,.81.79,2.14,2.14,0,0,1,.29,1.09V72.9a2.11,2.11,0,0,1-1.11,1.89A2.32,2.32,0,0,1,466.66,75.09Zm1-2.19V69.43a.8.8,0,0,0-.28-.62,1.25,1.25,0,0,0-1.47,0,.8.8,0,0,0-.27.62V72.9a.81.81,0,0,0,.27.64,1.29,1.29,0,0,0,1.47,0A.79.79,0,0,0,467.68,72.9Z" transform="translate(-12.1 -8.64)"/><path d="M456,88.1s0,0,0-.06l0-7.5s0-.05,0-.05h2a2,2,0,0,1,1.09.3,2.16,2.16,0,0,1,.76.8,2.06,2.06,0,0,1,.28,1.07,1.86,1.86,0,0,1-.21.87,2.27,2.27,0,0,1-.49.66,2.44,2.44,0,0,1,.48.73,2.36,2.36,0,0,1,.17.87,2.28,2.28,0,0,1-.3,1.16,2.33,2.33,0,0,1-.81.84,2.09,2.09,0,0,1-1.13.31Zm1.25-1.33h.66a.92.92,0,0,0,.67-.29,1,1,0,0,0,.27-.69,1,1,0,0,0-.94-1h-.65Zm0-3.26H458a.78.78,0,0,0,.61-.27.89.89,0,0,0,.23-.58.82.82,0,0,0-.25-.61.79.79,0,0,0-.59-.26h-.81Z" transform="translate(-12.1 -8.64)"/><path d="M460.91,84.85s0,0,0,0V83.57a0,0,0,0,1,0,0h1.21a0,0,0,0,1,0,0v1.24s0,0,0,0Zm0,3.25a0,0,0,0,1,0,0V86.82s0,0,0,0h1.21s0,0,0,0v1.24a0,0,0,0,1,0,0Z" transform="translate(-12.1 -8.64)"/><path d="M466.81,88.21a2.39,2.39,0,0,1-1.21-.3,2.25,2.25,0,0,1-.82-.8,2.18,2.18,0,0,1-.29-1.1V82.55a2.08,2.08,0,0,1,1.11-1.88,2.38,2.38,0,0,1,1.2-.3,2.32,2.32,0,0,1,1.2.3,2.25,2.25,0,0,1,.81.78,2.18,2.18,0,0,1,.29,1.1V86a2.18,2.18,0,0,1-.29,1.1,2.25,2.25,0,0,1-.82.8A2.32,2.32,0,0,1,466.81,88.21Zm1-2.2V82.55a.81.81,0,0,0-.28-.63,1.25,1.25,0,0,0-1.47,0,.81.81,0,0,0-.28.63V86a.82.82,0,0,0,.28.64,1.25,1.25,0,0,0,1.47,0A.79.79,0,0,0,467.83,86Z" transform="translate(-12.1 -8.64)"/><rect class="cls-2" x="485.89" y="39.03" width="49.89" height="51"/><path d="M554.4,62.32s0,0,0,0l0-7.51s0,0,0,0h2.16a2,2,0,0,1,1.06.29,2.3,2.3,0,0,1,.78.77,2.14,2.14,0,0,1,.28,1.1,2.11,2.11,0,0,1-.11.73,2.36,2.36,0,0,1-.28.55,2,2,0,0,1-.29.33A2.24,2.24,0,0,1,558.6,60v2.24s0,0-.06,0h-1.2s-.05,0-.05,0V60a1,1,0,0,0-.27-.68.85.85,0,0,0-.67-.29h-.7v3.21s0,0,0,0Zm1.26-4.57h.92a.8.8,0,0,0,.58-.26.78.78,0,0,0,.26-.61.82.82,0,0,0-.25-.6.79.79,0,0,0-.59-.25h-.92Z" transform="translate(-12.1 -8.64)"/><path d="M559.55,59.08a0,0,0,0,1,0,0V57.8s0,0,0,0h1.21s0,0,0,0V59a0,0,0,0,1,0,0Zm0,3.24s0,0,0,0V61.05s0,0,0,0h1.21s0,0,0,0v1.23s0,0,0,0Z" transform="translate(-12.1 -8.64)"/><path d="M563.31,62.32s0,0,0,0V54.76s0,0,0,0h1.2s0,0,0,0v7.51s0,0,0,0Z" transform="translate(-12.1 -8.64)"/><path d="M567.42,62.43a1.93,1.93,0,0,1-1-.29,2.3,2.3,0,0,1-.77-.78,2.09,2.09,0,0,1-.29-1.06V60a0,0,0,0,1,.05,0h1.21s0,0,0,0v.25a.88.88,0,0,0,.24.62.75.75,0,0,0,.57.25.7.7,0,0,0,.56-.26.89.89,0,0,0,.23-.61v-.75a.78.78,0,0,0-.24-.57.84.84,0,0,0-.6-.22.94.94,0,0,0-.76.37l0,0L565.45,59s-.05,0-.05,0l.12-3,.07-1.19s0,0,0,0h3.59s0,0,0,0V56s0,.06,0,.06h-2.5l-.05,1.51a1.13,1.13,0,0,1,.34-.11,1.72,1.72,0,0,1,.37,0,2.1,2.1,0,0,1,1.07.29,2.27,2.27,0,0,1,.77.77,2,2,0,0,1,.29,1.06v.75a2.22,2.22,0,0,1-1,1.9A1.94,1.94,0,0,1,567.42,62.43Z" transform="translate(-12.1 -8.64)"/><path d="M572,62.44a1.91,1.91,0,0,1-1-.3,2.22,2.22,0,0,1-1-1.9v-.49s0-.06,0-.06h1.2s0,0,0,.06v.49a.93.93,0,0,0,.23.62.69.69,0,0,0,.56.25.71.71,0,0,0,.59-.27.93.93,0,0,0,.21-.6v-.3a1,1,0,0,0-.2-.61.65.65,0,0,0-.53-.27h-.42s0,0,0-.06V57.78s0-.05,0-.05H572a.7.7,0,0,0,.51-.22.85.85,0,0,0,.22-.61v-.15a.8.8,0,0,0-.23-.59.76.76,0,0,0-1.13,0,.84.84,0,0,0-.23.59v.53s0,0,0,0h-1.2s0,0,0,0V56.7a2,2,0,0,1,.29-1.07,2.13,2.13,0,0,1,.77-.75,1.93,1.93,0,0,1,1-.28,1.89,1.89,0,0,1,1,.29,2.16,2.16,0,0,1,.76.77,2.12,2.12,0,0,1,.28,1.06v.17a2.08,2.08,0,0,1-.16.83,2.54,2.54,0,0,1-.43.67,3,3,0,0,1,.44.72,2.15,2.15,0,0,1,.16.8v.33a2.19,2.19,0,0,1-.29,1.11,2.09,2.09,0,0,1-.76.8A1.89,1.89,0,0,1,572,62.44Z" transform="translate(-12.1 -8.64)"/><path d="M556.31,75.55a1.89,1.89,0,0,1-1-.3,2.24,2.24,0,0,1-1-1.9V69.89a2.22,2.22,0,0,1,1-1.88,1.89,1.89,0,0,1,1-.3,2,2,0,0,1,1.06.29,2.15,2.15,0,0,1,1,1.89v.5s0,0-.06,0h-1.2a0,0,0,0,1,0,0V70a1,1,0,0,0-.23-.69.69.69,0,0,0-.57-.28.71.71,0,0,0-.55.27.85.85,0,0,0-.24.61v3.46a.91.91,0,0,0,.23.62.75.75,0,0,0,1.13,0,.92.92,0,0,0,.23-.63v-.53h-.75s-.05,0-.05-.06V71.54s0-.06.05-.06h2s0,0,0,.06v1.81a2.24,2.24,0,0,1-1,1.9A2,2,0,0,1,556.31,75.55Z" transform="translate(-12.1 -8.64)"/><path d="M559.21,72.19s-.05,0-.05,0V70.92a0,0,0,0,1,.05,0h1.2a0,0,0,0,1,.05,0v1.23s0,0-.05,0Zm0,3.25a0,0,0,0,1-.05,0V74.16s0,0,.05,0h1.2s.05,0,.05,0V75.4a0,0,0,0,1-.05,0Z" transform="translate(-12.1 -8.64)"/><path d="M565.11,75.55a2.39,2.39,0,0,1-1.21-.3,2.25,2.25,0,0,1-.82-.8,2.18,2.18,0,0,1-.29-1.1V69.89A2.08,2.08,0,0,1,563.91,68a2.55,2.55,0,0,1,2.4,0,2.14,2.14,0,0,1,.8.78,2.09,2.09,0,0,1,.3,1.1v3.46a2.09,2.09,0,0,1-.3,1.1,2.15,2.15,0,0,1-.81.8A2.35,2.35,0,0,1,565.11,75.55Zm1-2.2V69.89a.82.82,0,0,0-.27-.63,1.25,1.25,0,0,0-1.47,0,.83.83,0,0,0-.28.63v3.46a.8.8,0,0,0,.28.64,1.25,1.25,0,0,0,1.47,0A.77.77,0,0,0,566.12,73.35Z" transform="translate(-12.1 -8.64)"/><path d="M554.4,88.55s0,0,0,0l0-7.51s0,0,0,0h2.05a2,2,0,0,1,1.09.3,2.18,2.18,0,0,1,1,1.86,1.87,1.87,0,0,1-.21.88,2.24,2.24,0,0,1-.5.65,2.28,2.28,0,0,1,.65,1.61,2.31,2.31,0,0,1-.3,1.16,2.2,2.2,0,0,1-.8.83,2.11,2.11,0,0,1-1.13.31Zm1.25-1.33h.66a.88.88,0,0,0,.66-.29,1,1,0,0,0,0-1.36.87.87,0,0,0-.66-.28h-.65Zm0-3.26h.81a.73.73,0,0,0,.6-.26.86.86,0,0,0,.23-.59.85.85,0,0,0-.24-.6.77.77,0,0,0-.59-.26h-.81Z" transform="translate(-12.1 -8.64)"/><path d="M559.36,85.31a0,0,0,0,1-.05,0V84s0,0,.05,0h1.2s.05,0,.05,0v1.23a0,0,0,0,1-.05,0Zm0,3.24s-.05,0-.05,0V87.28a0,0,0,0,1,.05,0h1.2a0,0,0,0,1,.05,0v1.23s0,0-.05,0Z" transform="translate(-12.1 -8.64)"/><path d="M565.26,88.66a2.39,2.39,0,0,1-1.21-.3,2.11,2.11,0,0,1-1.11-1.89V83a2.14,2.14,0,0,1,.29-1.09,2.22,2.22,0,0,1,.82-.79,2.48,2.48,0,0,1,1.2-.29,2.41,2.41,0,0,1,1.19.29,2.12,2.12,0,0,1,.81.79,2.05,2.05,0,0,1,.3,1.09v3.47a2.16,2.16,0,0,1-1.11,1.89A2.38,2.38,0,0,1,565.26,88.66Zm1-2.19V83a.77.77,0,0,0-.28-.62,1,1,0,0,0-.72-.24,1.1,1.1,0,0,0-.74.24.77.77,0,0,0-.28.62v3.47a.79.79,0,0,0,.28.64,1.29,1.29,0,0,0,1.47,0A.79.79,0,0,0,566.27,86.47Z" transform="translate(-12.1 -8.64)"/><rect class="cls-3" x="289.89" y="39.94" width="49.89" height="51"/><path d="M358.39,63.24s0,0,0-.06l0-7.51a0,0,0,0,1,0,0h2.16a2.1,2.1,0,0,1,1.07.29,2.18,2.18,0,0,1,.77.77,2.08,2.08,0,0,1,.29,1.1,2.11,2.11,0,0,1-.12.73,2.35,2.35,0,0,1-.27.55,2.09,2.09,0,0,1-.29.33,2.28,2.28,0,0,1,.57,1.54l0,2.24a.05.05,0,0,1-.06.06h-1.21a0,0,0,0,1,0,0V60.94a1,1,0,0,0-.27-.68.87.87,0,0,0-.67-.29h-.7l0,3.21s0,.06,0,.06Zm1.27-4.58h.91a.86.86,0,0,0,0-1.72h-.91Z" transform="translate(-12.1 -8.64)"/><path d="M363.55,60s-.05,0-.05,0V58.71s0,0,.05,0h1.2s.05,0,.05,0V60s0,0-.05,0Zm0,3.25a0,0,0,0,1-.05-.05V62a0,0,0,0,1,.05-.05h1.2a0,0,0,0,1,.05.05v1.23a0,0,0,0,1-.05.05Z" transform="translate(-12.1 -8.64)"/><path d="M367.11,63.24a.05.05,0,0,1-.06-.06V62s0,0,0-.05l2.65-3.7a1.06,1.06,0,0,0,.12-.26,1,1,0,0,0,.05-.28.89.89,0,0,0-.23-.58.71.71,0,0,0-.57-.27.74.74,0,0,0-.56.26.94.94,0,0,0-.23.65v.53s0,.06-.05.06h-1.2s0,0,0-.06v-.53a2.25,2.25,0,0,1,.29-1.12,2.46,2.46,0,0,1,.77-.8,2,2,0,0,1,1-.29,1.89,1.89,0,0,1,1.05.3,2.21,2.21,0,0,1,.76.79,2.08,2.08,0,0,1,.28,1.06,2.33,2.33,0,0,1-.12.73,2.29,2.29,0,0,1-.34.66l-2,2.85h2.4a0,0,0,0,1,.05.05v1.23s0,.06-.05.06Z" transform="translate(-12.1 -8.64)"/><path d="M373.86,63.35a1.93,1.93,0,0,1-1-.3,2.21,2.21,0,0,1-.77-.78,2,2,0,0,1-.29-1.06v-.32s0,0,.05,0H373s0,0,0,0v.25a.86.86,0,0,0,.24.62.72.72,0,0,0,.56.25.7.7,0,0,0,.56-.26.84.84,0,0,0,.23-.61v-.75a.74.74,0,0,0-.24-.56.78.78,0,0,0-.59-.23.92.92,0,0,0-.76.37l0,0-1.14-.09s-.06,0-.06,0l.13-3,.06-1.19s0,0,.05,0h3.59s0,0,0,0v1.19s0,.06,0,.06h-2.5l-.06,1.51a1.23,1.23,0,0,1,.34-.11,1.89,1.89,0,0,1,.38,0,2,2,0,0,1,1.06.29,2.21,2.21,0,0,1,.78.77,2.06,2.06,0,0,1,.29,1.06v.75a2.28,2.28,0,0,1-.28,1.1,2.25,2.25,0,0,1-.76.8A2,2,0,0,1,373.86,63.35Z" transform="translate(-12.1 -8.64)"/><path d="M378.49,63.35a1.94,1.94,0,0,1-1.05-.3,2.39,2.39,0,0,1-.77-.78,2.08,2.08,0,0,1-.28-1.06v-.32s0,0,.05,0h1.21s0,0,0,0v.25a.86.86,0,0,0,.24.62.72.72,0,0,0,.56.25.7.7,0,0,0,.56-.26.84.84,0,0,0,.23-.61v-.75a.74.74,0,0,0-.24-.56.8.8,0,0,0-.59-.23.92.92,0,0,0-.76.37l0,0-1.14-.09s-.06,0-.06,0l.13-3,.06-1.19s0,0,0,0h3.59s0,0,0,0v1.19s0,.06,0,.06h-2.5l-.06,1.51a1.23,1.23,0,0,1,.34-.11,1.89,1.89,0,0,1,.38,0,2,2,0,0,1,1.06.29,2.21,2.21,0,0,1,.78.77,2.06,2.06,0,0,1,.29,1.06v.75a2.18,2.18,0,0,1-.29,1.1,2.14,2.14,0,0,1-.75.8A2,2,0,0,1,378.49,63.35Z" transform="translate(-12.1 -8.64)"/><path d="M360.31,76.46a1.89,1.89,0,0,1-1.05-.3,2.11,2.11,0,0,1-.75-.79,2.19,2.19,0,0,1-.29-1.11V70.8a2.24,2.24,0,0,1,1-1.88,1.94,1.94,0,0,1,1.05-.3,2,2,0,0,1,1.06.29,2.15,2.15,0,0,1,.75.78,2.18,2.18,0,0,1,.28,1.11v.5s0,0,0,0h-1.2s0,0,0,0v-.41a1,1,0,0,0-.23-.69.73.73,0,0,0-.57-.28.71.71,0,0,0-.55.27.87.87,0,0,0-.24.61v3.46a.87.87,0,0,0,.23.62.74.74,0,0,0,.56.26.77.77,0,0,0,.57-.25.92.92,0,0,0,.23-.63v-.53h-.75s-.05,0-.05-.06V72.45s0-.06.05-.06h2s0,0,0,.06v1.81a2.2,2.2,0,0,1-1,1.9A2,2,0,0,1,360.31,76.46Z" transform="translate(-12.1 -8.64)"/><path d="M363.2,73.1a0,0,0,0,1,0,0V71.83a0,0,0,0,1,0,0h1.21a0,0,0,0,1,0,0v1.23s0,0,0,0Zm0,3.25a0,0,0,0,1,0,0V75.07a0,0,0,0,1,0,0h1.21s0,0,0,0v1.24s0,0,0,0Z" transform="translate(-12.1 -8.64)"/><path d="M366.76,76.35a0,0,0,0,1-.05,0V75.06a.08.08,0,0,1,0,0l2.64-3.71a1,1,0,0,0,.13-.25,1,1,0,0,0,0-.28.9.9,0,0,0-.22-.59.71.71,0,0,0-.57-.27.74.74,0,0,0-.56.26,1,1,0,0,0-.23.65v.54a0,0,0,0,1,0,0h-1.2s0,0,0,0v-.54a2.19,2.19,0,0,1,.29-1.11,2.27,2.27,0,0,1,.77-.8,1.94,1.94,0,0,1,2.07,0,2.22,2.22,0,0,1,.75.8,2.06,2.06,0,0,1,.29,1.06,2.37,2.37,0,0,1-.12.73,2.35,2.35,0,0,1-.34.65l-2,2.86h2.4s.05,0,.05,0V76.3a0,0,0,0,1-.05,0Z" transform="translate(-12.1 -8.64)"/><path d="M373.52,76.46a1.94,1.94,0,0,1-1-.3,2.21,2.21,0,0,1-.77-.78,2,2,0,0,1-.29-1V74s0,0,.06,0h1.21a0,0,0,0,1,0,0v.25a.88.88,0,0,0,.23.62.76.76,0,0,0,.57.26.73.73,0,0,0,.56-.26.87.87,0,0,0,.23-.62v-.74a.75.75,0,0,0-.24-.57.84.84,0,0,0-.59-.23,1,1,0,0,0-.76.37l0,0L371.55,73s-.05,0-.05-.06l.13-3,.06-1.19a0,0,0,0,1,.05-.05h3.59s0,0,0,.05V70s0,0,0,0h-2.5l-.06,1.51a1.7,1.7,0,0,1,.34-.11,1.76,1.76,0,0,1,.38,0,2.06,2.06,0,0,1,1.06.29,2.13,2.13,0,0,1,.78.77,2,2,0,0,1,.29,1.06v.74a2.26,2.26,0,0,1-1.05,1.91A1.89,1.89,0,0,1,373.52,76.46Z" transform="translate(-12.1 -8.64)"/><path d="M378.15,76.46a1.94,1.94,0,0,1-1-.3,2.21,2.21,0,0,1-.77-.78,2,2,0,0,1-.29-1V74s0,0,.06,0h1.21a0,0,0,0,1,0,0v.25a.88.88,0,0,0,.23.62.76.76,0,0,0,.57.26.73.73,0,0,0,.56-.26.91.91,0,0,0,.23-.62v-.74a.75.75,0,0,0-.24-.57.84.84,0,0,0-.59-.23,1,1,0,0,0-.76.37l0,0L376.18,73s-.05,0-.05-.06l.13-3,.06-1.19a0,0,0,0,1,.05-.05H380s0,0,0,.05V70s0,0,0,0h-2.5l-.06,1.51a1.7,1.7,0,0,1,.34-.11,1.76,1.76,0,0,1,.38,0,2.06,2.06,0,0,1,1.06.29,2.13,2.13,0,0,1,.78.77,2,2,0,0,1,.29,1.06v.74a2.26,2.26,0,0,1-1.05,1.91A1.92,1.92,0,0,1,378.15,76.46Z" transform="translate(-12.1 -8.64)"/><path d="M358.39,89.47s0,0,0-.06l0-7.51a0,0,0,0,1,0,0h2.06a2,2,0,0,1,1.09.3,2.14,2.14,0,0,1,1,1.86,1.87,1.87,0,0,1-.2.88,2.24,2.24,0,0,1-.5.65,2.21,2.21,0,0,1,.48.73,2.38,2.38,0,0,1,.17.88,2.31,2.31,0,0,1-.3,1.16,2.28,2.28,0,0,1-.8.83,2.12,2.12,0,0,1-1.13.32Zm1.25-1.34h.67a.87.87,0,0,0,.66-.29,1,1,0,0,0,0-1.36.9.9,0,0,0-.66-.28h-.65Zm0-3.26h.81a.73.73,0,0,0,.6-.26.91.91,0,0,0,.23-.59.82.82,0,0,0-.25-.6.73.73,0,0,0-.58-.26h-.81Z" transform="translate(-12.1 -8.64)"/><path d="M363.35,86.22a0,0,0,0,1,0,0V84.94s0,0,0,0h1.21s0,0,0,0v1.24a0,0,0,0,1,0,0Zm0,3.25s0,0,0,0V88.19s0,0,0,0h1.21s0,0,0,0v1.23s0,0,0,0Z" transform="translate(-12.1 -8.64)"/><path d="M366.91,89.47s-.05,0-.05-.06V88.18s0,0,0-.05l2.64-3.7a1.12,1.12,0,0,0,.17-.54.88.88,0,0,0-.22-.58.71.71,0,0,0-.57-.27.7.7,0,0,0-.56.26.94.94,0,0,0-.23.65v.53s0,.06-.05.06h-1.2s0,0,0-.06V84a2.15,2.15,0,0,1,.29-1.12,2.36,2.36,0,0,1,.77-.8,2,2,0,0,1,1-.29A1.89,1.89,0,0,1,370,82a2.27,2.27,0,0,1,.75.79,2.1,2.1,0,0,1,.16,1.79,2.27,2.27,0,0,1-.33.66l-2,2.85h2.4s0,0,0,.05v1.23s0,.06,0,.06Z" transform="translate(-12.1 -8.64)"/><path d="M373.67,89.57a1.93,1.93,0,0,1-1.05-.29,2.3,2.3,0,0,1-.77-.78,2.09,2.09,0,0,1-.29-1.06v-.32s0-.05.06-.05h1.2a0,0,0,0,1,.05.05v.25a.91.91,0,0,0,.23.62.75.75,0,0,0,.57.25.7.7,0,0,0,.56-.26.89.89,0,0,0,.23-.61v-.75a.74.74,0,0,0-.24-.56.8.8,0,0,0-.59-.23.92.92,0,0,0-.76.37l0,0-1.15-.09a0,0,0,0,1-.05,0l.13-3,.06-1.19a0,0,0,0,1,0,0h3.6a0,0,0,0,1,0,0v1.19s0,.06,0,.06H373l-.05,1.51a1.23,1.23,0,0,1,.34-.11,1.81,1.81,0,0,1,.38,0,2.06,2.06,0,0,1,1.06.29,2.3,2.3,0,0,1,.78.77,2.06,2.06,0,0,1,.29,1.06v.75a2.26,2.26,0,0,1-1,1.9A1.92,1.92,0,0,1,373.67,89.57Z" transform="translate(-12.1 -8.64)"/><path d="M378.3,89.57a1.93,1.93,0,0,1-1.05-.29,2.3,2.3,0,0,1-.77-.78,2.09,2.09,0,0,1-.29-1.06v-.32s0-.05.06-.05h1.2a0,0,0,0,1,.05.05v.25a.91.91,0,0,0,.23.62.75.75,0,0,0,.57.25.7.7,0,0,0,.56-.26.89.89,0,0,0,.23-.61v-.75a.74.74,0,0,0-.24-.56.8.8,0,0,0-.59-.23.92.92,0,0,0-.76.37l0,0-1.15-.09a0,0,0,0,1-.05,0l.13-3,.06-1.19a0,0,0,0,1,0,0h3.6a0,0,0,0,1,0,0v1.19s0,.06,0,.06H377.6l-.05,1.51a1.23,1.23,0,0,1,.34-.11,1.81,1.81,0,0,1,.38,0,2.06,2.06,0,0,1,1.06.29,2.3,2.3,0,0,1,.78.77,2.06,2.06,0,0,1,.29,1.06v.75a2.26,2.26,0,0,1-1,1.9A1.92,1.92,0,0,1,378.3,89.57Z" transform="translate(-12.1 -8.64)"/><line class="cls-4" x1="286.77" y1="22.18" x2="574.09" y2="23.55"/><path d="M312.87,23.86a.07.07,0,0,1-.07-.08l0-11.27a.05.05,0,0,1,.06-.06h3.24a3.07,3.07,0,0,1,1.6.43,3.33,3.33,0,0,1,1.16,1.17,3.11,3.11,0,0,1,.43,1.64,3.08,3.08,0,0,1-.18,1.09,3,3,0,0,1-.41.82,2.58,2.58,0,0,1-.44.5,3.4,3.4,0,0,1,.87,2.32l0,3.36a.07.07,0,0,1-.08.08h-1.82s-.06,0-.06-.05V20.42a1.46,1.46,0,0,0-.41-1,1.32,1.32,0,0,0-1-.43h-1.06v4.82a.07.07,0,0,1-.07.08ZM314.76,17h1.38a1.29,1.29,0,0,0,0-2.57h-1.38Z" transform="translate(-12.1 -8.64)"/><path d="M323.29,23.86s-.06,0-.06-.08V12.51s0-.06.07-.06h5.15s.06,0,.06.08v1.84a.05.05,0,0,1-.06.06h-3.29V17h3.29a.05.05,0,0,1,.06.06l0,1.86s0,.06-.07.06h-3.3v2.87h3.3s.07,0,.07.08v1.87c0,.05,0,.07-.07.07Z" transform="translate(-12.1 -8.64)"/><path d="M332.74,23.86c-.06,0-.08,0-.08-.08l0-11.27a.05.05,0,0,1,.06-.06h3.08a3,3,0,0,1,2.34.92,3.5,3.5,0,0,1,.85,2.49,4.23,4.23,0,0,1-.45,2,3.35,3.35,0,0,1-1.17,1.32,2.91,2.91,0,0,1-1.57.46h-1.22v4.13s0,.08-.08.08Zm1.87-6.2h1.22a1.11,1.11,0,0,0,.89-.5,2.11,2.11,0,0,0,.38-1.3,1.56,1.56,0,0,0-.34-1,1.14,1.14,0,0,0-.93-.41l-1.22,0Z" transform="translate(-12.1 -8.64)"/><path d="M342.74,23.86s-.06,0-.06-.08l0-11.27s0-.06.07-.06H346a3.06,3.06,0,0,1,1.59.43,3.18,3.18,0,0,1,1.16,1.17,3.12,3.12,0,0,1,.44,1.64,3.08,3.08,0,0,1-.18,1.09,3.3,3.3,0,0,1-.42.82,2.58,2.58,0,0,1-.43.5,3.4,3.4,0,0,1,.87,2.32v3.36s0,.08-.08.08h-1.81s-.06,0-.06-.05V20.42a1.46,1.46,0,0,0-.41-1,1.34,1.34,0,0,0-1-.43h-1.05l0,4.82s0,.08-.06.08Zm1.9-6.87H346a1.24,1.24,0,0,0,.88-.38,1.26,1.26,0,0,0,.38-.92A1.26,1.26,0,0,0,346,14.42h-1.38Z" transform="translate(-12.1 -8.64)"/><path d="M353.17,23.86c-.05,0-.07,0-.07-.08l0-11.27a.05.05,0,0,1,.06-.06h5.15a.07.07,0,0,1,.07.08v1.84s0,.06-.07.06H355V17h3.29s.07,0,.07.06v1.86a.05.05,0,0,1-.06.06H355v2.87h3.31s.06,0,.06.08v1.87c0,.05,0,.07-.06.07Z" transform="translate(-12.1 -8.64)"/><path d="M365.16,24a2.91,2.91,0,0,1-1.58-.45,3.45,3.45,0,0,1-1.14-1.2,3.26,3.26,0,0,1-.42-1.64V20a.07.07,0,0,1,.08-.08h1.8s.06,0,.06.08v.76a1.32,1.32,0,0,0,.35.92,1.12,1.12,0,0,0,.85.39,1.08,1.08,0,0,0,.85-.4,1.28,1.28,0,0,0,.35-.91,1.23,1.23,0,0,0-.77-1.05l-.8-.46-1-.59a3.38,3.38,0,0,1-1.31-1.32,3.8,3.8,0,0,1-.43-1.8,3.12,3.12,0,0,1,.44-1.64,3.25,3.25,0,0,1,1.14-1.16,3,3,0,0,1,1.55-.43,3,3,0,0,1,1.57.44,3.3,3.3,0,0,1,1.13,1.16,3.13,3.13,0,0,1,.43,1.63v1.35s0,.06-.07.06h-1.79s-.07,0-.07-.06V15.51a1.29,1.29,0,0,0-.35-.93,1.15,1.15,0,0,0-1.69,0,1.33,1.33,0,0,0-.35.91,1.7,1.7,0,0,0,.22.91,2.15,2.15,0,0,0,.82.68l.31.18.51.27.49.28.26.14a3.79,3.79,0,0,1,1.27,1.13,2.75,2.75,0,0,1,.46,1.63,3.38,3.38,0,0,1-.42,1.68,3.23,3.23,0,0,1-1.14,1.18A3,3,0,0,1,365.16,24Z" transform="translate(-12.1 -8.64)"/><path d="M372.19,23.86c-.05,0-.07,0-.07-.08l0-11.27a.05.05,0,0,1,.06-.06h5.15s.06,0,.06.08v1.84a.05.05,0,0,1-.06.06h-3.29V17h3.29a.05.05,0,0,1,.06.06l0,1.86a.05.05,0,0,1-.06.06h-3.31v2.87h3.31s.06,0,.06.08v1.87c0,.05,0,.07-.06.07Z" transform="translate(-12.1 -8.64)"/><path d="M381.69,23.86a.11.11,0,0,1-.12-.12l0-11.16c0-.09,0-.13.13-.13h1.44l2.71,6.46-.08-6.33c0-.09.05-.13.15-.13h1.58c.07,0,.1,0,.1.13l0,11.18c0,.07,0,.1-.08.1h-1.41l-2.78-6,.11,5.9a.12.12,0,0,1-.14.13Z" transform="translate(-12.1 -8.64)"/><path d="M393.29,23.86s-.06,0-.06-.08V14.43h-2.09a.07.07,0,0,1-.08-.08l0-1.84a.05.05,0,0,1,.06-.06h6.09c.06,0,.08,0,.08.06v1.84c0,.05,0,.08-.06.08h-2.1l0,9.35a.07.07,0,0,1-.07.08Z" transform="translate(-12.1 -8.64)"/><path d="M399.51,23.78l2-11.27a.08.08,0,0,1,.08-.06h2.33a.08.08,0,0,1,.08.06l1.91,11.27s0,.08-.07.08h-1.78s-.07,0-.08-.08l-.18-1.2h-2.18l-.17,1.2s0,.08-.08.08h-1.78C399.53,23.86,399.51,23.83,399.51,23.78Zm2.42-3h1.54l-.65-4.61-.1-.61-.06.61Z" transform="translate(-12.1 -8.64)"/><path d="M412.23,24a3,3,0,0,1-1.6-.45,3.34,3.34,0,0,1-1.13-1.2,3.44,3.44,0,0,1-.41-1.69V15.56a3.35,3.35,0,0,1,.41-1.64,3.23,3.23,0,0,1,1.12-1.2,3.08,3.08,0,0,1,3.19,0,3.28,3.28,0,0,1,1.12,1.19,3.33,3.33,0,0,1,.42,1.66v.76s0,.06-.07.06H413.5c-.05,0-.07,0-.07-.06v-.76a1.35,1.35,0,0,0-.34-.93,1.11,1.11,0,0,0-.86-.39,1,1,0,0,0-.88.4,1.42,1.42,0,0,0-.31.92v5.12a1.4,1.4,0,0,0,.35,1,1.1,1.1,0,0,0,.84.38,1.07,1.07,0,0,0,.86-.42,1.43,1.43,0,0,0,.34-.94v-.76s0-.06.07-.06h1.81a.05.05,0,0,1,.06.06v.76a3.35,3.35,0,0,1-1.55,2.89A2.89,2.89,0,0,1,412.23,24Z" transform="translate(-12.1 -8.64)"/><path d="M419.32,23.86c-.06,0-.08,0-.08-.08V12.51s0-.06.07-.06h1.79s.07,0,.07.06V23.78s0,.08-.06.08Z" transform="translate(-12.1 -8.64)"/><path d="M428.26,24a2.87,2.87,0,0,1-1.57-.45,3.39,3.39,0,0,1-1.15-1.2,3.16,3.16,0,0,1-.43-1.64v-5.2a3.16,3.16,0,0,1,.43-1.64,3.3,3.3,0,0,1,1.14-1.18,3,3,0,0,1,1.57-.44,3,3,0,0,1,1.58.44A3.45,3.45,0,0,1,431,13.89a3.26,3.26,0,0,1,.42,1.64l0,5.2a3.16,3.16,0,0,1-.43,1.64,3.28,3.28,0,0,1-1.14,1.2A2.88,2.88,0,0,1,428.26,24Zm0-2a1.13,1.13,0,0,0,.85-.4,1.33,1.33,0,0,0,.36-.91l0-5.2a1.31,1.31,0,0,0-.34-.92,1.07,1.07,0,0,0-.85-.37,1.16,1.16,0,0,0-.85.36,1.33,1.33,0,0,0-.35.93v5.2a1.32,1.32,0,0,0,.35.92A1.12,1.12,0,0,0,428.26,22Zm-1-10.43c-.06,0-.08,0-.07-.06l1.29-2.84a.08.08,0,0,1,.08-.07h1.82c.07,0,.09,0,.07.07L429,11.55a.11.11,0,0,1-.1.06Z" transform="translate(-12.1 -8.64)"/><path d="M435.46,23.86a.11.11,0,0,1-.12-.12l0-11.16c0-.09,0-.13.13-.13h1.44l2.71,6.46-.08-6.33c0-.09.05-.13.15-.13h1.58c.07,0,.1,0,.1.13l0,11.18c0,.07,0,.1-.08.1h-1.42l-2.77-6,.11,5.9a.12.12,0,0,1-.14.13Z" transform="translate(-12.1 -8.64)"/><path d="M450.6,23.86a.07.07,0,0,1-.08-.08l0-11.27a.05.05,0,0,1,.06-.06l3,0a2.91,2.91,0,0,1,1.61.43,3.23,3.23,0,0,1,1.16,1.19,3.17,3.17,0,0,1,.44,1.64V20.4a3.43,3.43,0,0,1-1.66,3,3.36,3.36,0,0,1-1.7.47Zm1.88-2h1a1.37,1.37,0,0,0,1-.42,1.45,1.45,0,0,0,.41-1V15.68a1.27,1.27,0,0,0-.38-.91,1.14,1.14,0,0,0-.89-.37l-1.12,0Z" transform="translate(-12.1 -8.64)"/><path d="M460.85,23.86s-.06,0-.06-.08V12.51s0-.06.07-.06H466c.05,0,.07,0,.07.08v1.84s0,.06-.07.06h-3.28V17H466c.05,0,.07,0,.07.06v1.86A.05.05,0,0,1,466,19h-3.3v2.87H466s.06,0,.06.08v1.87c0,.05,0,.07-.06.07Z" transform="translate(-12.1 -8.64)"/><path d="M475.35,23.86c-.05,0-.07,0-.07-.08l0-11.25a.07.07,0,0,1,.08-.08h1.78a.07.07,0,0,1,.08.08l0,9.31h3.31a.07.07,0,0,1,.08.08v1.86a.07.07,0,0,1-.08.08Z" transform="translate(-12.1 -8.64)"/><path d="M487.09,24a2.88,2.88,0,0,1-1.58-.45,3.39,3.39,0,0,1-1.15-1.2,3.16,3.16,0,0,1-.43-1.64v-5.2a3.16,3.16,0,0,1,.43-1.64,3.3,3.3,0,0,1,1.14-1.18,3,3,0,0,1,1.58-.44,3,3,0,0,1,1.57.44,3.45,3.45,0,0,1,1.13,1.18,3.26,3.26,0,0,1,.42,1.64l0,5.2a3.16,3.16,0,0,1-.43,1.64,3.34,3.34,0,0,1-1.13,1.2A2.93,2.93,0,0,1,487.09,24Zm0-2a1.12,1.12,0,0,0,.84-.4,1.33,1.33,0,0,0,.36-.91l0-5.2a1.35,1.35,0,0,0-.33-.92,1.1,1.1,0,0,0-.85-.37,1.13,1.13,0,0,0-.85.36,1.29,1.29,0,0,0-.36.93v5.2a1.28,1.28,0,0,0,.36.92A1.09,1.09,0,0,0,487.09,22Z" transform="translate(-12.1 -8.64)"/><path d="M496.87,24a2.88,2.88,0,0,1-1.58-.45,3.36,3.36,0,0,1-1.57-2.84V20a.07.07,0,0,1,.08-.08h1.8s.06,0,.06.08v.76a1.28,1.28,0,0,0,.36.92,1.11,1.11,0,0,0,1.7,0,1.33,1.33,0,0,0,.35-.91,1.25,1.25,0,0,0-.77-1.05l-.8-.46-1-.59a3.36,3.36,0,0,1-1.3-1.32,3.69,3.69,0,0,1-.43-1.8,3.11,3.11,0,0,1,.43-1.64,3.2,3.2,0,0,1,1.15-1.16,3,3,0,0,1,1.55-.43,2.94,2.94,0,0,1,1.56.44A3.23,3.23,0,0,1,500,15.51v1.35s0,.06-.07.06h-1.8a.05.05,0,0,1-.06-.06l0-1.35a1.25,1.25,0,0,0-.35-.93,1.14,1.14,0,0,0-1.68,0,1.29,1.29,0,0,0-.36.91,1.71,1.71,0,0,0,.23.91,2.08,2.08,0,0,0,.82.68c.05,0,.16.09.31.18l.51.27.48.28.27.14a3.88,3.88,0,0,1,1.27,1.13,2.75,2.75,0,0,1,.46,1.63,3.26,3.26,0,0,1-1.56,2.86A3,3,0,0,1,496.87,24Z" transform="translate(-12.1 -8.64)"/><path d="M511.85,24a3,3,0,0,1-1.6-.45,3.26,3.26,0,0,1-1.13-1.2,3.44,3.44,0,0,1-.42-1.69l0-5.12a3.25,3.25,0,0,1,.41-1.64,3.15,3.15,0,0,1,1.12-1.2,3.06,3.06,0,0,1,3.18,0,3.31,3.31,0,0,1,1.13,1.19,3.43,3.43,0,0,1,.41,1.66v.76a.05.05,0,0,1-.06.06h-1.8a.05.05,0,0,1-.06-.06v-.76a1.36,1.36,0,0,0-.35-.93,1.09,1.09,0,0,0-.85-.39,1.05,1.05,0,0,0-.89.4,1.47,1.47,0,0,0-.3.92v5.12a1.39,1.39,0,0,0,.34,1,1.11,1.11,0,0,0,.85.38,1.06,1.06,0,0,0,.85-.42,1.44,1.44,0,0,0,.35-.94v-.76a.05.05,0,0,1,.06-.06h1.81c.05,0,.07,0,.07.06v.76a3.39,3.39,0,0,1-1.56,2.89A2.88,2.88,0,0,1,511.85,24Z" transform="translate(-12.1 -8.64)"/><path d="M521.82,24a2.91,2.91,0,0,1-1.58-.45,3.39,3.39,0,0,1-1.15-1.2,3.16,3.16,0,0,1-.43-1.64l0-5.2a3.26,3.26,0,0,1,.42-1.64,3.33,3.33,0,0,1,1.15-1.18,3,3,0,0,1,1.57-.44,2.93,2.93,0,0,1,1.57.44,3.36,3.36,0,0,1,1.13,1.18,3.26,3.26,0,0,1,.43,1.64v5.2a3.26,3.26,0,0,1-.42,1.64,3.45,3.45,0,0,1-1.14,1.2A2.91,2.91,0,0,1,521.82,24Zm0-2a1.12,1.12,0,0,0,.84-.4,1.33,1.33,0,0,0,.36-.91v-5.2a1.36,1.36,0,0,0-.34-.92,1.1,1.1,0,0,0-.85-.37,1.14,1.14,0,0,0-.85.36,1.28,1.28,0,0,0-.35.93v5.2a1.28,1.28,0,0,0,.35.92A1.1,1.1,0,0,0,521.82,22Z" transform="translate(-12.1 -8.64)"/><path d="M528.94,23.86s-.06,0-.06-.08V12.53a.07.07,0,0,1,.08-.08h1.78a.07.07,0,0,1,.08.08v9.31h3.3a.07.07,0,0,1,.08.08v1.86a.07.07,0,0,1-.08.08Z" transform="translate(-12.1 -8.64)"/><path d="M540.68,24a2.88,2.88,0,0,1-1.58-.45,3.39,3.39,0,0,1-1.15-1.2,3.16,3.16,0,0,1-.43-1.64l0-5.2a3.26,3.26,0,0,1,.42-1.64,3.33,3.33,0,0,1,1.15-1.18,3,3,0,0,1,1.57-.44,2.93,2.93,0,0,1,1.57.44,3.36,3.36,0,0,1,1.13,1.18,3.26,3.26,0,0,1,.43,1.64v5.2a3.26,3.26,0,0,1-.42,1.64,3.45,3.45,0,0,1-1.14,1.2A2.91,2.91,0,0,1,540.68,24Zm0-2a1.12,1.12,0,0,0,.84-.4,1.33,1.33,0,0,0,.36-.91l0-5.2a1.35,1.35,0,0,0-.33-.92,1.1,1.1,0,0,0-.85-.37,1.14,1.14,0,0,0-.85.36,1.28,1.28,0,0,0-.35.93v5.2a1.28,1.28,0,0,0,.35.92A1.1,1.1,0,0,0,540.68,22Z" transform="translate(-12.1 -8.64)"/><path d="M547.8,23.86a.07.07,0,0,1-.07-.08l0-11.27a.05.05,0,0,1,.06-.06h3.24a3.07,3.07,0,0,1,1.6.43,3.33,3.33,0,0,1,1.16,1.17,3.11,3.11,0,0,1,.43,1.64,3.08,3.08,0,0,1-.18,1.09,3,3,0,0,1-.41.82,2.58,2.58,0,0,1-.44.5,3.4,3.4,0,0,1,.87,2.32l0,3.36a.07.07,0,0,1-.08.08h-1.82s-.06,0-.06-.05V20.42a1.46,1.46,0,0,0-.41-1,1.32,1.32,0,0,0-1-.43h-1.06v4.82a.07.07,0,0,1-.07.08ZM549.69,17h1.38a1.29,1.29,0,0,0,0-2.57h-1.38Z" transform="translate(-12.1 -8.64)"/><path d="M558.22,23.86s-.06,0-.06-.08V12.51s0-.06.07-.06h5.15s.06,0,.06.08v1.84a.05.05,0,0,1-.06.06H560.1V17h3.29a.05.05,0,0,1,.06.06l0,1.86s0,.06-.07.06h-3.3v2.87h3.3c.05,0,.07,0,.07.08v1.87c0,.05,0,.07-.07.07Z" transform="translate(-12.1 -8.64)"/><path d="M570.22,24a2.88,2.88,0,0,1-1.58-.45,3.36,3.36,0,0,1-1.57-2.84V20a.07.07,0,0,1,.08-.08H569s.06,0,.06.08v.76a1.28,1.28,0,0,0,.36.92,1.11,1.11,0,0,0,1.7,0,1.33,1.33,0,0,0,.35-.91,1.25,1.25,0,0,0-.77-1.05l-.8-.46-1-.59a3.45,3.45,0,0,1-1.31-1.32,3.79,3.79,0,0,1-.42-1.8,3.11,3.11,0,0,1,.43-1.64,3.2,3.2,0,0,1,1.15-1.16,3,3,0,0,1,3.11,0,3.19,3.19,0,0,1,1.56,2.79v1.35a.05.05,0,0,1-.06.06h-1.8a.05.05,0,0,1-.06-.06l0-1.35a1.25,1.25,0,0,0-.35-.93,1.14,1.14,0,0,0-1.68,0,1.29,1.29,0,0,0-.36.91,1.71,1.71,0,0,0,.23.91,2.08,2.08,0,0,0,.82.68,3.35,3.35,0,0,0,.31.18l.5.27.49.28.27.14a3.85,3.85,0,0,1,1.26,1.13,2.75,2.75,0,0,1,.47,1.63,3.32,3.32,0,0,1-1.56,2.86A3,3,0,0,1,570.22,24Z" transform="translate(-12.1 -8.64)"/><line class="cls-4" x1="286.77" y1="126" x2="574.09" y2="127.37"/><path d="M345.33,127.68c-.05,0-.07,0-.07-.08l0-11.26s0-.07.06-.07h5.15s.06,0,.06.09v1.83s0,.07-.06.07H347.2v2.56h3.29a.05.05,0,0,1,.06.06l0,1.85s0,.07-.06.07H347.2v2.87h3.31s.06,0,.06.08v1.87a.05.05,0,0,1-.06.06Z" transform="translate(-12.1 -8.64)"/><path d="M354.76,127.68c-.05,0-.07,0-.07-.08l0-11.24c0-.06,0-.09.08-.09h1.78c.05,0,.08,0,.08.09l0,9.31h3.31a.07.07,0,0,1,.08.08v1.85c0,.06,0,.08-.08.08Z" transform="translate(-12.1 -8.64)"/><path d="M363.82,127.68c-.05,0-.07,0-.07-.08l0-11.26s0-.07.06-.07H369s.06,0,.06.09v1.83s0,.07-.06.07h-3.29v2.56H369a.05.05,0,0,1,.06.06l0,1.85s0,.07-.06.07h-3.31v2.87H369s.06,0,.06.08v1.87a.05.05,0,0,1-.06.06Z" transform="translate(-12.1 -8.64)"/><path d="M373.25,127.68c-.05,0-.07,0-.07-.08l0-11.26a.07.07,0,0,1,.07-.07h2s.08,0,.12.07l1.46,2.16,1.45-2.16s.07-.07.12-.07h2s.06,0,.06.07l0,11.26c0,.06,0,.08-.07.08h-1.81s-.06,0-.06-.08l0-8.36-1.68,2.49-1.67-2.49,0,8.36c0,.06,0,.08-.06.08Z" transform="translate(-12.1 -8.64)"/><path d="M384.55,127.68s-.06,0-.06-.08V116.34a.06.06,0,0,1,.07-.07h5.14c.05,0,.07,0,.07.09v1.83s0,.07-.07.07h-3.28v2.56h3.28c.05,0,.07,0,.07.06v1.85s0,.07-.06.07h-3.3v2.87h3.3s.06,0,.06.08v1.87a.05.05,0,0,1-.06.06Z" transform="translate(-12.1 -8.64)"/><path d="M394.06,127.68c-.08,0-.13,0-.13-.11V116.41c0-.09,0-.14.12-.14h1.45l2.71,6.46-.08-6.32a.13.13,0,0,1,.14-.14h1.59c.06,0,.1,0,.1.14v11.18c0,.06,0,.09-.08.09h-1.41l-2.77-6,.11,5.9c0,.09-.05.13-.15.13Z" transform="translate(-12.1 -8.64)"/><path d="M405.66,127.68c-.05,0-.07,0-.07-.08v-9.34h-2.08c-.06,0-.08,0-.08-.08v-1.84a.06.06,0,0,1,.07-.07h6.09a.07.07,0,0,1,.08.07v1.84s0,.08-.06.08h-2.1v9.34c0,.06,0,.08-.06.08Z" transform="translate(-12.1 -8.64)"/><path d="M416,127.85a2.88,2.88,0,0,1-1.58-.45,3.39,3.39,0,0,1-1.15-1.2,3.23,3.23,0,0,1-.43-1.65v-5.19a3.16,3.16,0,0,1,.43-1.64,3.1,3.1,0,0,1,1.15-1.18,3,3,0,0,1,3.14,0,3.2,3.2,0,0,1,1.13,1.18,3.26,3.26,0,0,1,.42,1.64l0,5.19a3.23,3.23,0,0,1-.43,1.65,3.34,3.34,0,0,1-1.13,1.2A2.93,2.93,0,0,1,416,127.85Zm0-2a1.09,1.09,0,0,0,.84-.4,1.31,1.31,0,0,0,.36-.91l0-5.19a1.35,1.35,0,0,0-.33-.92,1.15,1.15,0,0,0-1.7,0,1.27,1.27,0,0,0-.36.93v5.19a1.32,1.32,0,0,0,.36.93A1.08,1.08,0,0,0,416,125.86Z" transform="translate(-12.1 -8.64)"/><path d="M425.75,127.85a2.88,2.88,0,0,1-1.58-.45,3.28,3.28,0,0,1-1.14-1.2,3.33,3.33,0,0,1-.43-1.65v-.75c0-.06,0-.08.08-.08h1.8s.06,0,.06.08v.75a1.32,1.32,0,0,0,.36.93,1.09,1.09,0,0,0,.85.38,1.12,1.12,0,0,0,.85-.39,1.35,1.35,0,0,0,.35-.92,1.27,1.27,0,0,0-.77-1l-.8-.46-1-.59a3.45,3.45,0,0,1-1.31-1.32,3.75,3.75,0,0,1-.42-1.79,3.17,3.17,0,0,1,.43-1.65,3.25,3.25,0,0,1,1.15-1.15,2.92,2.92,0,0,1,1.55-.43,3.05,3.05,0,0,1,1.56.43,3.22,3.22,0,0,1,1.56,2.8v1.34s0,.07-.06.07H427s-.06,0-.06-.07l0-1.34a1.25,1.25,0,0,0-.35-.93,1.09,1.09,0,0,0-.83-.37,1.1,1.1,0,0,0-.85.39,1.29,1.29,0,0,0-.36.91,1.67,1.67,0,0,0,.23.9,2.17,2.17,0,0,0,.82.69l.31.17.51.28.48.27.27.15a3.86,3.86,0,0,1,1.27,1.12,2.77,2.77,0,0,1,.46,1.63,3.26,3.26,0,0,1-1.56,2.86A3,3,0,0,1,425.75,127.85Z" transform="translate(-12.1 -8.64)"/><path d="M437.86,127.68c-.06,0-.08,0-.08-.08l0-11.26s0-.07.06-.07h3a3,3,0,0,1,1.61.42,3.31,3.31,0,0,1,1.16,1.19,3.23,3.23,0,0,1,.44,1.65v4.7a3.36,3.36,0,0,1-.45,1.73,3.4,3.4,0,0,1-1.2,1.24,3.3,3.3,0,0,1-1.7.48Zm1.87-2h1a1.32,1.32,0,0,0,1-.43,1.42,1.42,0,0,0,.41-1V119.5a1.27,1.27,0,0,0-.38-.91,1.18,1.18,0,0,0-.89-.37l-1.12,0Z" transform="translate(-12.1 -8.64)"/><path d="M448.1,127.68s-.06,0-.06-.08V116.34a.07.07,0,0,1,.07-.07h5.15s.06,0,.06.09v1.83s0,.07-.06.07H450v2.56h3.29a.05.05,0,0,1,.06.06l0,1.85a.06.06,0,0,1-.07.07H450v2.87h3.3a.07.07,0,0,1,.07.08v1.87s0,.06-.07.06Z" transform="translate(-12.1 -8.64)"/><path d="M457.53,127.68s-.06,0-.06-.08V116.36c0-.06,0-.09.08-.09h1.78c.06,0,.08,0,.08.09v9.31h3.3c.06,0,.08,0,.08.08v1.85c0,.06,0,.08-.08.08Z" transform="translate(-12.1 -8.64)"/><path d="M471,127.68s-.07,0-.07-.08l0-11.24c0-.06,0-.09.08-.09h1.78c.05,0,.08,0,.08.09l0,9.31h3.31a.07.07,0,0,1,.08.08v1.85c0,.06,0,.08-.08.08Z" transform="translate(-12.1 -8.64)"/><path d="M482.76,127.85a2.88,2.88,0,0,1-1.58-.45,3.39,3.39,0,0,1-1.15-1.2,3.23,3.23,0,0,1-.43-1.65v-5.19a3.16,3.16,0,0,1,.43-1.64,3.1,3.1,0,0,1,1.15-1.18,3,3,0,0,1,3.14,0,3.2,3.2,0,0,1,1.13,1.18,3.26,3.26,0,0,1,.42,1.64l0,5.19a3.23,3.23,0,0,1-.43,1.65,3.34,3.34,0,0,1-1.13,1.2A2.93,2.93,0,0,1,482.76,127.85Zm0-2a1.09,1.09,0,0,0,.84-.4,1.31,1.31,0,0,0,.36-.91l0-5.19a1.35,1.35,0,0,0-.33-.92,1.15,1.15,0,0,0-1.7,0,1.27,1.27,0,0,0-.36.93v5.19a1.32,1.32,0,0,0,.36.93A1.08,1.08,0,0,0,482.76,125.86Z" transform="translate(-12.1 -8.64)"/><path d="M492.75,127.85a2.93,2.93,0,0,1-1.57-.44,3.42,3.42,0,0,1-1.14-1.19,3.37,3.37,0,0,1-.42-1.67v-5.19a3.31,3.31,0,0,1,.42-1.64,3.39,3.39,0,0,1,1.14-1.18,2.9,2.9,0,0,1,1.57-.45,3,3,0,0,1,1.59.44,3.1,3.1,0,0,1,1.13,1.17,3.28,3.28,0,0,1,.42,1.66v.75a.07.07,0,0,1-.08.07H494s-.06,0-.06-.07v-.62a1.62,1.62,0,0,0-.34-1,1.08,1.08,0,0,0-1.69,0,1.32,1.32,0,0,0-.36.92v5.19a1.36,1.36,0,0,0,.35.93,1.1,1.1,0,0,0,.84.38,1.14,1.14,0,0,0,.86-.37,1.39,1.39,0,0,0,.34-.94v-.8h-1.12c-.06,0-.08,0-.08-.08v-1.84s0-.08.08-.08h3s.06,0,.06.08v2.72a3.27,3.27,0,0,1-.43,1.67,3.39,3.39,0,0,1-1.13,1.19A3,3,0,0,1,492.75,127.85Z" transform="translate(-12.1 -8.64)"/><path d="M502.69,127.85a2.91,2.91,0,0,1-1.58-.45,3.39,3.39,0,0,1-1.15-1.2,3.33,3.33,0,0,1-.43-1.65l0-5.19a3.26,3.26,0,0,1,.42-1.64,3.18,3.18,0,0,1,1.15-1.18,2.9,2.9,0,0,1,1.57-.45,2.85,2.85,0,0,1,1.57.45,3.2,3.2,0,0,1,1.13,1.18,3.16,3.16,0,0,1,.43,1.64v5.19a3.32,3.32,0,0,1-.42,1.65,3.45,3.45,0,0,1-1.14,1.2A2.91,2.91,0,0,1,502.69,127.85Zm0-2a1.09,1.09,0,0,0,.84-.4,1.31,1.31,0,0,0,.36-.91v-5.19a1.36,1.36,0,0,0-.34-.92,1.09,1.09,0,0,0-.85-.38,1.11,1.11,0,0,0-.85.37,1.31,1.31,0,0,0-.35.93v5.19a1.36,1.36,0,0,0,.35.93A1.09,1.09,0,0,0,502.69,125.86Z" transform="translate(-12.1 -8.64)"/><path d="M511.14,127.68s-.06,0-.06-.08v-9.34H509a.07.07,0,0,1-.08-.08l0-1.84s0-.07.06-.07h6.1a.07.07,0,0,1,.08.07v1.84a.07.07,0,0,1-.07.08H513l0,9.34c0,.06,0,.08-.07.08Z" transform="translate(-12.1 -8.64)"/><path d="M518.73,127.68c-.06,0-.08,0-.08-.08V116.34a.06.06,0,0,1,.07-.07h1.79a.07.07,0,0,1,.07.07V127.6c0,.06,0,.08-.06.08Z" transform="translate(-12.1 -8.64)"/><path d="M524.79,127.68c-.06,0-.08,0-.08-.08l0-11.26s0-.07.06-.07h3.08a3.06,3.06,0,0,1,2.34.92,3.5,3.5,0,0,1,.85,2.49,4.27,4.27,0,0,1-.45,2,3.33,3.33,0,0,1-1.17,1.31,2.82,2.82,0,0,1-1.57.46h-1.22v4.13c0,.06,0,.08-.08.08Zm1.87-6.19h1.22a1.11,1.11,0,0,0,.89-.5,2.14,2.14,0,0,0,.38-1.31,1.6,1.6,0,0,0-.34-1.05,1.14,1.14,0,0,0-.93-.41l-1.22,0Z" transform="translate(-12.1 -8.64)"/><path d="M537.66,127.85a2.93,2.93,0,0,1-1.58-.45,3.45,3.45,0,0,1-1.14-1.2,3.23,3.23,0,0,1-.43-1.65v-5.19a3.3,3.3,0,0,1,1.57-2.82,2.92,2.92,0,0,1,1.57-.45,2.88,2.88,0,0,1,1.58.45,3.28,3.28,0,0,1,1.55,2.82l0,5.19a3.23,3.23,0,0,1-.43,1.65,3.28,3.28,0,0,1-1.14,1.2A2.88,2.88,0,0,1,537.66,127.85Zm0-2a1.09,1.09,0,0,0,.85-.4,1.31,1.31,0,0,0,.36-.91l0-5.19a1.31,1.31,0,0,0-.34-.92,1.08,1.08,0,0,0-.85-.38,1.13,1.13,0,0,0-.85.37,1.31,1.31,0,0,0-.35.93v5.19a1.36,1.36,0,0,0,.35.93A1.11,1.11,0,0,0,537.66,125.86Z" transform="translate(-12.1 -8.64)"/><rect class="cls-5" y="158.75" width="259.75" height="19.6"/><path class="cls-6" d="M14.38,184.52l2.75-15.73a.13.13,0,0,1,.12-.1h3.22c.06,0,.09,0,.11.1l2.64,15.73q0,.12-.09.12H20.67c-.06,0-.1,0-.11-.12l-.25-1.67h-3l-.24,1.67q0,.12-.12.12H14.47Q14.38,184.64,14.38,184.52Zm3.35-4.12h2.14L19,174l-.14-.84-.09.84Z" transform="translate(-12.1 -8.64)"/><path class="cls-6" d="M32.87,184.64q-.09,0-.09-.12l0-15.71c0-.08,0-.12.11-.12h2.47c.07,0,.11,0,.11.12l0,13h4.58c.07,0,.11,0,.11.12v2.58c0,.08,0,.12-.11.12Z" transform="translate(-12.1 -8.64)"/><path class="cls-6" d="M49.85,184.64q-.09,0-.09-.12l0-15.73c0-.06,0-.1.09-.1H57q.09,0,.09.12v2.57a.08.08,0,0,1-.09.09H52.45V175H57a.08.08,0,0,1,.09.09l0,2.59a.08.08,0,0,1-.09.09H52.45v4H57q.09,0,.09.12v2.61a.08.08,0,0,1-.09.09Z" transform="translate(-12.1 -8.64)"/><path class="cls-6" d="M70.12,184.87a4.18,4.18,0,0,1-3.79-2.28,5,5,0,0,1-.57-2.4v-1.05a.08.08,0,0,1,.09-.09h2.51c.06,0,.09,0,.09.11v1a2,2,0,0,0,.47,1.38,1.53,1.53,0,0,0,1.2.53,1.48,1.48,0,0,0,1.15-.58,2,2,0,0,0,.49-1.33V168.81a.08.08,0,0,1,.09-.09h2.49c.06,0,.09,0,.09.11l0,11.36a4.77,4.77,0,0,1-.59,2.33,4.7,4.7,0,0,1-1.57,1.71A3.91,3.91,0,0,1,70.12,184.87Z" transform="translate(-12.1 -8.64)"/><path class="cls-6" d="M83.54,184.52l2.76-15.73a.11.11,0,0,1,.11-.1h3.22a.11.11,0,0,1,.11.1l2.65,15.73q0,.12-.09.12H89.83c-.06,0-.1,0-.11-.12l-.25-1.67h-3l-.24,1.67c0,.08-.06.12-.11.12H83.63Q83.54,184.64,83.54,184.52Zm3.36-4.12H89L88.12,174l-.14-.84-.08.84Z" transform="translate(-12.1 -8.64)"/><path class="cls-6" d="M102.14,184.64c-.12,0-.18-.06-.18-.16l0-15.6a.17.17,0,0,1,.18-.19h2l3.76,9-.12-8.84a.18.18,0,0,1,.2-.19h2.2c.09,0,.14.07.14.19l0,15.62c0,.09,0,.14-.11.14h-2l-3.84-8.43.15,8.24c0,.13-.06.19-.2.19Z" transform="translate(-12.1 -8.64)"/><path class="cls-6" d="M120.52,184.64c-.07,0-.11,0-.11-.12l0-15.73c0-.06,0-.1.09-.1l4.16,0a4,4,0,0,1,2.23.6,4.6,4.6,0,0,1,2.21,4v6.58a4.79,4.79,0,0,1-2.29,4.14,4.47,4.47,0,0,1-2.35.66Zm2.6-2.82h1.38a1.87,1.87,0,0,0,1.39-.59,2,2,0,0,0,.56-1.42v-6.6a1.74,1.74,0,0,0-.52-1.27,1.61,1.61,0,0,0-1.23-.52l-1.56,0Z" transform="translate(-12.1 -8.64)"/><path class="cls-6" d="M139.14,184.64c-.06,0-.08,0-.08-.12l0-15.73c0-.06,0-.1.09-.1h4.49a4.25,4.25,0,0,1,2.21.61,4.65,4.65,0,0,1,1.61,1.63,4.43,4.43,0,0,1,.6,2.3,4.49,4.49,0,0,1-.24,1.52,4.93,4.93,0,0,1-.58,1.15,4.17,4.17,0,0,1-.6.7,4.74,4.74,0,0,1,1.2,3.23l0,4.69c0,.08,0,.12-.11.12h-2.51c-.06,0-.09,0-.09-.07v-4.74a2,2,0,0,0-.57-1.43,1.8,1.8,0,0,0-1.39-.61h-1.46l0,6.73c0,.08,0,.12-.08.12Zm2.63-9.6h1.91a1.66,1.66,0,0,0,1.22-.53,1.8,1.8,0,0,0,0-2.54,1.69,1.69,0,0,0-1.23-.53h-1.91Z" transform="translate(-12.1 -8.64)"/><path class="cls-6" d="M161.92,184.87a3.94,3.94,0,0,1-2.18-.63,4.8,4.8,0,0,1-1.59-1.67,4.57,4.57,0,0,1-.6-2.31l0-7.26a4.57,4.57,0,0,1,2.18-3.94,4.05,4.05,0,0,1,2.17-.62,4,4,0,0,1,2.18.62,4.62,4.62,0,0,1,2.16,3.94l0,7.26a4.66,4.66,0,0,1-2.17,4A4,4,0,0,1,161.92,184.87Zm0-2.77a1.5,1.5,0,0,0,1.17-.57,1.85,1.85,0,0,0,.5-1.27l0-7.26a1.87,1.87,0,0,0-.47-1.28,1.51,1.51,0,0,0-1.18-.53,1.54,1.54,0,0,0-1.17.52,1.77,1.77,0,0,0-.49,1.29v7.26a1.85,1.85,0,0,0,.49,1.3A1.52,1.52,0,0,0,161.92,182.1Z" transform="translate(-12.1 -8.64)"/><path class="cls-6" d="M191.68,184.87a4,4,0,0,1-2.19-.63,4.8,4.8,0,0,1-1.59-1.67,4.57,4.57,0,0,1-.6-2.31l0-7.26a4.47,4.47,0,0,1,.59-2.29,4.55,4.55,0,0,1,1.58-1.65,4.11,4.11,0,0,1,2.18-.62,4,4,0,0,1,2.18.62,4.69,4.69,0,0,1,1.57,1.65A4.57,4.57,0,0,1,196,173l0,7.26a4.66,4.66,0,0,1-2.17,4A4,4,0,0,1,191.68,184.87Zm0-2.77a1.5,1.5,0,0,0,1.17-.57,1.85,1.85,0,0,0,.5-1.27l0-7.26a1.87,1.87,0,0,0-.47-1.28,1.51,1.51,0,0,0-1.18-.53,1.56,1.56,0,0,0-1.18.52A1.81,1.81,0,0,0,190,173v7.26a1.88,1.88,0,0,0,.48,1.3A1.54,1.54,0,0,0,191.68,182.1Z" transform="translate(-12.1 -8.64)"/><path class="cls-6" d="M210,184.87a4,4,0,0,1-2.21-.63,4.46,4.46,0,0,1-1.56-1.69,4.77,4.77,0,0,1-.58-2.36l0-7.14a4.7,4.7,0,0,1,.57-2.3,4.4,4.4,0,0,1,1.55-1.68,4.2,4.2,0,0,1,4.41,0,4.52,4.52,0,0,1,1.56,1.66,4.79,4.79,0,0,1,.58,2.33v1a.08.08,0,0,1-.09.09h-2.49a.08.08,0,0,1-.09-.09v-1a1.93,1.93,0,0,0-.48-1.31,1.53,1.53,0,0,0-1.19-.55,1.44,1.44,0,0,0-1.22.56,2.13,2.13,0,0,0-.42,1.3v7.14a2,2,0,0,0,.48,1.38,1.51,1.51,0,0,0,1.16.53,1.48,1.48,0,0,0,1.19-.59,2,2,0,0,0,.48-1.32v-1.05a.08.08,0,0,1,.09-.09h2.51a.08.08,0,0,1,.09.09v1.05a4.78,4.78,0,0,1-.59,2.36,4.56,4.56,0,0,1-1.57,1.69A4,4,0,0,1,210,184.87Z" transform="translate(-12.1 -8.64)"/><path class="cls-6" d="M224.2,184.64q-.09,0-.09-.12l0-15.73a.1.1,0,0,1,.11-.1h2.47a.1.1,0,0,1,.11.1l0,6.23h3.33v-6.23c0-.06,0-.1.09-.1h2.47a.1.1,0,0,1,.11.1l0,15.73c0,.08,0,.12-.11.12h-2.49c-.07,0-.11,0-.11-.12v-6.73H226.8v6.73q0,.12-.09.12Z" transform="translate(-12.1 -8.64)"/><path class="cls-6" d="M246.93,184.87a4,4,0,0,1-2.19-.63,4.8,4.8,0,0,1-1.59-1.67,4.57,4.57,0,0,1-.6-2.31l0-7.26a4.56,4.56,0,0,1,.58-2.29,4.66,4.66,0,0,1,1.59-1.65,4.11,4.11,0,0,1,2.18-.62,4,4,0,0,1,2.18.62,4.69,4.69,0,0,1,1.57,1.65,4.57,4.57,0,0,1,.59,2.29l0,7.26a4.66,4.66,0,0,1-2.17,4A4,4,0,0,1,246.93,184.87Zm0-2.77a1.52,1.52,0,0,0,1.17-.57,1.85,1.85,0,0,0,.5-1.27l0-7.26a1.87,1.87,0,0,0-.47-1.28,1.51,1.51,0,0,0-1.18-.53,1.56,1.56,0,0,0-1.18.52,1.81,1.81,0,0,0-.49,1.29v7.26a1.89,1.89,0,0,0,.49,1.3A1.54,1.54,0,0,0,246.93,182.1Z" transform="translate(-12.1 -8.64)"/><path class="cls-6" d="M260,184.52l2.75-15.73c0-.06,0-.1.11-.1h3.23c.06,0,.09,0,.11.1l2.64,15.73q0,.12-.09.12h-2.46c-.06,0-.1,0-.11-.12l-.25-1.67h-3l-.25,1.67c0,.08-.05.12-.11.12h-2.46Q260,184.64,260,184.52Zm3.35-4.12h2.14l-.91-6.44-.14-.84-.09.84Z" transform="translate(-12.1 -8.64)"/><path d="M131.17,97.41s1.12,7.32,0,12.52c0,0,12-5.73,22.13,0,0,0-1.12-7.43,0-12.52C153.3,97.41,142.46,89.67,131.17,97.41Z" transform="translate(-12.1 -8.64)"/><path d="M57.79,199.19a.05.05,0,0,1-.06-.06l0-7.87s0,0,0,0h2.13a2.1,2.1,0,0,1,1.62.64,2.46,2.46,0,0,1,.59,1.74,3,3,0,0,1-.31,1.41,2.4,2.4,0,0,1-.81.91,1.93,1.93,0,0,1-1.09.32h-.84v2.89a.05.05,0,0,1-.06.06Zm1.3-4.33h.84a.78.78,0,0,0,.62-.35,1.53,1.53,0,0,0,.26-.91,1.19,1.19,0,0,0-.23-.74.79.79,0,0,0-.65-.28h-.84Z" transform="translate(-12.1 -8.64)"/><path d="M66.21,199.19s0,0,0-.06l0-7.87s0,0,0,0h2.25a2.09,2.09,0,0,1,1.1.3,2.23,2.23,0,0,1,1.11,2,2.2,2.2,0,0,1-.12.76,2.85,2.85,0,0,1-.29.58,2.31,2.31,0,0,1-.3.35,2.35,2.35,0,0,1,.6,1.61v2.35a.05.05,0,0,1-.06.06H69.28s0,0,0,0v-2.37a1,1,0,0,0-.28-.71.9.9,0,0,0-.7-.31h-.73v3.37s0,.06,0,.06Zm1.31-4.8h1a.91.91,0,0,0,.87-.91.89.89,0,0,0-.87-.89h-1Z" transform="translate(-12.1 -8.64)"/><path d="M76.88,199.3a2,2,0,0,1-1.1-.31,2.36,2.36,0,0,1-.79-.84,2.27,2.27,0,0,1-.3-1.15v-3.63a2.37,2.37,0,0,1,.29-1.15,2.25,2.25,0,0,1,.8-.82,2.07,2.07,0,0,1,2.18,0,2.36,2.36,0,0,1,.78.82,2.26,2.26,0,0,1,.29,1.15l0,3.63a2.27,2.27,0,0,1-.3,1.15A2.36,2.36,0,0,1,78,199,2,2,0,0,1,76.88,199.3Zm0-1.38a.79.79,0,0,0,.58-.28.92.92,0,0,0,.25-.64v-3.63a1,1,0,0,0-.23-.64.76.76,0,0,0-.59-.27.79.79,0,0,0-.59.26.92.92,0,0,0-.25.65V197a1,1,0,0,0,.25.65A.76.76,0,0,0,76.88,197.92Z" transform="translate(-12.1 -8.64)"/><path d="M83.31,199.19s0,0,0-.06l0-7.87s0,0,0,0l2.08,0a2.16,2.16,0,0,1,1.12.3,2.36,2.36,0,0,1,.8.83,2.27,2.27,0,0,1,.3,1.15v3.29a2.39,2.39,0,0,1-1.14,2.07,2.26,2.26,0,0,1-1.18.34Zm1.3-1.41h.69a.9.9,0,0,0,.69-.3,1,1,0,0,0,.29-.71v-3.3a.89.89,0,0,0-.26-.63.8.8,0,0,0-.62-.26h-.78Z" transform="translate(-12.1 -8.64)"/><path d="M93.87,199.3a2,2,0,0,1-1.09-.31,2.34,2.34,0,0,1-.8-.85,2.37,2.37,0,0,1-.29-1.15l0-5.73s0,0,.05,0H93s0,0,0,0V197a1,1,0,0,0,.23.66.78.78,0,0,0,1.18,0,1,1,0,0,0,.24-.66v-5.73s0,0,0,0H96s0,0,0,0l0,5.73a2.32,2.32,0,0,1-.3,1.17A2.18,2.18,0,0,1,95,199,2,2,0,0,1,93.87,199.3Z" transform="translate(-12.1 -8.64)"/><path d="M102.33,199.3a2,2,0,0,1-1.1-.31,2.21,2.21,0,0,1-.78-.85,2.31,2.31,0,0,1-.29-1.17v-3.58a2.36,2.36,0,0,1,.28-1.15,2.25,2.25,0,0,1,.78-.84,2,2,0,0,1,1.1-.31,2,2,0,0,1,1.1.31,2.15,2.15,0,0,1,.78.83,2.27,2.27,0,0,1,.29,1.16v.53s0,0,0,0h-1.25s0,0,0,0v-.53a1,1,0,0,0-.24-.65.78.78,0,0,0-.6-.28.74.74,0,0,0-.61.28,1.07,1.07,0,0,0-.21.65V197a1,1,0,0,0,.24.68.75.75,0,0,0,1.18,0,1,1,0,0,0,.24-.65v-.53s0-.05,0-.05h1.26s0,0,0,.05V197a2.42,2.42,0,0,1-.29,1.17,2.31,2.31,0,0,1-.79.85A2,2,0,0,1,102.33,199.3Z" transform="translate(-12.1 -8.64)"/><path d="M110.72,199.3a2,2,0,0,1-1.1-.31,2.21,2.21,0,0,1-.78-.85,2.31,2.31,0,0,1-.29-1.17v-3.58a2.36,2.36,0,0,1,.28-1.15,2.25,2.25,0,0,1,.78-.84,2,2,0,0,1,1.1-.31,2,2,0,0,1,1.1.31,2.15,2.15,0,0,1,.78.83,2.38,2.38,0,0,1,.29,1.16v.53s0,0,0,0H111.6s0,0,0,0v-.53a1,1,0,0,0-.24-.65.78.78,0,0,0-.6-.28.74.74,0,0,0-.61.28,1.07,1.07,0,0,0-.21.65V197a1,1,0,0,0,.24.68.75.75,0,0,0,1.18,0,1,1,0,0,0,.24-.65v-.53s0-.05,0-.05h1.26s0,0,0,.05V197a2.42,2.42,0,0,1-.29,1.17,2.31,2.31,0,0,1-.79.85A2,2,0,0,1,110.72,199.3Z" transform="translate(-12.1 -8.64)"/><path d="M117.12,199.19s-.05,0-.05-.06v-7.87s0,0,0,0h1.25s0,0,0,0l0,7.87s0,.06-.05.06Z" transform="translate(-12.1 -8.64)"/><path d="M124.81,199.3a2,2,0,0,1-1.09-.31,2.36,2.36,0,0,1-.79-.84,2.27,2.27,0,0,1-.3-1.15v-3.63a2.24,2.24,0,0,1,1.09-2,2.05,2.05,0,0,1,2.17,0,2.3,2.3,0,0,1,.79.82,2.37,2.37,0,0,1,.29,1.15V197a2.33,2.33,0,0,1-1.08,2A2,2,0,0,1,124.81,199.3Zm0-1.38a.79.79,0,0,0,.59-.28,1,1,0,0,0,.25-.64v-3.63a.91.91,0,0,0-.24-.64.74.74,0,0,0-.59-.27.77.77,0,0,0-.58.26.88.88,0,0,0-.25.65V197a.91.91,0,0,0,.25.65A.74.74,0,0,0,124.81,197.92Zm-.67-7.29s-.06,0,0,0l.89-2a.05.05,0,0,1,.06,0h1.26s.06,0,0,0l-1,2a.05.05,0,0,1-.06,0Z" transform="translate(-12.1 -8.64)"/><path d="M131.29,199.19c-.06,0-.09,0-.09-.08v-7.8a.08.08,0,0,1,.09-.09h1l1.88,4.51-.06-4.42c0-.06,0-.09.1-.09h1.1s.07,0,.07.09v7.81s0,.07,0,.07h-1L132.43,195l.07,4.13c0,.06,0,.09-.1.09Z" transform="translate(-12.1 -8.64)"/><path d="M144.75,199.19s-.05,0-.05-.06l0-7.87s0,0,0,0h1.36a.08.08,0,0,1,.07,0l1,1.51,1-1.51a.09.09,0,0,1,.07,0h1.37s.05,0,.05,0l0,7.87s0,.06-.05.06h-1.25s-.05,0-.05-.06v-5.84L147.22,195l-1.16-1.74v5.84s0,.06-.05.06Z" transform="translate(-12.1 -8.64)"/><path d="M156.07,199.3A2,2,0,0,1,155,199a2.31,2.31,0,0,1-.79-.85,2.27,2.27,0,0,1-.3-1.15l0-5.73s0,0,0,0h1.25s0,0,0,0V197a1,1,0,0,0,.24.66.74.74,0,0,0,.58.27.77.77,0,0,0,.6-.27,1,1,0,0,0,.24-.66v-5.73s0,0,0,0h1.24s.05,0,.05,0l0,5.73a2.42,2.42,0,0,1-.29,1.17,2.25,2.25,0,0,1-.79.83A2,2,0,0,1,156.07,199.3Z" transform="translate(-12.1 -8.64)"/><path d="M162.54,199.19s0,0,0-.06l0-7.86s0-.05.05-.05h1.24s0,0,0,.05v6.51h2.29s.05,0,.05.06v1.29s0,.06-.05.06Z" transform="translate(-12.1 -8.64)"/><path d="M170.26,199.19s0,0,0-.06V192.6h-1.45s-.05,0-.05-.06v-1.28s0,0,0,0H173s.05,0,.05,0v1.28s0,.06,0,.06h-1.46v6.53s0,.06,0,.06Z" transform="translate(-12.1 -8.64)"/><path d="M177,199.19a.05.05,0,0,1-.06-.06v-7.87s0,0,0,0h1.24s.05,0,.05,0v7.87s0,.06-.05.06Z" transform="translate(-12.1 -8.64)"/><path d="M182.69,199.19s-.05,0-.05-.06l0-7.87s0,0,.05,0h1.35a.09.09,0,0,1,.08,0l1,1.51,1-1.51a.1.1,0,0,1,.08,0h1.37s0,0,0,0l0,7.87s0,.06-.05.06h-1.25s0,0,0-.06v-5.84L185.15,195,184,193.29v5.84s0,.06-.05.06Z" transform="translate(-12.1 -8.64)"/><path d="M192,199.19s0,0,0-.06l0-7.87s0,0,0,0h3.57s0,0,0,.05v1.29s0,0,0,0h-2.28v1.79h2.28s0,0,0,0v1.3s0,0,0,0h-2.29v2h2.29s0,0,0,.06v1.3s0,.05,0,.05Z" transform="translate(-12.1 -8.64)"/><path d="M200,199.19s0,0,0-.06l0-7.87s0,0,0,0l2.08,0a2.16,2.16,0,0,1,1.12.3,2.31,2.31,0,0,1,1.1,2v3.29A2.37,2.37,0,0,1,204,198a2.28,2.28,0,0,1-.83.86,2.26,2.26,0,0,1-1.18.34Zm1.3-1.41H202a.92.92,0,0,0,.7-.3,1,1,0,0,0,.28-.71v-3.3a.89.89,0,0,0-.26-.63.8.8,0,0,0-.62-.26h-.78Z" transform="translate(-12.1 -8.64)"/><path d="M208.64,199.19s0,0,0-.06v-7.87s0,0,0,0h1.25s0,0,0,0v7.87s0,.06,0,.06Z" transform="translate(-12.1 -8.64)"/><path d="M213.9,199.13l1.38-7.87s0,0,.05,0h1.61a.05.05,0,0,1,.06,0l1.32,7.87s0,.06,0,.06H217s0,0,0-.06l-.12-.84h-1.51l-.13.84s0,.06,0,.06h-1.24S213.9,199.17,213.9,199.13Zm1.68-2.06h1.06l-.45-3.22-.07-.42,0,.42Z" transform="translate(-12.1 -8.64)"/><ellipse cx="199.75" cy="92.67" rx="60" ry="61.34"/><ellipse class="cls-6" cx="199.71" cy="92.63" rx="52.67" ry="53.85"/><ellipse class="cls-7" cx="200.19" cy="92.75" rx="19.06" ry="19.49"/><ellipse class="cls-8" cx="200.19" cy="92.75" rx="29.76" ry="30.42"/><ellipse class="cls-5" cx="200.09" cy="92.75" rx="7.26" ry="7.42"/><ellipse class="cls-9" cx="206.4" cy="109.94" rx="5.59" ry="5.72"/><ellipse class="cls-9" cx="224.54" cy="71.99" rx="5.59" ry="5.72"/><ellipse class="cls-9" cx="172.63" cy="76.96" rx="5.59" ry="5.72"/><ellipse cx="60" cy="92.65" rx="60" ry="61.34"/><ellipse class="cls-5" cx="60" cy="92.61" rx="52.67" ry="53.85"/><path d="M31.53,101.8S57,74.62,72.46,53.37c0,0,28.46,36.17,39.3,47.46" transform="translate(-12.1 -8.64)"/><path class="cls-6" d="M31.53,102.12s41.92-51.54,80.23-1.05C111.76,101.07,82.85,148.86,31.53,102.12Z" transform="translate(-12.1 -8.64)"/><ellipse class="cls-5" cx="60.36" cy="93.06" rx="13.01" ry="12.11"/><path d="M372.42,190.08a26.26,26.26,0,0,1,0,7.68s7.34-3.51,13.58,0a26.37,26.37,0,0,1,0-7.68S379.35,185.33,372.42,190.08Z" transform="translate(-12.1 -8.64)"/><ellipse cx="409.85" cy="183.83" rx="36.84" ry="37.66"/><ellipse class="cls-6" cx="409.83" cy="183.81" rx="32.34" ry="33.06"/><ellipse class="cls-10" cx="410.13" cy="183.88" rx="11.7" ry="11.96"/><ellipse class="cls-11" cx="410.13" cy="183.88" rx="18.27" ry="18.68"/><ellipse class="cls-5" cx="410.06" cy="183.88" rx="4.46" ry="4.56"/><ellipse class="cls-12" cx="413.93" cy="194.43" rx="3.43" ry="3.51"/><ellipse class="cls-12" cx="425.07" cy="171.13" rx="3.43" ry="3.51"/><ellipse class="cls-12" cx="393.2" cy="174.18" rx="3.43" ry="3.51"/><ellipse cx="324.05" cy="183.82" rx="36.84" ry="37.66"/><ellipse class="cls-5" cx="324.05" cy="183.79" rx="32.34" ry="33.06"/><path d="M311.24,192.77s15.65-16.69,25.13-29.73c0,0,17.47,22.21,24.13,29.14" transform="translate(-12.1 -8.64)"/><path class="cls-6" d="M311.24,193s25.74-31.64,49.26-.64C360.5,192.33,342.75,221.67,311.24,193Z" transform="translate(-12.1 -8.64)"/><ellipse class="cls-5" cx="324.28" cy="184.07" rx="7.99" ry="7.43"/><line class="cls-13" x1="455.6" y1="144.68" x2="455.6" y2="223"/><path d="M474.41,162.76a0,0,0,0,1-.05,0V155.2s0,0,0,0h1.2s0,0,0,0v7.51s0,0,0,0Z" transform="translate(-12.1 -8.64)"/><path d="M476.65,162.76s0,0,0,0v-1.24s0,0,0,0h1.21a0,0,0,0,1,0,0v1.24a0,0,0,0,1,0,0Z" transform="translate(-12.1 -8.64)"/><path d="M482.33,162.87a1.94,1.94,0,0,1-1.05-.3,2.24,2.24,0,0,1-.76-.8,2.08,2.08,0,0,1-.29-1.1v-3.46a2.11,2.11,0,0,1,.28-1.09,2.16,2.16,0,0,1,.77-.79,1.93,1.93,0,0,1,1-.3,1.89,1.89,0,0,1,1.05.3,2.14,2.14,0,0,1,.76.79,2.21,2.21,0,0,1,.28,1.09v3.46a2.28,2.28,0,0,1-.28,1.1,2.33,2.33,0,0,1-.76.8A2,2,0,0,1,482.33,162.87Zm0-1.32a.74.74,0,0,0,.57-.27.89.89,0,0,0,.24-.61l0-3.46a.86.86,0,0,0-.22-.61.72.72,0,0,0-.57-.25.74.74,0,0,0-.56.24.84.84,0,0,0-.24.62v3.46a.88.88,0,0,0,.24.62A.73.73,0,0,0,482.33,161.55Z" transform="translate(-12.1 -8.64)"/><path d="M487,162.87a2.07,2.07,0,0,1-1.07-.29,2,2,0,0,1-.75-.8,2.4,2.4,0,0,1-.27-1.14v-.5s0,0,0,0h1.21s0,0,0,.06v.49a1,1,0,0,0,.23.66.76.76,0,0,0,.57.25.7.7,0,0,0,.56-.28.92.92,0,0,0,.24-.63v-5.43s0-.05,0-.05H489s0,0,0,.06v5.42a2.23,2.23,0,0,1-.28,1.11,2.19,2.19,0,0,1-.76.81A1.82,1.82,0,0,1,487,162.87Z" transform="translate(-12.1 -8.64)"/><path d="M491.87,162.87a1.92,1.92,0,0,1-1.05-.3,2.27,2.27,0,0,1-.77-.8,2.18,2.18,0,0,1-.29-1.1v-3.46a2.22,2.22,0,0,1,1.05-1.88,2,2,0,0,1,2.1,0,2.19,2.19,0,0,1,.75.79,2.11,2.11,0,0,1,.28,1.09l0,3.46a2.18,2.18,0,0,1-.29,1.1,2.24,2.24,0,0,1-.76.8A1.92,1.92,0,0,1,491.87,162.87Zm0-1.32a.73.73,0,0,0,.56-.27.89.89,0,0,0,.24-.61v-3.46a.86.86,0,0,0-.22-.61.72.72,0,0,0-.57-.25.78.78,0,0,0-.57.24.88.88,0,0,0-.23.62v3.46a.91.91,0,0,0,.23.62A.76.76,0,0,0,491.87,161.55Z" transform="translate(-12.1 -8.64)"/><path d="M496.4,162.76s0,0,0,0l0-7.51a0,0,0,0,1,0,0h2.16a2.1,2.1,0,0,1,1.07.29,2.21,2.21,0,0,1,.77.78,2,2,0,0,1,.29,1.1,2,2,0,0,1-.12.72,2.17,2.17,0,0,1-.27.55,2.09,2.09,0,0,1-.29.33,2.28,2.28,0,0,1,.57,1.55l0,2.24s0,0-.06,0h-1.21s0,0,0,0v-2.26a1,1,0,0,0-.27-.69.9.9,0,0,0-.67-.29h-.71v3.22s0,0,0,0Zm1.26-4.58h.92a.81.81,0,0,0,.59-.25.83.83,0,0,0,.26-.61.85.85,0,0,0-.85-.85h-.92Z" transform="translate(-12.1 -8.64)"/><path d="M501.56,162.76a0,0,0,0,1-.05,0V155.2a0,0,0,0,1,.05,0H505s0,0,0,.06v1.22s0,0,0,0h-2.19v1.7H505a0,0,0,0,1,0,0v1.24s0,0,0,0h-2.2v1.92H505s0,0,0,.05v1.25s0,0,0,0Z" transform="translate(-12.1 -8.64)"/><path d="M506.05,162.76a0,0,0,0,1-.05,0v-7.5a.05.05,0,0,1,.06-.06h1.18a.05.05,0,0,1,.06.06v6.21h2.2s.05,0,.05.05v1.24a0,0,0,0,1-.05,0Z" transform="translate(-12.1 -8.64)"/><path d="M509.88,162.71l1.33-7.51s0,0,.05,0h1.55a.06.06,0,0,1,.06,0l1.27,7.51s0,0,0,0h-1.19a0,0,0,0,1,0,0l-.12-.8h-1.46l-.11.8a.06.06,0,0,1-.06,0h-1.18A0,0,0,0,1,509.88,162.71Zm1.62-2h1l-.44-3.07-.07-.41,0,.41Z" transform="translate(-12.1 -8.64)"/><path d="M516.55,162.87a2,2,0,0,1-1.06-.3,2.13,2.13,0,0,1-.75-.8,2.26,2.26,0,0,1-.28-1.13v-3.41a2.27,2.27,0,0,1,.27-1.1,2.13,2.13,0,0,1,.75-.8,2,2,0,0,1,1.06-.3,1.9,1.9,0,0,1,1.06.3,2,2,0,0,1,.75.79,2.18,2.18,0,0,1,.28,1.11v.5a0,0,0,0,1,0,.05h-1.2s0,0,0-.05v-.5a.91.91,0,0,0-.23-.62.73.73,0,0,0-.58-.26.67.67,0,0,0-.58.26,1,1,0,0,0-.21.62v3.41a1,1,0,0,0,.23.66.77.77,0,0,0,.56.25.75.75,0,0,0,.58-.28,1,1,0,0,0,.23-.63v-.5s0,0,0,0h1.21s0,0,0,0v.5a2.22,2.22,0,0,1-1,1.93A1.9,1.9,0,0,1,516.55,162.87Z" transform="translate(-12.1 -8.64)"/><path d="M519.48,162.76a0,0,0,0,1-.05,0V155.2s0,0,0,0h1.2s0,0,0,0l0,7.51a0,0,0,0,1,0,0Z" transform="translate(-12.1 -8.64)"/><path d="M523.65,162.87a1.94,1.94,0,0,1-1-.3,2.24,2.24,0,0,1-.76-.8,2.08,2.08,0,0,1-.29-1.1v-3.46a2.11,2.11,0,0,1,.28-1.09,2.09,2.09,0,0,1,.77-.79,1.93,1.93,0,0,1,1-.3,1.89,1.89,0,0,1,1.05.3,2.24,2.24,0,0,1,1,1.88v3.46a2.28,2.28,0,0,1-.28,1.1,2.33,2.33,0,0,1-.76.8A2,2,0,0,1,523.65,162.87Zm0-1.32a.72.72,0,0,0,.56-.27.89.89,0,0,0,.24-.61v-3.46a.86.86,0,0,0-.22-.61.72.72,0,0,0-.57-.25.74.74,0,0,0-.56.24.84.84,0,0,0-.24.62v3.46a.88.88,0,0,0,.24.62A.73.73,0,0,0,523.65,161.55Z" transform="translate(-12.1 -8.64)"/><path d="M526.66,162.76c-.06,0-.09,0-.09-.08v-7.44a.08.08,0,0,1,.09-.09h1l1.81,4.31-.06-4.22c0-.06,0-.09.1-.09h1.06s.06,0,.06.09v7.45c0,.05,0,.07-.05.07h-.94l-1.85-4,.07,3.93a.08.08,0,0,1-.09.09Z" transform="translate(-12.1 -8.64)"/><path d="M531.16,162.71l1.32-7.51a.06.06,0,0,1,.06,0h1.55s0,0,0,0l1.27,7.51s0,0,0,0h-1.19s0,0,0,0l-.12-.8h-1.45l-.12.8s0,0-.05,0H531.2S531.16,162.74,531.16,162.71Zm1.61-2h1l-.44-3.07-.06-.41,0,.41Z" transform="translate(-12.1 -8.64)"/><path d="M536.14,162.76s0,0,0,0l0-7.51s0,0,0,0h2a2,2,0,0,1,1.07.29,2.11,2.11,0,0,1,.78.79,2.18,2.18,0,0,1,.29,1.1v3.13a2.28,2.28,0,0,1-.3,1.16,2.33,2.33,0,0,1-.8.82,2.22,2.22,0,0,1-1.14.32Zm1.25-1.34h.66a.88.88,0,0,0,.67-.29.94.94,0,0,0,.27-.68v-3.14a.82.82,0,0,0-.25-.61.78.78,0,0,0-.59-.25l-.75,0Z" transform="translate(-12.1 -8.64)"/><path d="M542.85,162.87a1.94,1.94,0,0,1-1.05-.3,2.24,2.24,0,0,1-.76-.8,2.08,2.08,0,0,1-.29-1.1v-3.46a2.11,2.11,0,0,1,.28-1.09,2.16,2.16,0,0,1,.77-.79,1.93,1.93,0,0,1,1-.3,1.89,1.89,0,0,1,1,.3,2.14,2.14,0,0,1,.76.79,2.21,2.21,0,0,1,.28,1.09v3.46a2.17,2.17,0,0,1-.28,1.1,2.33,2.33,0,0,1-.76.8A2,2,0,0,1,542.85,162.87Zm0-1.32a.74.74,0,0,0,.57-.27.89.89,0,0,0,.24-.61v-3.46a.87.87,0,0,0-.23-.61.72.72,0,0,0-.57-.25.74.74,0,0,0-.56.24.84.84,0,0,0-.24.62v3.46a.88.88,0,0,0,.24.62A.73.73,0,0,0,542.85,161.55Z" transform="translate(-12.1 -8.64)"/><path d="M548.81,162.71l1.32-7.51a.06.06,0,0,1,.06,0h1.55s0,0,0,0l1.27,7.51s0,0,0,0h-1.19s0,0-.05,0l-.12-.8h-1.45l-.12.8s0,0-.05,0h-1.19S548.81,162.74,548.81,162.71Zm1.61-2h1l-.44-3.07-.06-.41-.05.41Z" transform="translate(-12.1 -8.64)"/><path d="M555.47,162.76s0,0,0,0v-7.5s0-.06,0-.06h1.19s.05,0,.05.06v6.21h2.2s.06,0,.06.05v1.24s0,0-.06,0Z" transform="translate(-12.1 -8.64)"/><path d="M559.31,162.71l1.32-7.51a.06.06,0,0,1,.06,0h1.55s0,0,0,0l1.27,7.51s0,0,0,0h-1.19a0,0,0,0,1-.05,0l-.12-.8h-1.45l-.12.8s0,0-.05,0h-1.19S559.31,162.74,559.31,162.71Zm1.61-2h1l-.44-3.07-.07-.41,0,.41Z" transform="translate(-12.1 -8.64)"/><path d="M474.41,175.87s-.05,0-.05-.05l0-7.51s0,0,0,0h2.06a2,2,0,0,1,1.55.61,2.34,2.34,0,0,1,.57,1.66,2.86,2.86,0,0,1-.3,1.35,2.28,2.28,0,0,1-.78.87,1.94,1.94,0,0,1-1,.31h-.82v2.75s0,.05-.05.05Zm1.25-4.13h.82a.74.74,0,0,0,.59-.33,1.38,1.38,0,0,0,.25-.87,1.07,1.07,0,0,0-.22-.7.77.77,0,0,0-.62-.27h-.82Z" transform="translate(-12.1 -8.64)"/><path d="M479.38,175.87s-.05,0-.05-.05v-7.51a0,0,0,0,1,0,0h1.2s0,0,0,0l0,7.51s0,.05-.05.05Z" transform="translate(-12.1 -8.64)"/><path d="M481.67,175.87c-.05,0-.08,0-.08-.07v-7.45s0-.08.08-.08h1l1.81,4.3-.05-4.22s0-.08.09-.08h1.06a.07.07,0,0,1,.07.08v7.46a.05.05,0,0,1-.06.06h-.94l-1.85-4,.08,3.94c0,.06,0,.08-.1.08Z" transform="translate(-12.1 -8.64)"/><path d="M487.61,175.87s-.05,0-.05-.05v-6.23h-1.39a0,0,0,0,1-.05-.05v-1.23s0,0,0,0h4.07s.05,0,.05,0v1.23s0,.05,0,.05h-1.4v6.23s0,.05-.05.05Z" transform="translate(-12.1 -8.64)"/><path d="M492.78,176a1.94,1.94,0,0,1-1-.3,2.22,2.22,0,0,1-1-1.9l0-5.47s0,0,0,0H492a0,0,0,0,1,0,0v5.47a.91.91,0,0,0,.23.62.74.74,0,0,0,1.13,0,.87.87,0,0,0,.23-.62v-5.47a0,0,0,0,1,0,0h1.2s.05,0,.05,0l0,5.47a2.21,2.21,0,0,1-.29,1.11,2.16,2.16,0,0,1-.76.8A1.92,1.92,0,0,1,492.78,176Z" transform="translate(-12.1 -8.64)"/><path d="M495.77,175.87s0,0,0-.05l0-7.51s0,0,.05,0H498a2,2,0,0,1,1.07.29,2.18,2.18,0,0,1,.77.77,2.06,2.06,0,0,1,.29,1.1,2.11,2.11,0,0,1-.12.73,2.35,2.35,0,0,1-.27.55,2.68,2.68,0,0,1-.29.33,2.29,2.29,0,0,1,.58,1.54v2.24s0,.05-.06.05h-1.21s0,0,0,0v-2.26a1,1,0,0,0-.27-.68.87.87,0,0,0-.67-.29H497v3.21s0,.05,0,.05ZM497,171.3H498a.8.8,0,0,0,.59-.26.85.85,0,0,0-.59-1.46H497Z" transform="translate(-12.1 -8.64)"/><path d="M500.52,175.82l1.33-7.51s0,0,0,0h1.55s.05,0,.05,0l1.28,7.51s0,.05,0,.05h-1.18s-.05,0-.06-.05l-.11-.8h-1.46l-.12.8s0,.05-.05.05h-1.19S500.52,175.86,500.52,175.82Zm1.62-2h1l-.44-3.07-.06-.4,0,.4Z" transform="translate(-12.1 -8.64)"/><path d="M509,176a1.94,1.94,0,0,1-1.05-.3,2.18,2.18,0,0,1-1-1.89v-.51a0,0,0,0,1,.05-.05h1.2s0,0,0,.05v.51a.85.85,0,0,0,.24.61.7.7,0,0,0,.56.26.73.73,0,0,0,.57-.26.89.89,0,0,0,.24-.61.82.82,0,0,0-.52-.7l-.53-.31-.68-.39a2.32,2.32,0,0,1-.88-.88,2.5,2.5,0,0,1-.28-1.2,2.15,2.15,0,0,1,.29-1.1,2.24,2.24,0,0,1,.76-.77,2,2,0,0,1,1-.28,2,2,0,0,1,1.05.29,2.24,2.24,0,0,1,.76.77,2.13,2.13,0,0,1,.28,1.09v.9s0,0,0,0h-1.2s0,0,0,0v-.9a.84.84,0,0,0-.24-.62.76.76,0,0,0-.56-.24.7.7,0,0,0-.56.26.85.85,0,0,0-.24.6,1.11,1.11,0,0,0,.15.6,1.38,1.38,0,0,0,.55.46l.21.12.33.18.33.18.18.1a2.55,2.55,0,0,1,.84.75,1.82,1.82,0,0,1,.31,1.09,2.22,2.22,0,0,1-.28,1.12,2.19,2.19,0,0,1-.76.78A1.94,1.94,0,0,1,509,176Z" transform="translate(-12.1 -8.64)"/><path d="M511.84,175.87s0,0,0-.05v-7.51s0,0,0,0h3.43a0,0,0,0,1,.05,0v1.23s0,0-.05,0h-2.19v1.71h2.19s.05,0,.05,0v1.23a0,0,0,0,1-.05.05h-2.2v1.91h2.2a0,0,0,0,1,.05.05v1.25s0,0-.05,0Z" transform="translate(-12.1 -8.64)"/><path d="M516.38,175.87s-.08,0-.08-.07v-7.45a.07.07,0,0,1,.08-.08h1l1.8,4.3,0-4.22s0-.08.1-.08h1s.07,0,.07.08v7.46s0,.06-.05.06h-.95l-1.84-4,.07,3.94c0,.06,0,.08-.1.08Z" transform="translate(-12.1 -8.64)"/><path d="M521.29,175.87s0,0,0-.05v-7.51s0,0,0,0h3.44a0,0,0,0,1,0,0v1.23a0,0,0,0,1,0,0h-2.2v1.71h2.2a0,0,0,0,1,0,0v1.23a0,0,0,0,1,0,.05h-2.21v1.91h2.21a0,0,0,0,1,0,.05v1.25a0,0,0,0,1,0,0Z" transform="translate(-12.1 -8.64)"/><path d="M527.54,176a2,2,0,0,1-1.07-.3,2.14,2.14,0,0,1-.75-.8,2.23,2.23,0,0,1-.28-1.13v-3.41a2.2,2.2,0,0,1,1-1.89,2.05,2.05,0,0,1,2.12,0,2.11,2.11,0,0,1,.75.79,2.23,2.23,0,0,1,.28,1.11v.51s0,0,0,0h-1.2s0,0,0,0v-.51a.93.93,0,0,0-.23-.62.76.76,0,0,0-.57-.26.68.68,0,0,0-.59.27,1,1,0,0,0-.21.61v3.41a.92.92,0,0,0,.24.66.74.74,0,0,0,1.13,0,1,1,0,0,0,.23-.63v-.5s0,0,0,0h1.21s0,0,0,0v.5a2.23,2.23,0,0,1-.28,1.13,2.16,2.16,0,0,1-.76.8A1.89,1.89,0,0,1,527.54,176Z" transform="translate(-12.1 -8.64)"/><path d="M530.47,175.87s-.06,0-.06-.05v-7.51s0,0,.05,0h1.19s.05,0,.05,0v7.51s0,.05-.05.05Z" transform="translate(-12.1 -8.64)"/><path d="M534.63,176a1.94,1.94,0,0,1-1-.3,2.21,2.21,0,0,1-.76-.79,2.11,2.11,0,0,1-.29-1.1v-3.47a2.13,2.13,0,0,1,.28-1.09,2.24,2.24,0,0,1,.77-.79,2,2,0,0,1,1-.29,2,2,0,0,1,1,.29,2.21,2.21,0,0,1,.76.79,2.24,2.24,0,0,1,.28,1.09v3.47a2.2,2.2,0,0,1-.28,1.1,2.3,2.3,0,0,1-.76.79A2,2,0,0,1,534.63,176Zm0-1.32a.74.74,0,0,0,.57-.27.86.86,0,0,0,.24-.6v-3.47a.89.89,0,0,0-.23-.61.76.76,0,0,0-1.13,0,.82.82,0,0,0-.24.61v3.47a.85.85,0,0,0,.24.61A.7.7,0,0,0,534.63,174.66Z" transform="translate(-12.1 -8.64)"/><path d="M539.18,175.87s-.06,0-.06-.05l0-7.51s0,0,0,0h2a1.89,1.89,0,0,1,1.07.28,2.18,2.18,0,0,1,1.07,1.89v3.14a2.24,2.24,0,0,1-.3,1.15,2.36,2.36,0,0,1-.8.83,2.21,2.21,0,0,1-1.14.31Zm1.25-1.34h.66a.88.88,0,0,0,.67-.28,1,1,0,0,0,.27-.68v-3.15a.85.85,0,0,0-.25-.61.75.75,0,0,0-.59-.24h-.75Z" transform="translate(-12.1 -8.64)"/><path d="M544.21,175.87s0,0,0-.05v-7.51a0,0,0,0,1,0,0h3.44a0,0,0,0,1,0,0v1.23a0,0,0,0,1,0,0h-2.2v1.71h2.2a0,0,0,0,1,0,0v1.23s0,.05,0,.05h-2.21v1.91h2.21s0,0,0,.05v1.25s0,0,0,0Z" transform="translate(-12.1 -8.64)"/><path d="M548.7,175.87s0,0,0-.05v-7.5s0,0,.06,0h1.18s.06,0,.06,0l0,6.21h2.21a0,0,0,0,1,.05.05v1.24s0,.05-.05.05Z" transform="translate(-12.1 -8.64)"/><path d="M553.94,175.82l1.33-7.51s0,0,.05,0h1.55s0,0,0,0l1.28,7.51s0,.05-.05.05H557s-.05,0-.06-.05l-.11-.8h-1.46l-.12.8s0,.05-.05.05H554S553.94,175.86,553.94,175.82Zm1.62-2h1l-.44-3.07-.06-.4,0,.4Z" transform="translate(-12.1 -8.64)"/><path d="M558.91,175.87s0,0,0-.05l0-7.51a0,0,0,0,1,0,0h2.16a2,2,0,0,1,1.07.29,2.18,2.18,0,0,1,.77.77,2.15,2.15,0,0,1,.29,1.1,2.11,2.11,0,0,1-.12.73,2.35,2.35,0,0,1-.27.55,2.68,2.68,0,0,1-.29.33,2.28,2.28,0,0,1,.57,1.54v2.24s0,.05,0,.05h-1.21s0,0,0,0v-2.26a1,1,0,0,0-.27-.68.87.87,0,0,0-.67-.29h-.71v3.21s0,.05,0,.05Zm1.26-4.57h.92a.89.89,0,0,0,.85-.87.86.86,0,0,0-.25-.6.82.82,0,0,0-.6-.25h-.92Z" transform="translate(-12.1 -8.64)"/><path d="M564.88,175.87s0,0,0-.05v-6.23h-1.39s-.06,0-.06-.05v-1.23s0,0,.05,0h4.06s0,0,0,0v1.23s0,.05,0,.05h-1.4v6.23s0,.05,0,.05Z" transform="translate(-12.1 -8.64)"/><path d="M568.14,175.87s0,0,0-.05v-7.51s0,0,0,0h1.2s0,0,0,0v7.51s0,.05,0,.05Z" transform="translate(-12.1 -8.64)"/><path d="M572.15,176a1.89,1.89,0,0,1-1-.3,2.22,2.22,0,0,1-1.05-1.89v-.51s0-.05.06-.05h1.19a0,0,0,0,1,.05.05v.51a.84.84,0,0,0,.23.61.74.74,0,0,0,1.13,0,.89.89,0,0,0,.24-.61.83.83,0,0,0-.51-.7l-.54-.31-.68-.39a2.36,2.36,0,0,1-.87-.88,2.51,2.51,0,0,1-.29-1.2,2.15,2.15,0,0,1,.29-1.1,2.18,2.18,0,0,1,.77-.77,1.94,1.94,0,0,1,1-.28,2,2,0,0,1,1,.29,2.16,2.16,0,0,1,.76.77,2.13,2.13,0,0,1,.28,1.09v.9s0,0,0,0H573s0,0,0,0v-.9a.84.84,0,0,0-.24-.62.75.75,0,0,0-1.12,0,.84.84,0,0,0-.23.6,1.11,1.11,0,0,0,.15.6,1.41,1.41,0,0,0,.54.46l.21.12.34.18.32.18.18.1a2.36,2.36,0,0,1,.84.75,1.82,1.82,0,0,1,.31,1.09,2.22,2.22,0,0,1-.28,1.12,2.11,2.11,0,0,1-.76.78A1.93,1.93,0,0,1,572.15,176Z" transform="translate(-12.1 -8.64)"/><path d="M576,175.87s0,0,0-.05v-6.23h-1.39s-.06,0-.06-.05v-1.23s0,0,.05,0h4.06s.05,0,.05,0v1.23s0,.05,0,.05h-1.4v6.23s0,.05,0,.05Z" transform="translate(-12.1 -8.64)"/><path d="M578.47,175.82l1.32-7.51a.05.05,0,0,1,.06,0h1.55a.05.05,0,0,1,.05,0l1.27,7.51s0,.05,0,.05h-1.19s0,0,0-.05l-.12-.8h-1.45l-.12.8s0,.05,0,.05h-1.19S578.47,175.86,578.47,175.82Zm1.61-2h1l-.44-3.07-.06-.4-.05.4Z" transform="translate(-12.1 -8.64)"/><path d="M474.41,189s-.05,0-.05-.06l0-7.5s0-.05,0-.05h2.06A2,2,0,0,1,478,182a2.32,2.32,0,0,1,.57,1.66,2.85,2.85,0,0,1-.3,1.34,2.21,2.21,0,0,1-.78.87,1.86,1.86,0,0,1-1,.31h-.82v2.75s0,.06-.05.06Zm1.25-4.13h.82a.73.73,0,0,0,.59-.34,1.37,1.37,0,0,0,.25-.86,1,1,0,0,0-.22-.7.75.75,0,0,0-.62-.28h-.82Z" transform="translate(-12.1 -8.64)"/><path d="M478.35,188.93l1.32-7.5a.06.06,0,0,1,.06-.05h1.55s0,0,.05.05l1.27,7.5s0,.06,0,.06h-1.19s0,0-.05-.06l-.12-.79h-1.45l-.12.79s0,.06-.05.06h-1.19S478.35,189,478.35,188.93Zm1.61-2h1l-.44-3.07-.06-.41-.05.41Z" transform="translate(-12.1 -8.64)"/><path d="M485.1,189.1a1.93,1.93,0,0,1-1-.3,2.27,2.27,0,0,1-.77-.8,2.23,2.23,0,0,1-.28-1.11l0-5.46s0-.05,0-.05h1.2s0,0,0,.05v5.46a.92.92,0,0,0,.23.63.74.74,0,0,0,.56.26.77.77,0,0,0,.58-.26.92.92,0,0,0,.23-.63v-5.46s0-.05,0-.05h1.2a0,0,0,0,1,0,.05l0,5.46a2.24,2.24,0,0,1-.28,1.12,2.22,2.22,0,0,1-.76.79A2,2,0,0,1,485.1,189.1Z" transform="translate(-12.1 -8.64)"/><path d="M488.1,189s-.05,0-.05-.06l0-7.49s0-.06.05-.06h1.19s.05,0,.05.06v6.2h2.2s.05,0,.05.06v1.23s0,.06-.05.06Z" transform="translate(-12.1 -8.64)"/><path d="M493.5,189s-.05,0-.05-.06l0-7.49s0-.06,0-.06h1.19s.05,0,.05.06V184l1.68-2.6s0-.05.07-.05h1.23s0,0,0,.05l-1.85,3L498,189s0,0-.06,0h-1.3a.07.07,0,0,1-.07,0l-1.44-3.22-.37.6v2.6s0,.06-.05.06Z" transform="translate(-12.1 -8.64)"/><path d="M498.51,189s0,0,0-.06v-7.49s0-.06,0-.06h1.19s0,0,0,.06v6.2H502a.05.05,0,0,1,.06.06v1.23a.05.05,0,0,1-.06.06Z" transform="translate(-12.1 -8.64)"/><path d="M502.75,189s0,0,0-.06v-7.5a0,0,0,0,1,0-.05h3.44s0,0,0,.06v1.22a0,0,0,0,1,0,.05H504v1.7h2.2a0,0,0,0,1,0,0v1.24s0,0,0,0H504v1.91h2.21s0,0,0,.06V189a0,0,0,0,1,0,0Z" transform="translate(-12.1 -8.64)"/><path d="M507.24,189s0,0,0-.06v-7.5a0,0,0,0,1,0-.05h3.44s0,0,0,.06v1.22a0,0,0,0,1,0,.05h-2.2v1.7h2.2a0,0,0,0,1,0,0v1.24s0,0,0,0h-2.21v1.91h2.21s0,0,0,.06V189a0,0,0,0,1,0,0Z" transform="translate(-12.1 -8.64)"/><path d="M511.73,189a0,0,0,0,1,0,0v-1.24s0,0,0,0h1.21s0,0,0,0V189a0,0,0,0,1,0,0Z" transform="translate(-12.1 -8.64)"/><path d="M474.21,202.1s0,0,0,0v-1.24s0,0,0,0l2.64-3.7a.89.89,0,0,0,.12-.26,1.11,1.11,0,0,0,.05-.28.87.87,0,0,0-.23-.58.68.68,0,0,0-.56-.27.72.72,0,0,0-.56.25.93.93,0,0,0-.23.65v.54a.05.05,0,0,1-.06.06h-1.19s-.05,0-.05-.06v-.54a2.15,2.15,0,0,1,.3-1.11,2.27,2.27,0,0,1,.77-.8,1.83,1.83,0,0,1,1-.29,1.94,1.94,0,0,1,1.05.3,2.27,2.27,0,0,1,.75.79,2.08,2.08,0,0,1,.28,1.06,2.33,2.33,0,0,1-.12.73,2.06,2.06,0,0,1-.34.66l-2,2.85h2.41a0,0,0,0,1,0,0v1.24s0,0,0,0Z" transform="translate(-12.1 -8.64)"/><path d="M479.1,202.1s-.05,0-.05,0v-1.23a0,0,0,0,1,.05-.05h1.2a0,0,0,0,1,.05.05v1.23s0,0-.05,0Z" transform="translate(-12.1 -8.64)"/><path d="M484.77,202.21a1.94,1.94,0,0,1-1-.3,2.24,2.24,0,0,1-.76-.8,2.2,2.2,0,0,1-.28-1.1l0-5.47s0,0,0,0h1.2s0,0,0,0V200a.91.91,0,0,0,.23.62.74.74,0,0,0,1.13,0,.87.87,0,0,0,.23-.62v-5.47s0,0,.05,0h1.19s.05,0,.05,0l0,5.47a2.21,2.21,0,0,1-.29,1.11,2.14,2.14,0,0,1-.75.8A2.07,2.07,0,0,1,484.77,202.21Z" transform="translate(-12.1 -8.64)"/><path d="M487.82,202.1c-.06,0-.09,0-.09-.07v-7.45c0-.05,0-.08.09-.08h1l1.81,4.3-.06-4.22c0-.05,0-.08.1-.08h1.06s.06,0,.06.08V202s0,.06-.05.06h-.94l-1.85-4L489,202s0,.08-.09.08Z" transform="translate(-12.1 -8.64)"/><path d="M494.32,202.1s-.05,0-.05,0v-7.51s0,0,0,0h1.2a0,0,0,0,1,0,0v7.51s0,0,0,0Z" transform="translate(-12.1 -8.64)"/><path d="M498.48,202.21a2,2,0,0,1-1.07-.3,2.3,2.3,0,0,1-.75-.8,2.26,2.26,0,0,1-.28-1.13v-3.41a2.2,2.2,0,0,1,.28-1.1,2.16,2.16,0,0,1,.74-.79,2,2,0,0,1,1.07-.3,1.94,1.94,0,0,1,1.06.29,2.16,2.16,0,0,1,.74.79,2.23,2.23,0,0,1,.28,1.11v.51s0,0,0,0h-1.2s0,0,0,0v-.51a.93.93,0,0,0-.23-.62.73.73,0,0,0-.57-.26.7.7,0,0,0-.59.27,1,1,0,0,0-.2.61V200a.92.92,0,0,0,.23.66.72.72,0,0,0,.56.25.69.69,0,0,0,.57-.28,1,1,0,0,0,.23-.63v-.5s0,0,0,0h1.21s0,0,0,0v.5a2.26,2.26,0,0,1-.28,1.13,2.3,2.3,0,0,1-.75.8A2,2,0,0,1,498.48,202.21Z" transform="translate(-12.1 -8.64)"/><path d="M503.33,202.21a1.94,1.94,0,0,1-1.05-.3,2.27,2.27,0,0,1-.77-.8,2.13,2.13,0,0,1-.28-1.09v-3.47a2.13,2.13,0,0,1,.28-1.09,2.21,2.21,0,0,1,.76-.79,1.93,1.93,0,0,1,1.05-.29,1.89,1.89,0,0,1,1.05.29,2.27,2.27,0,0,1,.75.79,2.14,2.14,0,0,1,.29,1.09V200a2.14,2.14,0,0,1-.29,1.09,2.16,2.16,0,0,1-.76.8A1.89,1.89,0,0,1,503.33,202.21Zm0-1.32a.73.73,0,0,0,.56-.27.88.88,0,0,0,.24-.6v-3.47a.88.88,0,0,0-.22-.61.72.72,0,0,0-.57-.25.78.78,0,0,0-.57.24.9.9,0,0,0-.23.62V200a.89.89,0,0,0,.23.61A.73.73,0,0,0,503.33,200.89Z" transform="translate(-12.1 -8.64)"/><path d="M506.33,202.1c-.05,0-.08,0-.08-.07v-7.45a.07.07,0,0,1,.08-.08h1l1.8,4.3,0-4.22c0-.05,0-.08.1-.08h1.06s.06,0,.06.08V202s0,.06,0,.06h-.94l-1.85-4,.07,3.94s0,.08-.1.08Z" transform="translate(-12.1 -8.64)"/><path d="M513.18,202.21a2,2,0,0,1-1.06-.3,2.25,2.25,0,0,1-.76-.8,2.14,2.14,0,0,1-.29-1.09v-3.47a2.22,2.22,0,0,1,1.05-1.88,2,2,0,0,1,2.1,0,2.27,2.27,0,0,1,.75.79,2.13,2.13,0,0,1,.28,1.09V200a2.13,2.13,0,0,1-.28,1.09,2.16,2.16,0,0,1-.76.8A1.94,1.94,0,0,1,513.18,202.21Zm0-1.32a.73.73,0,0,0,.56-.27.88.88,0,0,0,.24-.6v-3.47a.89.89,0,0,0-.23-.61.7.7,0,0,0-.56-.25.78.78,0,0,0-.57.24.85.85,0,0,0-.23.62V200a.84.84,0,0,0,.23.61A.73.73,0,0,0,513.18,200.89Z" transform="translate(-12.1 -8.64)"/><path d="M517.71,202.1s0,0,0,0l0-7.51s0,0,0,0h2.16a1.94,1.94,0,0,1,1.06.29,2.12,2.12,0,0,1,1.07,1.87,2.15,2.15,0,0,1-.4,1.27,1.75,1.75,0,0,1-.29.34,2.24,2.24,0,0,1,.58,1.54v2.24s0,0,0,0h-1.21s0,0,0,0v-2.26a1,1,0,0,0-.27-.68.88.88,0,0,0-.67-.29H519v3.21s0,0,0,0Zm1.26-4.58h.92a.87.87,0,0,0,.85-.86.86.86,0,0,0-.25-.6.82.82,0,0,0-.6-.25H519Z" transform="translate(-12.1 -8.64)"/><path d="M522.86,202.1s0,0,0,0v-7.51a0,0,0,0,1,0,0h3.44a0,0,0,0,1,0,.05v1.23a0,0,0,0,1,0,0h-2.19v1.7h2.19a0,0,0,0,1,0,0v1.23s0,0,0,0h-2.2v1.91h2.2s0,0,0,.05v1.25s0,0,0,0Z" transform="translate(-12.1 -8.64)"/><path d="M527.35,202.1s0,0,0,0v-7.5s0-.05.06-.05h1.18s.06,0,.06.05v6.21h2.2a0,0,0,0,1,.05.05v1.24s0,0-.05,0Z" transform="translate(-12.1 -8.64)"/><path d="M531.19,202.05l1.33-7.51s0,0,.05,0h1.55s0,0,0,0l1.28,7.51s0,0-.05,0h-1.18s-.05,0-.06,0l-.11-.8h-1.46l-.12.8s0,0-.05,0h-1.19S531.19,202.09,531.19,202.05Zm1.62-2h1l-.44-3.07-.06-.4,0,.4Z" transform="translate(-12.1 -8.64)"/><path d="M537.86,202.21a2,2,0,0,1-1.06-.3,2.24,2.24,0,0,1-.76-.8,2.36,2.36,0,0,1-.27-1.13v-3.41a2.3,2.3,0,0,1,.27-1.1,2.11,2.11,0,0,1,.75-.79,2,2,0,0,1,1.06-.3,1.92,1.92,0,0,1,1.06.29,2.27,2.27,0,0,1,.75.79,2.34,2.34,0,0,1,.28,1.11v.51s0,0-.05,0h-1.19s-.05,0-.05,0v-.51a.89.89,0,0,0-.23-.62.73.73,0,0,0-.57-.26.71.71,0,0,0-.59.27,1,1,0,0,0-.2.61V200a1,1,0,0,0,.23.66.72.72,0,0,0,.56.25.69.69,0,0,0,.57-.28.91.91,0,0,0,.23-.63v-.5s0,0,.05,0h1.2s.05,0,.05,0v.5a2.26,2.26,0,0,1-.29,1.13,2.22,2.22,0,0,1-.75.8A1.93,1.93,0,0,1,537.86,202.21Z" transform="translate(-12.1 -8.64)"/><path d="M540.79,202.1s0,0,0,0v-7.51s0,0,0,0H542s0,0,0,0v7.51s0,0,0,0Z" transform="translate(-12.1 -8.64)"/><path d="M545,202.21a1.94,1.94,0,0,1-1.05-.3,2.27,2.27,0,0,1-.77-.8,2.13,2.13,0,0,1-.28-1.09v-3.47a2.13,2.13,0,0,1,.28-1.09,2.21,2.21,0,0,1,.76-.79,1.93,1.93,0,0,1,1.05-.29,1.89,1.89,0,0,1,1,.29,2.27,2.27,0,0,1,.75.79,2.14,2.14,0,0,1,.29,1.09V200a2.14,2.14,0,0,1-.29,1.09,2.16,2.16,0,0,1-.76.8A1.89,1.89,0,0,1,545,202.21Zm0-1.32a.73.73,0,0,0,.56-.27.88.88,0,0,0,.24-.6v-3.47a.88.88,0,0,0-.22-.61.72.72,0,0,0-.57-.25.78.78,0,0,0-.57.24.9.9,0,0,0-.23.62V200a.89.89,0,0,0,.23.61A.73.73,0,0,0,545,200.89Z" transform="translate(-12.1 -8.64)"/><path d="M548,202.1c-.05,0-.08,0-.08-.07v-7.45a.07.07,0,0,1,.08-.08h1l1.8,4.3-.05-4.22c0-.05,0-.08.1-.08h1.05s.07,0,.07.08V202s0,.06,0,.06h-.94l-1.85-4,.07,3.94s0,.08-.1.08Z" transform="translate(-12.1 -8.64)"/><path d="M552.47,202.05l1.32-7.51a.05.05,0,0,1,.06,0h1.55a.05.05,0,0,1,.05,0l1.27,7.51s0,0,0,0h-1.19s0,0,0,0l-.12-.8h-1.45l-.12.8s0,0,0,0h-1.19S552.47,202.09,552.47,202.05Zm1.61-2h1l-.44-3.07-.07-.4,0,.4Z" transform="translate(-12.1 -8.64)"/><path d="M557.45,202.1s-.06,0-.06,0l0-7.51s0,0,0,0h2a1.89,1.89,0,0,1,1.07.28,2.18,2.18,0,0,1,1.07,1.89v3.14a2.27,2.27,0,0,1-.3,1.15,2.3,2.3,0,0,1-.81.83,2.15,2.15,0,0,1-1.13.31Zm1.25-1.34h.66a.87.87,0,0,0,.67-.29.92.92,0,0,0,.27-.67v-3.15a.85.85,0,0,0-.25-.61.75.75,0,0,0-.59-.24h-.75Z" transform="translate(-12.1 -8.64)"/><path d="M564.16,202.21a1.94,1.94,0,0,1-1-.3,2.27,2.27,0,0,1-.77-.8,2.13,2.13,0,0,1-.28-1.09v-3.47a2.13,2.13,0,0,1,.28-1.09,2.21,2.21,0,0,1,.76-.79,2,2,0,0,1,1-.29,1.89,1.89,0,0,1,1.05.29,2.27,2.27,0,0,1,.75.79,2.14,2.14,0,0,1,.29,1.09V200a2.14,2.14,0,0,1-.29,1.09,2.22,2.22,0,0,1-.75.8A2,2,0,0,1,564.16,202.21Zm0-1.32a.72.72,0,0,0,.56-.27.88.88,0,0,0,.24-.6v-3.47a.88.88,0,0,0-.22-.61.72.72,0,0,0-.57-.25.74.74,0,0,0-.56.24.86.86,0,0,0-.24.62V200a.85.85,0,0,0,.24.61A.7.7,0,0,0,564.16,200.89Z" transform="translate(-12.1 -8.64)"/><path d="M568.53,202.05l1.33-7.51s0,0,0,0h1.55a.05.05,0,0,1,.06,0l1.27,7.51s0,0,0,0h-1.19s0,0,0,0l-.12-.8h-1.46l-.11.8s0,0-.06,0h-1.18S568.53,202.09,568.53,202.05Zm1.62-2h1l-.43-3.07-.07-.4,0,.4Z" transform="translate(-12.1 -8.64)"/><path d="M575.19,202.1s0,0,0,0v-7.5s0-.05.06-.05h1.18s.06,0,.06.05v6.21h2.2a0,0,0,0,1,.05.05v1.24s0,0-.05,0Z" transform="translate(-12.1 -8.64)"/><path d="M579,202.05l1.33-7.51s0,0,0,0H582s0,0,0,0l1.28,7.51s0,0,0,0h-1.18s0,0-.06,0l-.11-.8h-1.46l-.12.8s0,0,0,0h-1.19S579,202.09,579,202.05Zm1.62-2h1l-.44-3.07-.06-.4,0,.4Z" transform="translate(-12.1 -8.64)"/><path d="M476.32,215.33a1.89,1.89,0,0,1-1.05-.3,2.14,2.14,0,0,1-.76-.79,2.18,2.18,0,0,1-.28-1.11v-3.46a2.13,2.13,0,0,1,.28-1.09,2.22,2.22,0,0,1,.76-.79,1.94,1.94,0,0,1,1.05-.3,2,2,0,0,1,1.06.29,2.08,2.08,0,0,1,.75.78,2.18,2.18,0,0,1,.28,1.11v.5s0,0-.05,0h-1.2s0,0,0,0v-.42a1,1,0,0,0-.23-.68.71.71,0,0,0-1.12,0,.82.82,0,0,0-.25.61v3.46a.88.88,0,0,0,.24.62.74.74,0,0,0,.56.26.76.76,0,0,0,.57-.26.88.88,0,0,0,.23-.62v-.53h-.75s-.05,0-.05-.06v-1.22s0-.06.05-.06h2s0,0,0,.06v1.81a2.18,2.18,0,0,1-.28,1.11,2.14,2.14,0,0,1-.76.79A1.89,1.89,0,0,1,476.32,215.33Z" transform="translate(-12.1 -8.64)"/><path d="M478.61,215.16l1.33-7.5s0,0,.05,0h1.55a.06.06,0,0,1,.06,0l1.27,7.5s0,.06,0,.06h-1.19s-.05,0-.05-.06l-.12-.79H480l-.11.79s0,.06-.06.06h-1.18S478.61,215.2,478.61,215.16Zm1.62-2h1l-.43-3.07-.07-.41,0,.41Z" transform="translate(-12.1 -8.64)"/><path d="M483.58,215.22s0,0,0-.06v-7.49a.05.05,0,0,1,.06-.06h1.18a.05.05,0,0,1,.06.06v6.2H487s0,0,0,.06v1.23s0,.06,0,.06Z" transform="translate(-12.1 -8.64)"/><path d="M487.42,215.16l1.33-7.5a0,0,0,0,1,.05,0h1.55a.06.06,0,0,1,.06,0l1.27,7.5s0,.06-.05.06h-1.18s-.05,0-.06-.06l-.11-.79h-1.46l-.12.79s0,.06-.05.06h-1.19S487.42,215.2,487.42,215.16Zm1.62-2h1l-.44-3.07-.06-.41,0,.41Z" transform="translate(-12.1 -8.64)"/><path d="M491.81,215.22s0,0,0-.06l1.22-3.9-1.2-3.6s0,0,0,0H493a.07.07,0,0,1,.07,0l.71,2.6.73-2.6a.07.07,0,0,1,.07,0h1.18s0,0,0,0l-1.19,3.59,1.2,3.91s0,.06,0,.06H494.6s-.05,0-.07-.06l-.73-2.81-.73,2.81a.07.07,0,0,1-.07.06Z" transform="translate(-12.1 -8.64)"/><path d="M496.51,215.22s-.05,0-.05-.06v-7.5s0,0,0,0h1.2s0,0,0,0v7.5s0,.06,0,.06Z" transform="translate(-12.1 -8.64)"/><path d="M498.34,215.16l1.32-7.5a.06.06,0,0,1,.06,0h1.55s0,0,.05,0l1.27,7.5s0,.06,0,.06h-1.19s0,0-.05-.06l-.12-.79h-1.45l-.12.79s0,.06-.05.06h-1.19S498.34,215.2,498.34,215.16Zm1.61-2h1l-.44-3.07-.06-.41-.05.41Z" transform="translate(-12.1 -8.64)"/><path d="M503.31,215.22a0,0,0,0,1,0,0v-1.24s0,0,0,0h1.21a0,0,0,0,1,0,0v1.24a0,0,0,0,1,0,0Z" transform="translate(-12.1 -8.64)"/><path d="M476.2,228.45a1.89,1.89,0,0,1-1-.3,2.24,2.24,0,0,1-.76-.8,2.18,2.18,0,0,1-.29-1.1v-.5a0,0,0,0,1,.05-.05h1.19s.06,0,.06.05v.5a.88.88,0,0,0,.22.61.73.73,0,0,0,.57.26.72.72,0,0,0,.59-.27,1,1,0,0,0,.21-.6V226a1,1,0,0,0-.21-.61.64.64,0,0,0-.53-.27h-.41a.05.05,0,0,1-.06-.06v-1.22a0,0,0,0,1,.05,0h.41a.69.69,0,0,0,.52-.23.85.85,0,0,0,.22-.6v-.15a.88.88,0,0,0-.23-.6.79.79,0,0,0-1.13,0,.84.84,0,0,0-.23.6v.52s0,.06-.05.06h-1.19s-.05,0-.05-.06v-.58a2,2,0,0,1,.3-1.07,2.1,2.1,0,0,1,.77-.74,1.9,1.9,0,0,1,1-.28,1.93,1.93,0,0,1,1.05.29,2.05,2.05,0,0,1,.75.77,2,2,0,0,1,.28,1.06v.17a2.09,2.09,0,0,1-.15.83,2.83,2.83,0,0,1-.43.67,2.75,2.75,0,0,1,.43.71,2.05,2.05,0,0,1,.16.81v.33a2.21,2.21,0,0,1-.28,1.11,2.16,2.16,0,0,1-.76.8A2,2,0,0,1,476.2,228.45Z" transform="translate(-12.1 -8.64)"/><path d="M479.11,228.33s-.05,0-.05,0v-1.23a0,0,0,0,1,.05-.05h1.2a0,0,0,0,1,.05.05v1.23s0,0-.05,0Z" transform="translate(-12.1 -8.64)"/><path d="M482.86,228.33s0,0,0-.05v-7.51s0,0,0,0h3.43s0,0,0,.05V222a0,0,0,0,1,0,0h-2.19v1.7h2.19s0,0,0,.05V225s0,.05,0,.05h-2.2V227h2.2s0,0,0,0v1.25s0,0,0,0Z" transform="translate(-12.1 -8.64)"/><path d="M487.35,228.33s0,0,0-.05v-7.5s0-.05.05-.05h1.19a0,0,0,0,1,.05.05V227h2.2s.06,0,.06,0v1.24s0,.05-.06.05Z" transform="translate(-12.1 -8.64)"/><path d="M494.67,228.44a1.93,1.93,0,0,1-1.06-.3,2.24,2.24,0,0,1-.76-.8,2.36,2.36,0,0,1-.27-1.13V222.8a2.3,2.3,0,0,1,.27-1.1,2.11,2.11,0,0,1,.75-.79,2.05,2.05,0,0,1,2.12,0,2.27,2.27,0,0,1,.75.79,2.31,2.31,0,0,1,.28,1.11v.51s0,0-.05,0h-1.19s0,0,0,0v-.51a.87.87,0,0,0-.23-.62.73.73,0,0,0-.57-.26.7.7,0,0,0-.59.27,1,1,0,0,0-.2.61v3.41a1,1,0,0,0,.23.66.72.72,0,0,0,.56.25.69.69,0,0,0,.57-.28.91.91,0,0,0,.23-.63v-.5s0,0,0,0h1.2s0,0,0,0v.5a2.26,2.26,0,0,1-.29,1.13,2.3,2.3,0,0,1-.75.8A1.93,1.93,0,0,1,494.67,228.44Z" transform="translate(-12.1 -8.64)"/><path d="M499.52,228.44a1.94,1.94,0,0,1-1-.3,2.16,2.16,0,0,1-.76-.8,2,2,0,0,1-.29-1.09v-3.47a2.13,2.13,0,0,1,.28-1.09,2.24,2.24,0,0,1,.77-.79,1.92,1.92,0,0,1,1-.29,1.89,1.89,0,0,1,1.05.29,2.21,2.21,0,0,1,.76.79,2.24,2.24,0,0,1,.28,1.09v3.47a2.13,2.13,0,0,1-.28,1.09,2.25,2.25,0,0,1-.76.8A2,2,0,0,1,499.52,228.44Zm0-1.32a.74.74,0,0,0,.57-.27.88.88,0,0,0,.24-.6v-3.47a.89.89,0,0,0-.23-.61.72.72,0,0,0-.57-.25.74.74,0,0,0-.56.24.86.86,0,0,0-.24.62v3.47a.85.85,0,0,0,.24.61A.73.73,0,0,0,499.52,227.12Z" transform="translate(-12.1 -8.64)"/><path d="M502.53,228.33c-.06,0-.09,0-.09-.07v-7.45c0-.05,0-.08.09-.08h1l1.81,4.3-.06-4.22c0-.05,0-.08.1-.08h1.06s.06,0,.06.08v7.46s0,.06,0,.06h-.94l-1.85-4,.07,3.94c0,.05,0,.08-.09.08Z" transform="translate(-12.1 -8.64)"/><path d="M508.46,228.33s0,0,0-.05v-6.23H507s0,0,0-.06v-1.22s0,0,0,0h4.06s.06,0,.06,0V222s0,.06,0,.06h-1.4v6.23s0,.05,0,.05Z" transform="translate(-12.1 -8.64)"/><path d="M513.54,228.44a1.94,1.94,0,0,1-1-.3,2.27,2.27,0,0,1-.77-.8,2.13,2.13,0,0,1-.28-1.09v-3.47a2.13,2.13,0,0,1,.28-1.09,2.21,2.21,0,0,1,.76-.79,1.93,1.93,0,0,1,1-.29,1.89,1.89,0,0,1,1.05.29,2.27,2.27,0,0,1,.75.79,2.14,2.14,0,0,1,.29,1.09v3.47a2.14,2.14,0,0,1-.29,1.09,2.16,2.16,0,0,1-.76.8A1.89,1.89,0,0,1,513.54,228.44Zm0-1.32a.73.73,0,0,0,.56-.27.88.88,0,0,0,.24-.6v-3.47a.88.88,0,0,0-.22-.61.72.72,0,0,0-.57-.25.78.78,0,0,0-.57.24.9.9,0,0,0-.23.62v3.47a.89.89,0,0,0,.23.61A.76.76,0,0,0,513.54,227.12Z" transform="translate(-12.1 -8.64)"/><path d="M516.49,228.33s0,0,0-.05l0-7.51s0,0,0,0h2.16a2,2,0,0,1,1.07.29,2.18,2.18,0,0,1,.77.77,2.15,2.15,0,0,1,.29,1.1,2.11,2.11,0,0,1-.12.73,2.47,2.47,0,0,1-.27.54,2.91,2.91,0,0,1-.29.34,2.26,2.26,0,0,1,.57,1.54v2.24s0,.05-.05.05h-1.21s0,0,0,0V226a1,1,0,0,0-.27-.69.89.89,0,0,0-.67-.28h-.71v3.21s0,.05,0,.05Zm1.26-4.58h.92a.87.87,0,0,0,.85-.86.86.86,0,0,0-.25-.6.82.82,0,0,0-.6-.25h-.92Z" transform="translate(-12.1 -8.64)"/><path d="M521.7,228.33c-.06,0-.09,0-.09-.07v-7.45c0-.05,0-.08.09-.08h1l1.81,4.3-.06-4.22c0-.05,0-.08.1-.08h1.06s.06,0,.06.08v7.46s0,.06,0,.06h-.94l-1.85-4,.07,3.94c0,.05,0,.08-.09.08Z" transform="translate(-12.1 -8.64)"/><path d="M528.54,228.44a1.94,1.94,0,0,1-1-.3,2.27,2.27,0,0,1-.77-.8,2.13,2.13,0,0,1-.28-1.09v-3.47a2.13,2.13,0,0,1,.28-1.09,2.21,2.21,0,0,1,.76-.79,1.93,1.93,0,0,1,1-.29,1.89,1.89,0,0,1,1.05.29,2.27,2.27,0,0,1,.75.79,2.14,2.14,0,0,1,.29,1.09v3.47a2.14,2.14,0,0,1-.29,1.09,2.16,2.16,0,0,1-.76.8A1.89,1.89,0,0,1,528.54,228.44Zm0-1.32a.73.73,0,0,0,.56-.27.88.88,0,0,0,.24-.6v-3.47a.88.88,0,0,0-.22-.61.72.72,0,0,0-.57-.25.78.78,0,0,0-.57.24.9.9,0,0,0-.23.62v3.47a.89.89,0,0,0,.23.61A.76.76,0,0,0,528.54,227.12Z" transform="translate(-12.1 -8.64)"/><path d="M533.08,228.33a0,0,0,0,1-.05-.05l0-7.51s0,0,.05,0h2a1.92,1.92,0,0,1,1.08.28,2.24,2.24,0,0,1,.77.79,2.08,2.08,0,0,1,.29,1.1V226a2.24,2.24,0,0,1-2.23,2.29Zm1.26-1.34H535a1,1,0,0,0,.94-1v-3.15a.84.84,0,0,0-.25-.61.77.77,0,0,0-.6-.24h-.74Z" transform="translate(-12.1 -8.64)"/><path d="M538.12,228.33s0,0,0-.05v-7.51s0,0,0,0h3.43a0,0,0,0,1,.05.05V222a0,0,0,0,1-.05,0h-2.19v1.7h2.19a0,0,0,0,1,.05.05V225a0,0,0,0,1,0,.05h-2.2V227h2.2a0,0,0,0,1,0,0v1.25s0,0,0,0Z" transform="translate(-12.1 -8.64)"/><path d="M546.12,228.44a1.94,1.94,0,0,1-1-.3,2.27,2.27,0,0,1-.77-.8,2.31,2.31,0,0,1-.28-1.11l0-5.46a0,0,0,0,1,0,0h1.2s0,0,0,0v5.46a.88.88,0,0,0,.24.63.73.73,0,0,0,.56.26.76.76,0,0,0,.57-.26.92.92,0,0,0,.23-.63v-5.46s0,0,0,0h1.2s0,0,0,0l0,5.46a2.22,2.22,0,0,1-.28,1.12,2.24,2.24,0,0,1-.76.8A2,2,0,0,1,546.12,228.44Z" transform="translate(-12.1 -8.64)"/><path d="M549.16,228.33s-.08,0-.08-.07v-7.45a.07.07,0,0,1,.08-.08h1l1.8,4.3,0-4.22c0-.05,0-.08.09-.08H553c.05,0,.07,0,.07.08v7.46a.05.05,0,0,1-.06.06h-.94l-1.85-4,.08,3.94c0,.05,0,.08-.1.08Z" transform="translate(-12.1 -8.64)"/><path d="M553.66,228.28l1.33-7.51a.05.05,0,0,1,0,0h1.55a.05.05,0,0,1,.06,0l1.27,7.51s0,.05,0,.05h-1.19a0,0,0,0,1-.05-.05l-.12-.8h-1.45l-.12.8a.06.06,0,0,1-.06.05h-1.18A0,0,0,0,1,553.66,228.28Zm1.62-2h1l-.44-3.07-.07-.4,0,.4Z" transform="translate(-12.1 -8.64)"/><path d="M560.2,228.44a2,2,0,0,1-1.06-.3,2.22,2.22,0,0,1-1-1.89v-.51a0,0,0,0,1,0-.05h1.2s0,0,0,.05v.51a.85.85,0,0,0,.24.61.76.76,0,0,0,.57.26.73.73,0,0,0,.56-.26.89.89,0,0,0,.24-.61.83.83,0,0,0-.51-.7l-.54-.31-.68-.39a2.32,2.32,0,0,1-.88-.88,2.62,2.62,0,0,1-.28-1.2,2.15,2.15,0,0,1,.29-1.1,2.24,2.24,0,0,1,.76-.77,2,2,0,0,1,1-.28,1.92,1.92,0,0,1,1,.29,2.16,2.16,0,0,1,.76.77,2.13,2.13,0,0,1,.28,1.09v.9s0,0,0,0H561s0,0,0,0v-.9a.84.84,0,0,0-.24-.62.74.74,0,0,0-.55-.24.75.75,0,0,0-.57.25.89.89,0,0,0-.24.61,1.11,1.11,0,0,0,.15.6,1.47,1.47,0,0,0,.55.46l.21.12.33.18.33.18.18.1a2.55,2.55,0,0,1,.84.75,1.82,1.82,0,0,1,.31,1.09,2.24,2.24,0,0,1-.28,1.12,2.11,2.11,0,0,1-.76.78A1.93,1.93,0,0,1,560.2,228.44Z" transform="translate(-12.1 -8.64)"/><path d="M566.58,228.44a2,2,0,0,1-1.05-.29,2.22,2.22,0,0,1-.75-.8,2.18,2.18,0,0,1-.29-1.1v-3.47a2.22,2.22,0,0,1,1-1.88,1.88,1.88,0,0,1,1-.29,1.94,1.94,0,0,1,1.06.29,2.11,2.11,0,0,1,.76.78,2.24,2.24,0,0,1,.27,1.1v.5s0,.05,0,.05h-1.2s0,0,0-.05v-.41a1,1,0,0,0-.23-.69.72.72,0,0,0-1.12,0,.87.87,0,0,0-.24.61v3.47a.89.89,0,0,0,.23.61.74.74,0,0,0,.56.26.72.72,0,0,0,.57-.25.91.91,0,0,0,.23-.62v-.54h-.75a0,0,0,0,1,0-.05v-1.23s0-.05,0-.05h2s0,0,0,.05v1.82a2.17,2.17,0,0,1-.28,1.1,2.22,2.22,0,0,1-.75.8A2,2,0,0,1,566.58,228.44Z" transform="translate(-12.1 -8.64)"/><path d="M568.88,228.28l1.32-7.51a.05.05,0,0,1,.06,0h1.55a.05.05,0,0,1,.05,0l1.27,7.51s0,.05,0,.05H571.9s0,0,0-.05l-.12-.8h-1.45l-.12.8s0,.05,0,.05h-1.19S568.88,228.31,568.88,228.28Zm1.61-2h1l-.44-3.07-.07-.4,0,.4Z" transform="translate(-12.1 -8.64)"/><path d="M573.86,228.33s-.06,0-.06-.05l0-7.51s0,0,0,0h3.42s.05,0,.05,0V222a0,0,0,0,1,0,0h-2.19v1.69h2.19s0,0,0,.06V225s0,.05-.05.05h-2.19v3.2a0,0,0,0,1-.05.05Z" transform="translate(-12.1 -8.64)"/><path d="M577.31,228.28l1.33-7.51s0,0,.05,0h1.55s0,0,0,0l1.28,7.51s0,.05-.05.05h-1.18a.06.06,0,0,1-.06-.05l-.11-.8h-1.46l-.12.8a0,0,0,0,1-.05.05h-1.19S577.31,228.31,577.31,228.28Zm1.62-2h1l-.44-3.07-.06-.4,0,.4Z" transform="translate(-12.1 -8.64)"/><path d="M583.84,228.44a1.94,1.94,0,0,1-1.05-.3,2.16,2.16,0,0,1-.76-.8,2.13,2.13,0,0,1-.28-1.09v-.51s0-.05,0-.05H583s0,0,0,.05v.51a.85.85,0,0,0,.24.61.73.73,0,0,0,.56.26.76.76,0,0,0,.57-.26.88.88,0,0,0,.23-.61.83.83,0,0,0-.51-.7l-.53-.31-.69-.39A2.36,2.36,0,0,1,582,224a2.5,2.5,0,0,1-.28-1.2,2.06,2.06,0,0,1,.29-1.1,2.16,2.16,0,0,1,.76-.77,2,2,0,0,1,1-.28,1.88,1.88,0,0,1,1,.29,2.15,2.15,0,0,1,1,1.86v.9s0,0,0,0h-1.19s-.05,0-.05,0v-.9a.84.84,0,0,0-.23-.62.76.76,0,0,0-.56-.24.72.72,0,0,0-.56.25.89.89,0,0,0-.24.61,1.11,1.11,0,0,0,.15.6,1.47,1.47,0,0,0,.55.46l.2.12.34.18.33.18.17.1a2.49,2.49,0,0,1,.85.75,1.89,1.89,0,0,1,.31,1.09,2.35,2.35,0,0,1-.28,1.12,2.19,2.19,0,0,1-.76.78A1.94,1.94,0,0,1,583.84,228.44Z" transform="translate(-12.1 -8.64)"/><path d="M586.41,228.33s0,0,0,0v-1.23s0-.05,0-.05h1.21s0,0,0,.05v1.23s0,0,0,0Z" transform="translate(-12.1 -8.64)"/></svg>