<svg id="Capa_1" data-name="Capa 1" xmlns="http://www.w3.org/2000/svg" viewBox="0 0 583 223.03"><defs><style>.cls-1,.cls-18,.cls-2,.cls-21,.cls-24,.cls-3{stroke:#000;}.cls-1,.cls-18,.cls-19,.cls-2,.cls-20,.cls-21,.cls-22,.cls-23,.cls-24,.cls-3,.cls-4{stroke-miterlimit:10;}.cls-1,.cls-2,.cls-3{stroke-width:3px;}.cls-2{fill:#900;}.cls-12,.cls-3{fill:#fff;}.cls-18,.cls-19,.cls-21,.cls-22,.cls-24,.cls-4{fill:none;}.cls-4{stroke:#900;}.cls-18,.cls-19,.cls-20,.cls-4{stroke-width:5px;}.cls-5{font-size:16.39px;letter-spacing:0.17em;}.cls-13,.cls-25,.cls-5{font-family:Staatliches-Regular, Staatliches;}.cls-6{letter-spacing:0.16em;}.cls-7{letter-spacing:0.17em;}.cls-8{letter-spacing:0.13em;}.cls-9{letter-spacing:0.15em;}.cls-10{letter-spacing:0.15em;}.cls-11,.cls-20,.cls-23{fill:#820000;}.cls-13{font-size:11.45px;letter-spacing:0.3em;}.cls-14{letter-spacing:0.3em;}.cls-15{letter-spacing:0.3em;}.cls-16{letter-spacing:0.2em;}.cls-17{letter-spacing:0.31em;}.cls-19,.cls-22{stroke:#820000;}.cls-20,.cls-23{stroke:#fff;}.cls-21,.cls-22{stroke-width:2px;}.cls-24{stroke-width:4px;}.cls-25{font-size:10.93px;}.cls-26{letter-spacing:-0.02em;}.cls-27{letter-spacing:-0.02em;}.cls-28{letter-spacing:0.02em;}.cls-29{letter-spacing:0.01em;}.cls-30{letter-spacing:0.01em;}.cls-31{letter-spacing:-0.02em;}.cls-32{letter-spacing:-0.04em;}.cls-33{letter-spacing:-0.02em;}.cls-34{letter-spacing:0em;}.cls-35{letter-spacing:-0.04em;}.cls-36{letter-spacing:-0.05em;}.cls-37{letter-spacing:-0.01em;}.cls-38{letter-spacing:-0.04em;}.cls-39{letter-spacing:-0.02em;}.cls-40{letter-spacing:-0.01em;}.cls-41{letter-spacing:-0.06em;}.cls-42{letter-spacing:-0.03em;}</style></defs><title>logotipo indicaciones</title><rect class="cls-1" x="387.44" y="38.57" width="49.89" height="51"/><path d="M456,61.87s0,0,0-.06l0-7.5s0-.05,0-.05h2.16a2,2,0,0,1,1.06.29,2.16,2.16,0,0,1,.78.78,2.12,2.12,0,0,1,.29,1.1,2,2,0,0,1-.12.72,2.17,2.17,0,0,1-.28.55,1.68,1.68,0,0,1-.29.33,2.24,2.24,0,0,1,.58,1.54v2.24s0,.06-.05.06H458.9s0,0,0,0V59.57a.93.93,0,0,0-.28-.68.88.88,0,0,0-.66-.29h-.71v3.21s0,.06,0,.06Zm1.26-4.58h.92a.81.81,0,0,0,.59-.25.82.82,0,0,0,.25-.61.87.87,0,0,0-.84-.86h-.92Z" transform="translate(-12.1 -8.64)"/><path d="M461.1,58.62s0,0,0,0V57.35s0-.05,0-.05h1.21s0,0,0,.05v1.23s0,0,0,0Zm0,3.25a0,0,0,0,1,0,0V60.59s0,0,0,0h1.21s0,0,0,0v1.24a0,0,0,0,1,0,0Z" transform="translate(-12.1 -8.64)"/><path d="M467,62a2.35,2.35,0,0,1-1.2-.3,2.17,2.17,0,0,1-.82-.8,2.09,2.09,0,0,1-.3-1.1V56.32a2.09,2.09,0,0,1,.3-1.1,2.13,2.13,0,0,1,.82-.78,2.53,2.53,0,0,1,2.39,0,2.25,2.25,0,0,1,.81.78,2.18,2.18,0,0,1,.29,1.1v3.46a2.18,2.18,0,0,1-.29,1.1,2.3,2.3,0,0,1-.81.8A2.39,2.39,0,0,1,467,62Zm1-2.2V56.32a.78.78,0,0,0-.28-.63,1.23,1.23,0,0,0-1.46,0,.78.78,0,0,0-.28.63v3.46a.77.77,0,0,0,.28.64,1.07,1.07,0,0,0,.73.24,1.12,1.12,0,0,0,.74-.24A.8.8,0,0,0,468,59.78Z" transform="translate(-12.1 -8.64)"/><path d="M457.86,75.09a1.93,1.93,0,0,1-1.05-.29,2.27,2.27,0,0,1-.75-.79,2.21,2.21,0,0,1-.28-1.11V69.43a2.19,2.19,0,0,1,.28-1.09,2.21,2.21,0,0,1,.76-.79,2.06,2.06,0,0,1,2.11,0,2.17,2.17,0,0,1,1,1.88v.51s0,0-.06,0h-1.19a0,0,0,0,1,0,0v-.42a1,1,0,0,0-.23-.69.71.71,0,0,0-.57-.27.75.75,0,0,0-.55.26.89.89,0,0,0-.24.61V72.9a.85.85,0,0,0,.24.61.69.69,0,0,0,.55.26.72.72,0,0,0,.57-.25.87.87,0,0,0,.23-.62v-.54h-.74s-.06,0-.06,0V71.08s0,0,.06,0h2a0,0,0,0,1,0,0V72.9a2.21,2.21,0,0,1-.29,1.11,2.19,2.19,0,0,1-.75.79A1.92,1.92,0,0,1,457.86,75.09Z" transform="translate(-12.1 -8.64)"/><path d="M460.76,71.74s0,0,0,0V70.46s0,0,0,0H462s0,0,0,0v1.23s0,0,0,0Zm0,3.24s0,0,0,0V73.71s0,0,0,0H462s0,0,0,0v1.23s0,0,0,0Z" transform="translate(-12.1 -8.64)"/><path d="M466.66,75.09a2.41,2.41,0,0,1-1.21-.3,2.16,2.16,0,0,1-1.11-1.89V69.43a2.05,2.05,0,0,1,.3-1.09,2.19,2.19,0,0,1,.81-.79,2.48,2.48,0,0,1,1.2-.29,2.42,2.42,0,0,1,1.2.29,2.27,2.27,0,0,1,.81.79,2.14,2.14,0,0,1,.29,1.09V72.9a2.11,2.11,0,0,1-1.11,1.89A2.32,2.32,0,0,1,466.66,75.09Zm1-2.19V69.43a.8.8,0,0,0-.28-.62,1.25,1.25,0,0,0-1.47,0,.8.8,0,0,0-.27.62V72.9a.81.81,0,0,0,.27.64,1.29,1.29,0,0,0,1.47,0A.79.79,0,0,0,467.68,72.9Z" transform="translate(-12.1 -8.64)"/><path d="M456,88.1s0,0,0-.06l0-7.5s0-.05,0-.05h2a2,2,0,0,1,1.09.3,2.16,2.16,0,0,1,.76.8,2.06,2.06,0,0,1,.28,1.07,1.86,1.86,0,0,1-.21.87,2.27,2.27,0,0,1-.49.66,2.44,2.44,0,0,1,.48.73,2.36,2.36,0,0,1,.17.87,2.28,2.28,0,0,1-.3,1.16,2.33,2.33,0,0,1-.81.84,2.09,2.09,0,0,1-1.13.31Zm1.25-1.33h.66a.92.92,0,0,0,.67-.29,1,1,0,0,0,.27-.69,1,1,0,0,0-.94-1h-.65Zm0-3.26H458a.78.78,0,0,0,.61-.27.89.89,0,0,0,.23-.58.82.82,0,0,0-.25-.61.79.79,0,0,0-.59-.26h-.81Z" transform="translate(-12.1 -8.64)"/><path d="M460.91,84.85s0,0,0,0V83.57a0,0,0,0,1,0,0h1.21a0,0,0,0,1,0,0v1.24s0,0,0,0Zm0,3.25a0,0,0,0,1,0,0V86.82s0,0,0,0h1.21s0,0,0,0v1.24a0,0,0,0,1,0,0Z" transform="translate(-12.1 -8.64)"/><path d="M466.81,88.21a2.39,2.39,0,0,1-1.21-.3,2.25,2.25,0,0,1-.82-.8,2.18,2.18,0,0,1-.29-1.1V82.55a2.08,2.08,0,0,1,1.11-1.88,2.38,2.38,0,0,1,1.2-.3,2.32,2.32,0,0,1,1.2.3,2.25,2.25,0,0,1,.81.78,2.18,2.18,0,0,1,.29,1.1V86a2.18,2.18,0,0,1-.29,1.1,2.25,2.25,0,0,1-.82.8A2.32,2.32,0,0,1,466.81,88.21Zm1-2.2V82.55a.81.81,0,0,0-.28-.63,1.25,1.25,0,0,0-1.47,0,.81.81,0,0,0-.28.63V86a.82.82,0,0,0,.28.64,1.25,1.25,0,0,0,1.47,0A.79.79,0,0,0,467.83,86Z" transform="translate(-12.1 -8.64)"/><rect class="cls-2" x="485.89" y="39.03" width="49.89" height="51"/><path d="M554.4,62.32s0,0,0,0l0-7.51s0,0,0,0h2.16a2,2,0,0,1,1.06.29,2.3,2.3,0,0,1,.78.77,2.14,2.14,0,0,1,.28,1.1,2.11,2.11,0,0,1-.11.73,2.36,2.36,0,0,1-.28.55,2,2,0,0,1-.29.33A2.24,2.24,0,0,1,558.6,60v2.24s0,0-.06,0h-1.2s-.05,0-.05,0V60a1,1,0,0,0-.27-.68.85.85,0,0,0-.67-.29h-.7v3.21s0,0,0,0Zm1.26-4.57h.92a.8.8,0,0,0,.58-.26.78.78,0,0,0,.26-.61.82.82,0,0,0-.25-.6.79.79,0,0,0-.59-.25h-.92Z" transform="translate(-12.1 -8.64)"/><path d="M559.55,59.08a0,0,0,0,1,0,0V57.8s0,0,0,0h1.21s0,0,0,0V59a0,0,0,0,1,0,0Zm0,3.24s0,0,0,0V61.05s0,0,0,0h1.21s0,0,0,0v1.23s0,0,0,0Z" transform="translate(-12.1 -8.64)"/><path d="M563.31,62.32s0,0,0,0V54.76s0,0,0,0h1.2s0,0,0,0v7.51s0,0,0,0Z" transform="translate(-12.1 -8.64)"/><path d="M567.42,62.43a1.93,1.93,0,0,1-1-.29,2.3,2.3,0,0,1-.77-.78,2.09,2.09,0,0,1-.29-1.06V60a0,0,0,0,1,.05,0h1.21s0,0,0,0v.25a.88.88,0,0,0,.24.62.75.75,0,0,0,.57.25.7.7,0,0,0,.56-.26.89.89,0,0,0,.23-.61v-.75a.78.78,0,0,0-.24-.57.84.84,0,0,0-.6-.22.94.94,0,0,0-.76.37l0,0L565.45,59s-.05,0-.05,0l.12-3,.07-1.19s0,0,0,0h3.59s0,0,0,0V56s0,.06,0,.06h-2.5l-.05,1.51a1.13,1.13,0,0,1,.34-.11,1.72,1.72,0,0,1,.37,0,2.1,2.1,0,0,1,1.07.29,2.27,2.27,0,0,1,.77.77,2,2,0,0,1,.29,1.06v.75a2.22,2.22,0,0,1-1,1.9A1.94,1.94,0,0,1,567.42,62.43Z" transform="translate(-12.1 -8.64)"/><path d="M572,62.44a1.91,1.91,0,0,1-1-.3,2.22,2.22,0,0,1-1-1.9v-.49s0-.06,0-.06h1.2s0,0,0,.06v.49a.93.93,0,0,0,.23.62.69.69,0,0,0,.56.25.71.71,0,0,0,.59-.27.93.93,0,0,0,.21-.6v-.3a1,1,0,0,0-.2-.61.65.65,0,0,0-.53-.27h-.42s0,0,0-.06V57.78s0-.05,0-.05H572a.7.7,0,0,0,.51-.22.85.85,0,0,0,.22-.61v-.15a.8.8,0,0,0-.23-.59.76.76,0,0,0-1.13,0,.84.84,0,0,0-.23.59v.53s0,0,0,0h-1.2s0,0,0,0V56.7a2,2,0,0,1,.29-1.07,2.13,2.13,0,0,1,.77-.75,1.93,1.93,0,0,1,1-.28,1.89,1.89,0,0,1,1,.29,2.16,2.16,0,0,1,.76.77,2.12,2.12,0,0,1,.28,1.06v.17a2.08,2.08,0,0,1-.16.83,2.54,2.54,0,0,1-.43.67,3,3,0,0,1,.44.72,2.15,2.15,0,0,1,.16.8v.33a2.19,2.19,0,0,1-.29,1.11,2.09,2.09,0,0,1-.76.8A1.89,1.89,0,0,1,572,62.44Z" transform="translate(-12.1 -8.64)"/><path d="M556.31,75.55a1.89,1.89,0,0,1-1-.3,2.24,2.24,0,0,1-1-1.9V69.89a2.22,2.22,0,0,1,1-1.88,1.89,1.89,0,0,1,1-.3,2,2,0,0,1,1.06.29,2.15,2.15,0,0,1,1,1.89v.5s0,0-.06,0h-1.2a0,0,0,0,1,0,0V70a1,1,0,0,0-.23-.69.69.69,0,0,0-.57-.28.71.71,0,0,0-.55.27.85.85,0,0,0-.24.61v3.46a.91.91,0,0,0,.23.62.75.75,0,0,0,1.13,0,.92.92,0,0,0,.23-.63v-.53h-.75s-.05,0-.05-.06V71.54s0-.06.05-.06h2s0,0,0,.06v1.81a2.24,2.24,0,0,1-1,1.9A2,2,0,0,1,556.31,75.55Z" transform="translate(-12.1 -8.64)"/><path d="M559.21,72.19s-.05,0-.05,0V70.92a0,0,0,0,1,.05,0h1.2a0,0,0,0,1,.05,0v1.23s0,0-.05,0Zm0,3.25a0,0,0,0,1-.05,0V74.16s0,0,.05,0h1.2s.05,0,.05,0V75.4a0,0,0,0,1-.05,0Z" transform="translate(-12.1 -8.64)"/><path d="M565.11,75.55a2.39,2.39,0,0,1-1.21-.3,2.25,2.25,0,0,1-.82-.8,2.18,2.18,0,0,1-.29-1.1V69.89A2.08,2.08,0,0,1,563.91,68a2.55,2.55,0,0,1,2.4,0,2.14,2.14,0,0,1,.8.78,2.09,2.09,0,0,1,.3,1.1v3.46a2.09,2.09,0,0,1-.3,1.1,2.15,2.15,0,0,1-.81.8A2.35,2.35,0,0,1,565.11,75.55Zm1-2.2V69.89a.82.82,0,0,0-.27-.63,1.25,1.25,0,0,0-1.47,0,.83.83,0,0,0-.28.63v3.46a.8.8,0,0,0,.28.64,1.25,1.25,0,0,0,1.47,0A.77.77,0,0,0,566.12,73.35Z" transform="translate(-12.1 -8.64)"/><path d="M554.4,88.55s0,0,0,0l0-7.51s0,0,0,0h2.05a2,2,0,0,1,1.09.3,2.18,2.18,0,0,1,1,1.86,1.87,1.87,0,0,1-.21.88,2.24,2.24,0,0,1-.5.65,2.28,2.28,0,0,1,.65,1.61,2.31,2.31,0,0,1-.3,1.16,2.2,2.2,0,0,1-.8.83,2.11,2.11,0,0,1-1.13.31Zm1.25-1.33h.66a.88.88,0,0,0,.66-.29,1,1,0,0,0,0-1.36.87.87,0,0,0-.66-.28h-.65Zm0-3.26h.81a.73.73,0,0,0,.6-.26.86.86,0,0,0,.23-.59.85.85,0,0,0-.24-.6.77.77,0,0,0-.59-.26h-.81Z" transform="translate(-12.1 -8.64)"/><path d="M559.36,85.31a0,0,0,0,1-.05,0V84s0,0,.05,0h1.2s.05,0,.05,0v1.23a0,0,0,0,1-.05,0Zm0,3.24s-.05,0-.05,0V87.28a0,0,0,0,1,.05,0h1.2a0,0,0,0,1,.05,0v1.23s0,0-.05,0Z" transform="translate(-12.1 -8.64)"/><path d="M565.26,88.66a2.39,2.39,0,0,1-1.21-.3,2.11,2.11,0,0,1-1.11-1.89V83a2.14,2.14,0,0,1,.29-1.09,2.22,2.22,0,0,1,.82-.79,2.48,2.48,0,0,1,1.2-.29,2.41,2.41,0,0,1,1.19.29,2.12,2.12,0,0,1,.81.79,2.05,2.05,0,0,1,.3,1.09v3.47a2.16,2.16,0,0,1-1.11,1.89A2.38,2.38,0,0,1,565.26,88.66Zm1-2.19V83a.77.77,0,0,0-.28-.62,1,1,0,0,0-.72-.24,1.1,1.1,0,0,0-.74.24.77.77,0,0,0-.28.62v3.47a.79.79,0,0,0,.28.64,1.29,1.29,0,0,0,1.47,0A.79.79,0,0,0,566.27,86.47Z" transform="translate(-12.1 -8.64)"/><rect class="cls-3" x="289.89" y="39.94" width="49.89" height="51"/><path d="M358.39,63.24s0,0,0-.06l0-7.51a0,0,0,0,1,0,0h2.16a2.1,2.1,0,0,1,1.07.29,2.18,2.18,0,0,1,.77.77,2.08,2.08,0,0,1,.29,1.1,2.11,2.11,0,0,1-.12.73,2.35,2.35,0,0,1-.27.55,2.09,2.09,0,0,1-.29.33,2.28,2.28,0,0,1,.57,1.54l0,2.24a.05.05,0,0,1-.06.06h-1.21a0,0,0,0,1,0,0V60.94a1,1,0,0,0-.27-.68.87.87,0,0,0-.67-.29h-.7l0,3.21s0,.06,0,.06Zm1.27-4.58h.91a.86.86,0,0,0,0-1.72h-.91Z" transform="translate(-12.1 -8.64)"/><path d="M363.55,60s-.05,0-.05,0V58.71s0,0,.05,0h1.2s.05,0,.05,0V60s0,0-.05,0Zm0,3.25a0,0,0,0,1-.05-.05V62a0,0,0,0,1,.05-.05h1.2a0,0,0,0,1,.05.05v1.23a0,0,0,0,1-.05.05Z" transform="translate(-12.1 -8.64)"/><path d="M367.11,63.24a.05.05,0,0,1-.06-.06V62s0,0,0-.05l2.65-3.7a1.06,1.06,0,0,0,.12-.26,1,1,0,0,0,.05-.28.89.89,0,0,0-.23-.58.71.71,0,0,0-.57-.27.74.74,0,0,0-.56.26.94.94,0,0,0-.23.65v.53s0,.06-.05.06h-1.2s0,0,0-.06v-.53a2.25,2.25,0,0,1,.29-1.12,2.46,2.46,0,0,1,.77-.8,2,2,0,0,1,1-.29,1.89,1.89,0,0,1,1.05.3,2.21,2.21,0,0,1,.76.79,2.08,2.08,0,0,1,.28,1.06,2.33,2.33,0,0,1-.12.73,2.29,2.29,0,0,1-.34.66l-2,2.85h2.4a0,0,0,0,1,.05.05v1.23s0,.06-.05.06Z" transform="translate(-12.1 -8.64)"/><path d="M373.86,63.35a1.93,1.93,0,0,1-1-.3,2.21,2.21,0,0,1-.77-.78,2,2,0,0,1-.29-1.06v-.32s0,0,.05,0H373s0,0,0,0v.25a.86.86,0,0,0,.24.62.72.72,0,0,0,.56.25.7.7,0,0,0,.56-.26.84.84,0,0,0,.23-.61v-.75a.74.74,0,0,0-.24-.56.78.78,0,0,0-.59-.23.92.92,0,0,0-.76.37l0,0-1.14-.09s-.06,0-.06,0l.13-3,.06-1.19s0,0,.05,0h3.59s0,0,0,0v1.19s0,.06,0,.06h-2.5l-.06,1.51a1.23,1.23,0,0,1,.34-.11,1.89,1.89,0,0,1,.38,0,2,2,0,0,1,1.06.29,2.21,2.21,0,0,1,.78.77,2.06,2.06,0,0,1,.29,1.06v.75a2.28,2.28,0,0,1-.28,1.1,2.25,2.25,0,0,1-.76.8A2,2,0,0,1,373.86,63.35Z" transform="translate(-12.1 -8.64)"/><path d="M378.49,63.35a1.94,1.94,0,0,1-1.05-.3,2.39,2.39,0,0,1-.77-.78,2.08,2.08,0,0,1-.28-1.06v-.32s0,0,.05,0h1.21s0,0,0,0v.25a.86.86,0,0,0,.24.62.72.72,0,0,0,.56.25.7.7,0,0,0,.56-.26.84.84,0,0,0,.23-.61v-.75a.74.74,0,0,0-.24-.56.8.8,0,0,0-.59-.23.92.92,0,0,0-.76.37l0,0-1.14-.09s-.06,0-.06,0l.13-3,.06-1.19s0,0,0,0h3.59s0,0,0,0v1.19s0,.06,0,.06h-2.5l-.06,1.51a1.23,1.23,0,0,1,.34-.11,1.89,1.89,0,0,1,.38,0,2,2,0,0,1,1.06.29,2.21,2.21,0,0,1,.78.77,2.06,2.06,0,0,1,.29,1.06v.75a2.18,2.18,0,0,1-.29,1.1,2.14,2.14,0,0,1-.75.8A2,2,0,0,1,378.49,63.35Z" transform="translate(-12.1 -8.64)"/><path d="M360.31,76.46a1.89,1.89,0,0,1-1.05-.3,2.11,2.11,0,0,1-.75-.79,2.19,2.19,0,0,1-.29-1.11V70.8a2.24,2.24,0,0,1,1-1.88,1.94,1.94,0,0,1,1.05-.3,2,2,0,0,1,1.06.29,2.15,2.15,0,0,1,.75.78,2.18,2.18,0,0,1,.28,1.11v.5s0,0,0,0h-1.2s0,0,0,0v-.41a1,1,0,0,0-.23-.69.73.73,0,0,0-.57-.28.71.71,0,0,0-.55.27.87.87,0,0,0-.24.61v3.46a.87.87,0,0,0,.23.62.74.74,0,0,0,.56.26.77.77,0,0,0,.57-.25.92.92,0,0,0,.23-.63v-.53h-.75s-.05,0-.05-.06V72.45s0-.06.05-.06h2s0,0,0,.06v1.81a2.2,2.2,0,0,1-1,1.9A2,2,0,0,1,360.31,76.46Z" transform="translate(-12.1 -8.64)"/><path d="M363.2,73.1a0,0,0,0,1,0,0V71.83a0,0,0,0,1,0,0h1.21a0,0,0,0,1,0,0v1.23s0,0,0,0Zm0,3.25a0,0,0,0,1,0,0V75.07a0,0,0,0,1,0,0h1.21s0,0,0,0v1.24s0,0,0,0Z" transform="translate(-12.1 -8.64)"/><path d="M366.76,76.35a0,0,0,0,1-.05,0V75.06a.08.08,0,0,1,0,0l2.64-3.71a1,1,0,0,0,.13-.25,1,1,0,0,0,0-.28.9.9,0,0,0-.22-.59.71.71,0,0,0-.57-.27.74.74,0,0,0-.56.26,1,1,0,0,0-.23.65v.54a0,0,0,0,1,0,0h-1.2s0,0,0,0v-.54a2.19,2.19,0,0,1,.29-1.11,2.27,2.27,0,0,1,.77-.8,1.94,1.94,0,0,1,2.07,0,2.22,2.22,0,0,1,.75.8,2.06,2.06,0,0,1,.29,1.06,2.37,2.37,0,0,1-.12.73,2.35,2.35,0,0,1-.34.65l-2,2.86h2.4s.05,0,.05,0V76.3a0,0,0,0,1-.05,0Z" transform="translate(-12.1 -8.64)"/><path d="M373.52,76.46a1.94,1.94,0,0,1-1-.3,2.21,2.21,0,0,1-.77-.78,2,2,0,0,1-.29-1V74s0,0,.06,0h1.21a0,0,0,0,1,0,0v.25a.88.88,0,0,0,.23.62.76.76,0,0,0,.57.26.73.73,0,0,0,.56-.26.87.87,0,0,0,.23-.62v-.74a.75.75,0,0,0-.24-.57.84.84,0,0,0-.59-.23,1,1,0,0,0-.76.37l0,0L371.55,73s-.05,0-.05-.06l.13-3,.06-1.19a0,0,0,0,1,.05-.05h3.59s0,0,0,.05V70s0,0,0,0h-2.5l-.06,1.51a1.7,1.7,0,0,1,.34-.11,1.76,1.76,0,0,1,.38,0,2.06,2.06,0,0,1,1.06.29,2.13,2.13,0,0,1,.78.77,2,2,0,0,1,.29,1.06v.74a2.26,2.26,0,0,1-1.05,1.91A1.89,1.89,0,0,1,373.52,76.46Z" transform="translate(-12.1 -8.64)"/><path d="M378.15,76.46a1.94,1.94,0,0,1-1-.3,2.21,2.21,0,0,1-.77-.78,2,2,0,0,1-.29-1V74s0,0,.06,0h1.21a0,0,0,0,1,0,0v.25a.88.88,0,0,0,.23.62.76.76,0,0,0,.57.26.73.73,0,0,0,.56-.26.91.91,0,0,0,.23-.62v-.74a.75.75,0,0,0-.24-.57.84.84,0,0,0-.59-.23,1,1,0,0,0-.76.37l0,0L376.18,73s-.05,0-.05-.06l.13-3,.06-1.19a0,0,0,0,1,.05-.05H380s0,0,0,.05V70s0,0,0,0h-2.5l-.06,1.51a1.7,1.7,0,0,1,.34-.11,1.76,1.76,0,0,1,.38,0,2.06,2.06,0,0,1,1.06.29,2.13,2.13,0,0,1,.78.77,2,2,0,0,1,.29,1.06v.74a2.26,2.26,0,0,1-1.05,1.91A1.92,1.92,0,0,1,378.15,76.46Z" transform="translate(-12.1 -8.64)"/><path d="M358.39,89.47s0,0,0-.06l0-7.51a0,0,0,0,1,0,0h2.06a2,2,0,0,1,1.09.3,2.14,2.14,0,0,1,1,1.86,1.87,1.87,0,0,1-.2.88,2.24,2.24,0,0,1-.5.65,2.21,2.21,0,0,1,.48.73,2.38,2.38,0,0,1,.17.88,2.31,2.31,0,0,1-.3,1.16,2.28,2.28,0,0,1-.8.83,2.12,2.12,0,0,1-1.13.32Zm1.25-1.34h.67a.87.87,0,0,0,.66-.29,1,1,0,0,0,0-1.36.9.9,0,0,0-.66-.28h-.65Zm0-3.26h.81a.73.73,0,0,0,.6-.26.91.91,0,0,0,.23-.59.82.82,0,0,0-.25-.6.73.73,0,0,0-.58-.26h-.81Z" transform="translate(-12.1 -8.64)"/><path d="M363.35,86.22a0,0,0,0,1,0,0V84.94s0,0,0,0h1.21s0,0,0,0v1.24a0,0,0,0,1,0,0Zm0,3.25s0,0,0,0V88.19s0,0,0,0h1.21s0,0,0,0v1.23s0,0,0,0Z" transform="translate(-12.1 -8.64)"/><path d="M366.91,89.47s-.05,0-.05-.06V88.18s0,0,0-.05l2.64-3.7a1.12,1.12,0,0,0,.17-.54.88.88,0,0,0-.22-.58.71.71,0,0,0-.57-.27.7.7,0,0,0-.56.26.94.94,0,0,0-.23.65v.53s0,.06-.05.06h-1.2s0,0,0-.06V84a2.15,2.15,0,0,1,.29-1.12,2.36,2.36,0,0,1,.77-.8,2,2,0,0,1,1-.29A1.89,1.89,0,0,1,370,82a2.27,2.27,0,0,1,.75.79,2.1,2.1,0,0,1,.16,1.79,2.27,2.27,0,0,1-.33.66l-2,2.85h2.4s0,0,0,.05v1.23s0,.06,0,.06Z" transform="translate(-12.1 -8.64)"/><path d="M373.67,89.57a1.93,1.93,0,0,1-1.05-.29,2.3,2.3,0,0,1-.77-.78,2.09,2.09,0,0,1-.29-1.06v-.32s0-.05.06-.05h1.2a0,0,0,0,1,.05.05v.25a.91.91,0,0,0,.23.62.75.75,0,0,0,.57.25.7.7,0,0,0,.56-.26.89.89,0,0,0,.23-.61v-.75a.74.74,0,0,0-.24-.56.8.8,0,0,0-.59-.23.92.92,0,0,0-.76.37l0,0-1.15-.09a0,0,0,0,1-.05,0l.13-3,.06-1.19a0,0,0,0,1,0,0h3.6a0,0,0,0,1,0,0v1.19s0,.06,0,.06H373l-.05,1.51a1.23,1.23,0,0,1,.34-.11,1.81,1.81,0,0,1,.38,0,2.06,2.06,0,0,1,1.06.29,2.3,2.3,0,0,1,.78.77,2.06,2.06,0,0,1,.29,1.06v.75a2.26,2.26,0,0,1-1,1.9A1.92,1.92,0,0,1,373.67,89.57Z" transform="translate(-12.1 -8.64)"/><path d="M378.3,89.57a1.93,1.93,0,0,1-1.05-.29,2.3,2.3,0,0,1-.77-.78,2.09,2.09,0,0,1-.29-1.06v-.32s0-.05.06-.05h1.2a0,0,0,0,1,.05.05v.25a.91.91,0,0,0,.23.62.75.75,0,0,0,.57.25.7.7,0,0,0,.56-.26.89.89,0,0,0,.23-.61v-.75a.74.74,0,0,0-.24-.56.8.8,0,0,0-.59-.23.92.92,0,0,0-.76.37l0,0-1.15-.09a0,0,0,0,1-.05,0l.13-3,.06-1.19a0,0,0,0,1,0,0h3.6a0,0,0,0,1,0,0v1.19s0,.06,0,.06H377.6l-.05,1.51a1.23,1.23,0,0,1,.34-.11,1.81,1.81,0,0,1,.38,0,2.06,2.06,0,0,1,1.06.29,2.3,2.3,0,0,1,.78.77,2.06,2.06,0,0,1,.29,1.06v.75a2.26,2.26,0,0,1-1,1.9A1.92,1.92,0,0,1,378.3,89.57Z" transform="translate(-12.1 -8.64)"/><line class="cls-4" x1="286.77" y1="22.18" x2="574.09" y2="23.55"/><path d="M312.87,23.86a.07.07,0,0,1-.07-.08l0-11.27a.05.05,0,0,1,.06-.06h3.24a3.07,3.07,0,0,1,1.6.43,3.33,3.33,0,0,1,1.16,1.17,3.11,3.11,0,0,1,.43,1.64,3.08,3.08,0,0,1-.18,1.09,3,3,0,0,1-.41.82,2.58,2.58,0,0,1-.44.5,3.4,3.4,0,0,1,.87,2.32l0,3.36a.07.07,0,0,1-.08.08h-1.82s-.06,0-.06-.05V20.42a1.46,1.46,0,0,0-.41-1,1.32,1.32,0,0,0-1-.43h-1.06v4.82a.07.07,0,0,1-.07.08ZM314.76,17h1.38a1.29,1.29,0,0,0,0-2.57h-1.38Z" transform="translate(-12.1 -8.64)"/><path d="M323.29,23.86s-.06,0-.06-.08V12.51s0-.06.07-.06h5.15s.06,0,.06.08v1.84a.05.05,0,0,1-.06.06h-3.29V17h3.29a.05.05,0,0,1,.06.06l0,1.86s0,.06-.07.06h-3.3v2.87h3.3s.07,0,.07.08v1.87c0,.05,0,.07-.07.07Z" transform="translate(-12.1 -8.64)"/><path d="M332.74,23.86c-.06,0-.08,0-.08-.08l0-11.27a.05.05,0,0,1,.06-.06h3.08a3,3,0,0,1,2.34.92,3.5,3.5,0,0,1,.85,2.49,4.23,4.23,0,0,1-.45,2,3.35,3.35,0,0,1-1.17,1.32,2.91,2.91,0,0,1-1.57.46h-1.22v4.13s0,.08-.08.08Zm1.87-6.2h1.22a1.11,1.11,0,0,0,.89-.5,2.11,2.11,0,0,0,.38-1.3,1.56,1.56,0,0,0-.34-1,1.14,1.14,0,0,0-.93-.41l-1.22,0Z" transform="translate(-12.1 -8.64)"/><path d="M342.74,23.86s-.06,0-.06-.08l0-11.27s0-.06.07-.06H346a3.06,3.06,0,0,1,1.59.43,3.18,3.18,0,0,1,1.16,1.17,3.12,3.12,0,0,1,.44,1.64,3.08,3.08,0,0,1-.18,1.09,3.3,3.3,0,0,1-.42.82,2.58,2.58,0,0,1-.43.5,3.4,3.4,0,0,1,.87,2.32v3.36s0,.08-.08.08h-1.81s-.06,0-.06-.05V20.42a1.46,1.46,0,0,0-.41-1,1.34,1.34,0,0,0-1-.43h-1.05l0,4.82s0,.08-.06.08Zm1.9-6.87H346a1.24,1.24,0,0,0,.88-.38,1.26,1.26,0,0,0,.38-.92A1.26,1.26,0,0,0,346,14.42h-1.38Z" transform="translate(-12.1 -8.64)"/><path d="M353.17,23.86c-.05,0-.07,0-.07-.08l0-11.27a.05.05,0,0,1,.06-.06h5.15a.07.07,0,0,1,.07.08v1.84s0,.06-.07.06H355V17h3.29s.07,0,.07.06v1.86a.05.05,0,0,1-.06.06H355v2.87h3.31s.06,0,.06.08v1.87c0,.05,0,.07-.06.07Z" transform="translate(-12.1 -8.64)"/><path d="M365.16,24a2.91,2.91,0,0,1-1.58-.45,3.45,3.45,0,0,1-1.14-1.2,3.26,3.26,0,0,1-.42-1.64V20a.07.07,0,0,1,.08-.08h1.8s.06,0,.06.08v.76a1.32,1.32,0,0,0,.35.92,1.12,1.12,0,0,0,.85.39,1.08,1.08,0,0,0,.85-.4,1.28,1.28,0,0,0,.35-.91,1.23,1.23,0,0,0-.77-1.05l-.8-.46-1-.59a3.38,3.38,0,0,1-1.31-1.32,3.8,3.8,0,0,1-.43-1.8,3.12,3.12,0,0,1,.44-1.64,3.25,3.25,0,0,1,1.14-1.16,3,3,0,0,1,1.55-.43,3,3,0,0,1,1.57.44,3.3,3.3,0,0,1,1.13,1.16,3.13,3.13,0,0,1,.43,1.63v1.35s0,.06-.07.06h-1.79s-.07,0-.07-.06V15.51a1.29,1.29,0,0,0-.35-.93,1.15,1.15,0,0,0-1.69,0,1.33,1.33,0,0,0-.35.91,1.7,1.7,0,0,0,.22.91,2.15,2.15,0,0,0,.82.68l.31.18.51.27.49.28.26.14a3.79,3.79,0,0,1,1.27,1.13,2.75,2.75,0,0,1,.46,1.63,3.38,3.38,0,0,1-.42,1.68,3.23,3.23,0,0,1-1.14,1.18A3,3,0,0,1,365.16,24Z" transform="translate(-12.1 -8.64)"/><path d="M372.19,23.86c-.05,0-.07,0-.07-.08l0-11.27a.05.05,0,0,1,.06-.06h5.15s.06,0,.06.08v1.84a.05.05,0,0,1-.06.06h-3.29V17h3.29a.05.05,0,0,1,.06.06l0,1.86a.05.05,0,0,1-.06.06h-3.31v2.87h3.31s.06,0,.06.08v1.87c0,.05,0,.07-.06.07Z" transform="translate(-12.1 -8.64)"/><path d="M381.69,23.86a.11.11,0,0,1-.12-.12l0-11.16c0-.09,0-.13.13-.13h1.44l2.71,6.46-.08-6.33c0-.09.05-.13.15-.13h1.58c.07,0,.1,0,.1.13l0,11.18c0,.07,0,.1-.08.1h-1.41l-2.78-6,.11,5.9a.12.12,0,0,1-.14.13Z" transform="translate(-12.1 -8.64)"/><path d="M393.29,23.86s-.06,0-.06-.08V14.43h-2.09a.07.07,0,0,1-.08-.08l0-1.84a.05.05,0,0,1,.06-.06h6.09c.06,0,.08,0,.08.06v1.84c0,.05,0,.08-.06.08h-2.1l0,9.35a.07.07,0,0,1-.07.08Z" transform="translate(-12.1 -8.64)"/><path d="M399.51,23.78l2-11.27a.08.08,0,0,1,.08-.06h2.33a.08.08,0,0,1,.08.06l1.91,11.27s0,.08-.07.08h-1.78s-.07,0-.08-.08l-.18-1.2h-2.18l-.17,1.2s0,.08-.08.08h-1.78C399.53,23.86,399.51,23.83,399.51,23.78Zm2.42-3h1.54l-.65-4.61-.1-.61-.06.61Z" transform="translate(-12.1 -8.64)"/><path d="M412.23,24a3,3,0,0,1-1.6-.45,3.34,3.34,0,0,1-1.13-1.2,3.44,3.44,0,0,1-.41-1.69V15.56a3.35,3.35,0,0,1,.41-1.64,3.23,3.23,0,0,1,1.12-1.2,3.08,3.08,0,0,1,3.19,0,3.28,3.28,0,0,1,1.12,1.19,3.33,3.33,0,0,1,.42,1.66v.76s0,.06-.07.06H413.5c-.05,0-.07,0-.07-.06v-.76a1.35,1.35,0,0,0-.34-.93,1.11,1.11,0,0,0-.86-.39,1,1,0,0,0-.88.4,1.42,1.42,0,0,0-.31.92v5.12a1.4,1.4,0,0,0,.35,1,1.1,1.1,0,0,0,.84.38,1.07,1.07,0,0,0,.86-.42,1.43,1.43,0,0,0,.34-.94v-.76s0-.06.07-.06h1.81a.05.05,0,0,1,.06.06v.76a3.35,3.35,0,0,1-1.55,2.89A2.89,2.89,0,0,1,412.23,24Z" transform="translate(-12.1 -8.64)"/><path d="M419.32,23.86c-.06,0-.08,0-.08-.08V12.51s0-.06.07-.06h1.79s.07,0,.07.06V23.78s0,.08-.06.08Z" transform="translate(-12.1 -8.64)"/><path d="M428.26,24a2.87,2.87,0,0,1-1.57-.45,3.39,3.39,0,0,1-1.15-1.2,3.16,3.16,0,0,1-.43-1.64v-5.2a3.16,3.16,0,0,1,.43-1.64,3.3,3.3,0,0,1,1.14-1.18,3,3,0,0,1,1.57-.44,3,3,0,0,1,1.58.44A3.45,3.45,0,0,1,431,13.89a3.26,3.26,0,0,1,.42,1.64l0,5.2a3.16,3.16,0,0,1-.43,1.64,3.28,3.28,0,0,1-1.14,1.2A2.88,2.88,0,0,1,428.26,24Zm0-2a1.13,1.13,0,0,0,.85-.4,1.33,1.33,0,0,0,.36-.91l0-5.2a1.31,1.31,0,0,0-.34-.92,1.07,1.07,0,0,0-.85-.37,1.16,1.16,0,0,0-.85.36,1.33,1.33,0,0,0-.35.93v5.2a1.32,1.32,0,0,0,.35.92A1.12,1.12,0,0,0,428.26,22Zm-1-10.43c-.06,0-.08,0-.07-.06l1.29-2.84a.08.08,0,0,1,.08-.07h1.82c.07,0,.09,0,.07.07L429,11.55a.11.11,0,0,1-.1.06Z" transform="translate(-12.1 -8.64)"/><path d="M435.46,23.86a.11.11,0,0,1-.12-.12l0-11.16c0-.09,0-.13.13-.13h1.44l2.71,6.46-.08-6.33c0-.09.05-.13.15-.13h1.58c.07,0,.1,0,.1.13l0,11.18c0,.07,0,.1-.08.1h-1.42l-2.77-6,.11,5.9a.12.12,0,0,1-.14.13Z" transform="translate(-12.1 -8.64)"/><path d="M450.6,23.86a.07.07,0,0,1-.08-.08l0-11.27a.05.05,0,0,1,.06-.06l3,0a2.91,2.91,0,0,1,1.61.43,3.23,3.23,0,0,1,1.16,1.19,3.17,3.17,0,0,1,.44,1.64V20.4a3.43,3.43,0,0,1-1.66,3,3.36,3.36,0,0,1-1.7.47Zm1.88-2h1a1.37,1.37,0,0,0,1-.42,1.45,1.45,0,0,0,.41-1V15.68a1.27,1.27,0,0,0-.38-.91,1.14,1.14,0,0,0-.89-.37l-1.12,0Z" transform="translate(-12.1 -8.64)"/><path d="M460.85,23.86s-.06,0-.06-.08V12.51s0-.06.07-.06H466c.05,0,.07,0,.07.08v1.84s0,.06-.07.06h-3.28V17H466c.05,0,.07,0,.07.06v1.86A.05.05,0,0,1,466,19h-3.3v2.87H466s.06,0,.06.08v1.87c0,.05,0,.07-.06.07Z" transform="translate(-12.1 -8.64)"/><path d="M475.35,23.86c-.05,0-.07,0-.07-.08l0-11.25a.07.07,0,0,1,.08-.08h1.78a.07.07,0,0,1,.08.08l0,9.31h3.31a.07.07,0,0,1,.08.08v1.86a.07.07,0,0,1-.08.08Z" transform="translate(-12.1 -8.64)"/><path d="M487.09,24a2.88,2.88,0,0,1-1.58-.45,3.39,3.39,0,0,1-1.15-1.2,3.16,3.16,0,0,1-.43-1.64v-5.2a3.16,3.16,0,0,1,.43-1.64,3.3,3.3,0,0,1,1.14-1.18,3,3,0,0,1,1.58-.44,3,3,0,0,1,1.57.44,3.45,3.45,0,0,1,1.13,1.18,3.26,3.26,0,0,1,.42,1.64l0,5.2a3.16,3.16,0,0,1-.43,1.64,3.34,3.34,0,0,1-1.13,1.2A2.93,2.93,0,0,1,487.09,24Zm0-2a1.12,1.12,0,0,0,.84-.4,1.33,1.33,0,0,0,.36-.91l0-5.2a1.35,1.35,0,0,0-.33-.92,1.1,1.1,0,0,0-.85-.37,1.13,1.13,0,0,0-.85.36,1.29,1.29,0,0,0-.36.93v5.2a1.28,1.28,0,0,0,.36.92A1.09,1.09,0,0,0,487.09,22Z" transform="translate(-12.1 -8.64)"/><path d="M496.87,24a2.88,2.88,0,0,1-1.58-.45,3.36,3.36,0,0,1-1.57-2.84V20a.07.07,0,0,1,.08-.08h1.8s.06,0,.06.08v.76a1.28,1.28,0,0,0,.36.92,1.11,1.11,0,0,0,1.7,0,1.33,1.33,0,0,0,.35-.91,1.25,1.25,0,0,0-.77-1.05l-.8-.46-1-.59a3.36,3.36,0,0,1-1.3-1.32,3.69,3.69,0,0,1-.43-1.8,3.11,3.11,0,0,1,.43-1.64,3.2,3.2,0,0,1,1.15-1.16,3,3,0,0,1,1.55-.43,2.94,2.94,0,0,1,1.56.44A3.23,3.23,0,0,1,500,15.51v1.35s0,.06-.07.06h-1.8a.05.05,0,0,1-.06-.06l0-1.35a1.25,1.25,0,0,0-.35-.93,1.14,1.14,0,0,0-1.68,0,1.29,1.29,0,0,0-.36.91,1.71,1.71,0,0,0,.23.91,2.08,2.08,0,0,0,.82.68c.05,0,.16.09.31.18l.51.27.48.28.27.14a3.88,3.88,0,0,1,1.27,1.13,2.75,2.75,0,0,1,.46,1.63,3.26,3.26,0,0,1-1.56,2.86A3,3,0,0,1,496.87,24Z" transform="translate(-12.1 -8.64)"/><path d="M511.85,24a3,3,0,0,1-1.6-.45,3.26,3.26,0,0,1-1.13-1.2,3.44,3.44,0,0,1-.42-1.69l0-5.12a3.25,3.25,0,0,1,.41-1.64,3.15,3.15,0,0,1,1.12-1.2,3.06,3.06,0,0,1,3.18,0,3.31,3.31,0,0,1,1.13,1.19,3.43,3.43,0,0,1,.41,1.66v.76a.05.05,0,0,1-.06.06h-1.8a.05.05,0,0,1-.06-.06v-.76a1.36,1.36,0,0,0-.35-.93,1.09,1.09,0,0,0-.85-.39,1.05,1.05,0,0,0-.89.4,1.47,1.47,0,0,0-.3.92v5.12a1.39,1.39,0,0,0,.34,1,1.11,1.11,0,0,0,.85.38,1.06,1.06,0,0,0,.85-.42,1.44,1.44,0,0,0,.35-.94v-.76a.05.05,0,0,1,.06-.06h1.81c.05,0,.07,0,.07.06v.76a3.39,3.39,0,0,1-1.56,2.89A2.88,2.88,0,0,1,511.85,24Z" transform="translate(-12.1 -8.64)"/><path d="M521.82,24a2.91,2.91,0,0,1-1.58-.45,3.39,3.39,0,0,1-1.15-1.2,3.16,3.16,0,0,1-.43-1.64l0-5.2a3.26,3.26,0,0,1,.42-1.64,3.33,3.33,0,0,1,1.15-1.18,3,3,0,0,1,1.57-.44,2.93,2.93,0,0,1,1.57.44,3.36,3.36,0,0,1,1.13,1.18,3.26,3.26,0,0,1,.43,1.64v5.2a3.26,3.26,0,0,1-.42,1.64,3.45,3.45,0,0,1-1.14,1.2A2.91,2.91,0,0,1,521.82,24Zm0-2a1.12,1.12,0,0,0,.84-.4,1.33,1.33,0,0,0,.36-.91v-5.2a1.36,1.36,0,0,0-.34-.92,1.1,1.1,0,0,0-.85-.37,1.14,1.14,0,0,0-.85.36,1.28,1.28,0,0,0-.35.93v5.2a1.28,1.28,0,0,0,.35.92A1.1,1.1,0,0,0,521.82,22Z" transform="translate(-12.1 -8.64)"/><path d="M528.94,23.86s-.06,0-.06-.08V12.53a.07.07,0,0,1,.08-.08h1.78a.07.07,0,0,1,.08.08v9.31h3.3a.07.07,0,0,1,.08.08v1.86a.07.07,0,0,1-.08.08Z" transform="translate(-12.1 -8.64)"/><path d="M540.68,24a2.88,2.88,0,0,1-1.58-.45,3.39,3.39,0,0,1-1.15-1.2,3.16,3.16,0,0,1-.43-1.64l0-5.2a3.26,3.26,0,0,1,.42-1.64,3.33,3.33,0,0,1,1.15-1.18,3,3,0,0,1,1.57-.44,2.93,2.93,0,0,1,1.57.44,3.36,3.36,0,0,1,1.13,1.18,3.26,3.26,0,0,1,.43,1.64v5.2a3.26,3.26,0,0,1-.42,1.64,3.45,3.45,0,0,1-1.14,1.2A2.91,2.91,0,0,1,540.68,24Zm0-2a1.12,1.12,0,0,0,.84-.4,1.33,1.33,0,0,0,.36-.91l0-5.2a1.35,1.35,0,0,0-.33-.92,1.1,1.1,0,0,0-.85-.37,1.14,1.14,0,0,0-.85.36,1.28,1.28,0,0,0-.35.93v5.2a1.28,1.28,0,0,0,.35.92A1.1,1.1,0,0,0,540.68,22Z" transform="translate(-12.1 -8.64)"/><path d="M547.8,23.86a.07.07,0,0,1-.07-.08l0-11.27a.05.05,0,0,1,.06-.06h3.24a3.07,3.07,0,0,1,1.6.43,3.33,3.33,0,0,1,1.16,1.17,3.11,3.11,0,0,1,.43,1.64,3.08,3.08,0,0,1-.18,1.09,3,3,0,0,1-.41.82,2.58,2.58,0,0,1-.44.5,3.4,3.4,0,0,1,.87,2.32l0,3.36a.07.07,0,0,1-.08.08h-1.82s-.06,0-.06-.05V20.42a1.46,1.46,0,0,0-.41-1,1.32,1.32,0,0,0-1-.43h-1.06v4.82a.07.07,0,0,1-.07.08ZM549.69,17h1.38a1.29,1.29,0,0,0,0-2.57h-1.38Z" transform="translate(-12.1 -8.64)"/><path d="M558.22,23.86s-.06,0-.06-.08V12.51s0-.06.07-.06h5.15s.06,0,.06.08v1.84a.05.05,0,0,1-.06.06H560.1V17h3.29a.05.05,0,0,1,.06.06l0,1.86s0,.06-.07.06h-3.3v2.87h3.3c.05,0,.07,0,.07.08v1.87c0,.05,0,.07-.07.07Z" transform="translate(-12.1 -8.64)"/><path d="M570.22,24a2.88,2.88,0,0,1-1.58-.45,3.36,3.36,0,0,1-1.57-2.84V20a.07.07,0,0,1,.08-.08H569s.06,0,.06.08v.76a1.28,1.28,0,0,0,.36.92,1.11,1.11,0,0,0,1.7,0,1.33,1.33,0,0,0,.35-.91,1.25,1.25,0,0,0-.77-1.05l-.8-.46-1-.59a3.45,3.45,0,0,1-1.31-1.32,3.79,3.79,0,0,1-.42-1.8,3.11,3.11,0,0,1,.43-1.64,3.2,3.2,0,0,1,1.15-1.16,3,3,0,0,1,3.11,0,3.19,3.19,0,0,1,1.56,2.79v1.35a.05.05,0,0,1-.06.06h-1.8a.05.05,0,0,1-.06-.06l0-1.35a1.25,1.25,0,0,0-.35-.93,1.14,1.14,0,0,0-1.68,0,1.29,1.29,0,0,0-.36.91,1.71,1.71,0,0,0,.23.91,2.08,2.08,0,0,0,.82.68,3.35,3.35,0,0,0,.31.18l.5.27.49.28.27.14a3.85,3.85,0,0,1,1.26,1.13,2.75,2.75,0,0,1,.47,1.63,3.32,3.32,0,0,1-1.56,2.86A3,3,0,0,1,570.22,24Z" transform="translate(-12.1 -8.64)"/><line class="cls-4" x1="286.77" y1="126" x2="574.09" y2="127.37"/><text class="cls-5" transform="translate(332.52 119.04) scale(0.98 1)">elemen<tspan class="cls-6" x="60.1" y="0">t</tspan><tspan class="cls-7" x="69.24" y="0">os de</tspan><tspan class="cls-8" x="114.7" y="0">l</tspan><tspan x="123.31" y="0"> </tspan><tspan class="cls-9" x="128.49" y="0">l</tspan><tspan x="137.52" y="0">og</tspan><tspan class="cls-10" x="157.9" y="0">o</tspan><tspan x="167.93" y="0">ti</tspan><tspan class="cls-6" x="183.44" y="0">p</tspan><tspan x="193.65" y="0">o</tspan></text><rect class="cls-11" y="158.75" width="259.75" height="19.6"/><path class="cls-12" d="M14.38,184.52l2.75-15.73a.13.13,0,0,1,.12-.1h3.22c.06,0,.09,0,.11.1l2.64,15.73q0,.12-.09.12H20.67c-.06,0-.1,0-.11-.12l-.25-1.67h-3l-.24,1.67q0,.12-.12.12H14.47Q14.38,184.64,14.38,184.52Zm3.35-4.12h2.14L19,174l-.14-.84-.09.84Z" transform="translate(-12.1 -8.64)"/><path class="cls-12" d="M32.87,184.64q-.09,0-.09-.12l0-15.71c0-.08,0-.12.11-.12h2.47c.07,0,.11,0,.11.12l0,13h4.58c.07,0,.11,0,.11.12v2.58c0,.08,0,.12-.11.12Z" transform="translate(-12.1 -8.64)"/><path class="cls-12" d="M49.85,184.64q-.09,0-.09-.12l0-15.73c0-.06,0-.1.09-.1H57q.09,0,.09.12v2.57a.08.08,0,0,1-.09.09H52.45V175H57a.08.08,0,0,1,.09.09l0,2.59a.08.08,0,0,1-.09.09H52.45v4H57q.09,0,.09.12v2.61a.08.08,0,0,1-.09.09Z" transform="translate(-12.1 -8.64)"/><path class="cls-12" d="M70.12,184.87a4.18,4.18,0,0,1-3.79-2.28,5,5,0,0,1-.57-2.4v-1.05a.08.08,0,0,1,.09-.09h2.51c.06,0,.09,0,.09.11v1a2,2,0,0,0,.47,1.38,1.53,1.53,0,0,0,1.2.53,1.48,1.48,0,0,0,1.15-.58,2,2,0,0,0,.49-1.33V168.81a.08.08,0,0,1,.09-.09h2.49c.06,0,.09,0,.09.11l0,11.36a4.77,4.77,0,0,1-.59,2.33,4.7,4.7,0,0,1-1.57,1.71A3.91,3.91,0,0,1,70.12,184.87Z" transform="translate(-12.1 -8.64)"/><path class="cls-12" d="M83.54,184.52l2.76-15.73a.11.11,0,0,1,.11-.1h3.22a.11.11,0,0,1,.11.1l2.65,15.73q0,.12-.09.12H89.83c-.06,0-.1,0-.11-.12l-.25-1.67h-3l-.24,1.67c0,.08-.06.12-.11.12H83.63Q83.54,184.64,83.54,184.52Zm3.36-4.12H89L88.12,174l-.14-.84-.08.84Z" transform="translate(-12.1 -8.64)"/><path class="cls-12" d="M102.14,184.64c-.12,0-.18-.06-.18-.16l0-15.6a.17.17,0,0,1,.18-.19h2l3.76,9-.12-8.84a.18.18,0,0,1,.2-.19h2.2c.09,0,.14.07.14.19l0,15.62c0,.09,0,.14-.11.14h-2l-3.84-8.43.15,8.24c0,.13-.06.19-.2.19Z" transform="translate(-12.1 -8.64)"/><path class="cls-12" d="M120.52,184.64c-.07,0-.11,0-.11-.12l0-15.73c0-.06,0-.1.09-.1l4.16,0a4,4,0,0,1,2.23.6,4.6,4.6,0,0,1,2.21,4v6.58a4.79,4.79,0,0,1-2.29,4.14,4.47,4.47,0,0,1-2.35.66Zm2.6-2.82h1.38a1.87,1.87,0,0,0,1.39-.59,2,2,0,0,0,.56-1.42v-6.6a1.74,1.74,0,0,0-.52-1.27,1.61,1.61,0,0,0-1.23-.52l-1.56,0Z" transform="translate(-12.1 -8.64)"/><path class="cls-12" d="M139.14,184.64c-.06,0-.08,0-.08-.12l0-15.73c0-.06,0-.1.09-.1h4.49a4.25,4.25,0,0,1,2.21.61,4.65,4.65,0,0,1,1.61,1.63,4.43,4.43,0,0,1,.6,2.3,4.49,4.49,0,0,1-.24,1.52,4.93,4.93,0,0,1-.58,1.15,4.17,4.17,0,0,1-.6.7,4.74,4.74,0,0,1,1.2,3.23l0,4.69c0,.08,0,.12-.11.12h-2.51c-.06,0-.09,0-.09-.07v-4.74a2,2,0,0,0-.57-1.43,1.8,1.8,0,0,0-1.39-.61h-1.46l0,6.73c0,.08,0,.12-.08.12Zm2.63-9.6h1.91a1.66,1.66,0,0,0,1.22-.53,1.8,1.8,0,0,0,0-2.54,1.69,1.69,0,0,0-1.23-.53h-1.91Z" transform="translate(-12.1 -8.64)"/><path class="cls-12" d="M161.92,184.87a3.94,3.94,0,0,1-2.18-.63,4.8,4.8,0,0,1-1.59-1.67,4.57,4.57,0,0,1-.6-2.31l0-7.26a4.57,4.57,0,0,1,2.18-3.94,4.05,4.05,0,0,1,2.17-.62,4,4,0,0,1,2.18.62,4.62,4.62,0,0,1,2.16,3.94l0,7.26a4.66,4.66,0,0,1-2.17,4A4,4,0,0,1,161.92,184.87Zm0-2.77a1.5,1.5,0,0,0,1.17-.57,1.85,1.85,0,0,0,.5-1.27l0-7.26a1.87,1.87,0,0,0-.47-1.28,1.51,1.51,0,0,0-1.18-.53,1.54,1.54,0,0,0-1.17.52,1.77,1.77,0,0,0-.49,1.29v7.26a1.85,1.85,0,0,0,.49,1.3A1.52,1.52,0,0,0,161.92,182.1Z" transform="translate(-12.1 -8.64)"/><path class="cls-12" d="M191.68,184.87a4,4,0,0,1-2.19-.63,4.8,4.8,0,0,1-1.59-1.67,4.57,4.57,0,0,1-.6-2.31l0-7.26a4.47,4.47,0,0,1,.59-2.29,4.55,4.55,0,0,1,1.58-1.65,4.11,4.11,0,0,1,2.18-.62,4,4,0,0,1,2.18.62,4.69,4.69,0,0,1,1.57,1.65A4.57,4.57,0,0,1,196,173l0,7.26a4.66,4.66,0,0,1-2.17,4A4,4,0,0,1,191.68,184.87Zm0-2.77a1.5,1.5,0,0,0,1.17-.57,1.85,1.85,0,0,0,.5-1.27l0-7.26a1.87,1.87,0,0,0-.47-1.28,1.51,1.51,0,0,0-1.18-.53,1.56,1.56,0,0,0-1.18.52A1.81,1.81,0,0,0,190,173v7.26a1.88,1.88,0,0,0,.48,1.3A1.54,1.54,0,0,0,191.68,182.1Z" transform="translate(-12.1 -8.64)"/><path class="cls-12" d="M210,184.87a4,4,0,0,1-2.21-.63,4.46,4.46,0,0,1-1.56-1.69,4.77,4.77,0,0,1-.58-2.36l0-7.14a4.7,4.7,0,0,1,.57-2.3,4.4,4.4,0,0,1,1.55-1.68,4.2,4.2,0,0,1,4.41,0,4.52,4.52,0,0,1,1.56,1.66,4.79,4.79,0,0,1,.58,2.33v1a.08.08,0,0,1-.09.09h-2.49a.08.08,0,0,1-.09-.09v-1a1.93,1.93,0,0,0-.48-1.31,1.53,1.53,0,0,0-1.19-.55,1.44,1.44,0,0,0-1.22.56,2.13,2.13,0,0,0-.42,1.3v7.14a2,2,0,0,0,.48,1.38,1.51,1.51,0,0,0,1.16.53,1.48,1.48,0,0,0,1.19-.59,2,2,0,0,0,.48-1.32v-1.05a.08.08,0,0,1,.09-.09h2.51a.08.08,0,0,1,.09.09v1.05a4.78,4.78,0,0,1-.59,2.36,4.56,4.56,0,0,1-1.57,1.69A4,4,0,0,1,210,184.87Z" transform="translate(-12.1 -8.64)"/><path class="cls-12" d="M224.2,184.64q-.09,0-.09-.12l0-15.73a.1.1,0,0,1,.11-.1h2.47a.1.1,0,0,1,.11.1l0,6.23h3.33v-6.23c0-.06,0-.1.09-.1h2.47a.1.1,0,0,1,.11.1l0,15.73c0,.08,0,.12-.11.12h-2.49c-.07,0-.11,0-.11-.12v-6.73H226.8v6.73q0,.12-.09.12Z" transform="translate(-12.1 -8.64)"/><path class="cls-12" d="M246.93,184.87a4,4,0,0,1-2.19-.63,4.8,4.8,0,0,1-1.59-1.67,4.57,4.57,0,0,1-.6-2.31l0-7.26a4.56,4.56,0,0,1,.58-2.29,4.66,4.66,0,0,1,1.59-1.65,4.11,4.11,0,0,1,2.18-.62,4,4,0,0,1,2.18.62,4.69,4.69,0,0,1,1.57,1.65,4.57,4.57,0,0,1,.59,2.29l0,7.26a4.66,4.66,0,0,1-2.17,4A4,4,0,0,1,246.93,184.87Zm0-2.77a1.52,1.52,0,0,0,1.17-.57,1.85,1.85,0,0,0,.5-1.27l0-7.26a1.87,1.87,0,0,0-.47-1.28,1.51,1.51,0,0,0-1.18-.53,1.56,1.56,0,0,0-1.18.52,1.81,1.81,0,0,0-.49,1.29v7.26a1.89,1.89,0,0,0,.49,1.3A1.54,1.54,0,0,0,246.93,182.1Z" transform="translate(-12.1 -8.64)"/><path class="cls-12" d="M260,184.52l2.75-15.73c0-.06,0-.1.11-.1h3.23c.06,0,.09,0,.11.1l2.64,15.73q0,.12-.09.12h-2.46c-.06,0-.1,0-.11-.12l-.25-1.67h-3l-.25,1.67c0,.08-.05.12-.11.12h-2.46Q260,184.64,260,184.52Zm3.35-4.12h2.14l-.91-6.44-.14-.84-.09.84Z" transform="translate(-12.1 -8.64)"/><path d="M131.17,97.41s1.12,7.32,0,12.52c0,0,12-5.73,22.13,0,0,0-1.12-7.43,0-12.52C153.3,97.41,142.46,89.67,131.17,97.41Z" transform="translate(-12.1 -8.64)"/><text class="cls-13" transform="translate(45.19 190.54) scale(0.97 1)">P<tspan class="cls-14" x="8.69" y="0">r</tspan><tspan x="17.62" y="0">o</tspan><tspan class="cls-15" x="26.31" y="0">d</tspan><tspan x="35.14" y="0">ucción Mu</tspan><tspan class="cls-16" x="107.98" y="0">l</tspan><tspan x="114.85" y="0">timedi</tspan><tspan class="cls-17" x="161.36" y="0">a</tspan></text><ellipse cx="199.75" cy="92.67" rx="60" ry="61.34"/><ellipse class="cls-12" cx="199.71" cy="92.63" rx="52.67" ry="53.85"/><ellipse class="cls-18" cx="200.19" cy="92.75" rx="19.06" ry="19.49"/><ellipse class="cls-19" cx="200.19" cy="92.75" rx="29.76" ry="30.42"/><ellipse class="cls-11" cx="200.09" cy="92.75" rx="7.26" ry="7.42"/><ellipse class="cls-20" cx="206.4" cy="109.94" rx="5.59" ry="5.72"/><ellipse class="cls-20" cx="224.54" cy="71.99" rx="5.59" ry="5.72"/><ellipse class="cls-20" cx="172.63" cy="76.96" rx="5.59" ry="5.72"/><ellipse cx="60" cy="92.65" rx="60" ry="61.34"/><ellipse class="cls-11" cx="60" cy="92.61" rx="52.67" ry="53.85"/><path d="M31.53,101.8S57,74.62,72.46,53.37c0,0,28.46,36.17,39.3,47.46" transform="translate(-12.1 -8.64)"/><path class="cls-12" d="M31.53,102.12s41.92-51.54,80.23-1.05C111.76,101.07,82.85,148.86,31.53,102.12Z" transform="translate(-12.1 -8.64)"/><ellipse class="cls-11" cx="60.36" cy="93.06" rx="13.01" ry="12.11"/><path d="M372.42,190.08a26.26,26.26,0,0,1,0,7.68s7.34-3.51,13.58,0a26.37,26.37,0,0,1,0-7.68S379.35,185.33,372.42,190.08Z" transform="translate(-12.1 -8.64)"/><ellipse cx="409.85" cy="183.83" rx="36.84" ry="37.66"/><ellipse class="cls-12" cx="409.83" cy="183.81" rx="32.34" ry="33.06"/><ellipse class="cls-21" cx="410.13" cy="183.88" rx="11.7" ry="11.96"/><ellipse class="cls-22" cx="410.13" cy="183.88" rx="18.27" ry="18.68"/><ellipse class="cls-11" cx="410.06" cy="183.88" rx="4.46" ry="4.56"/><ellipse class="cls-23" cx="413.93" cy="194.43" rx="3.43" ry="3.51"/><ellipse class="cls-23" cx="425.07" cy="171.13" rx="3.43" ry="3.51"/><ellipse class="cls-23" cx="393.2" cy="174.18" rx="3.43" ry="3.51"/><ellipse cx="324.05" cy="183.82" rx="36.84" ry="37.66"/><ellipse class="cls-11" cx="324.05" cy="183.79" rx="32.34" ry="33.06"/><path d="M311.24,192.77s15.65-16.69,25.13-29.73c0,0,17.47,22.21,24.13,29.14" transform="translate(-12.1 -8.64)"/><path class="cls-12" d="M311.24,193s25.74-31.64,49.26-.64C360.5,192.33,342.75,221.67,311.24,193Z" transform="translate(-12.1 -8.64)"/><ellipse class="cls-11" cx="324.28" cy="184.07" rx="7.99" ry="7.43"/><line class="cls-24" x1="455.6" y1="144.68" x2="455.6" y2="223"/><text class="cls-25" transform="translate(461.83 154.12) scale(0.98 1)">1. Ojo rel<tspan class="cls-26" x="36.69" y="0">a</tspan><tspan x="41.12" y="0">ciona</tspan><tspan class="cls-27" x="63.1" y="0">d</tspan><tspan x="68" y="0">o </tspan><tspan class="cls-28" x="74.61" y="0"> </tspan><tspan class="cls-29" x="76.48" y="0">a</tspan><tspan x="81.25" y="0" xml:space="preserve"> l</tspan><tspan class="cls-30" x="87.21" y="0">a</tspan><tspan x="91.98" y="0"> </tspan><tspan x="0" y="13.11">pintur</tspan><tspan class="cls-30" x="27.12" y="13.11">a</tspan><tspan x="31.89" y="13.11" xml:space="preserve"> Sen</tspan><tspan class="cls-31" x="47.93" y="13.11">e</tspan><tspan x="52.35" y="13.11">cio de</tspan><tspan class="cls-32" x="75.96" y="13.11">l</tspan><tspan class="cls-28" x="79.86" y="13.11"> </tspan><tspan x="81.73" y="13.11">a</tspan><tspan class="cls-33" x="86.39" y="13.11">r</tspan><tspan x="91.44" y="13.11">ti</tspan><tspan class="cls-34" x="98.11" y="13.11">s</tspan><tspan class="cls-35" x="102.82" y="13.11">t</tspan><tspan class="cls-30" x="106.8" y="13.11">a</tspan><tspan x="111.57" y="13.11"> </tspan><tspan class="cls-36" x="0" y="26.23">P</tspan><tspan class="cls-37" x="4.45" y="26.23">a</tspan><tspan x="8.97" y="26.23">u</tspan><tspan class="cls-38" x="14" y="26.23">l</tspan><tspan x="17.9" y="26.23" xml:space="preserve"> Klee.</tspan><tspan x="0" y="39.34">2. Un icono rel</tspan><tspan class="cls-26" x="58.47" y="39.34">a</tspan><tspan x="62.91" y="39.34">ciona</tspan><tspan class="cls-27" x="84.88" y="39.34">d</tspan><tspan x="89.78" y="39.34">o</tspan><tspan class="cls-28" x="94.77" y="39.34"> </tspan><tspan class="cls-29" x="96.64" y="39.34">a</tspan><tspan x="101.42" y="39.34" xml:space="preserve"> l</tspan><tspan class="cls-30" x="107.37" y="39.34">a</tspan><tspan x="112.15" y="39.34"> </tspan><tspan class="cls-39" x="0" y="52.46">g</tspan><tspan x="4.72" y="52.46">al</tspan><tspan class="cls-33" x="13.73" y="52.46">a</tspan><tspan x="18.17" y="52.46">xia.</tspan><tspan x="0" y="65.57">3. E</tspan><tspan class="cls-38" x="13.23" y="65.57">l</tspan><tspan x="17.14" y="65.57" xml:space="preserve"> con</tspan><tspan class="cls-40" x="33.77" y="65.57">t</tspan><tspan x="38.03" y="65.57">orno de un</tspan><tspan class="cls-33" x="81.44" y="65.57">a</tspan><tspan x="85.89" y="65.57">s </tspan><tspan class="cls-39" x="92.27" y="65.57">g</tspan><tspan x="96.99" y="65.57">a</tspan><tspan class="cls-41" x="101.66" y="65.57">f</tspan><tspan class="cls-33" x="105.62" y="65.57">a</tspan><tspan class="cls-42" x="110.06" y="65.57">s</tspan><tspan x="114.5" y="65.57">.</tspan></text></svg>